%TF.GenerationSoftware,KiCad,Pcbnew,(6.0.8)*%
%TF.CreationDate,2023-04-11T21:19:58-04:00*%
%TF.ProjectId,Rat_NEST_v1,5261745f-4e45-4535-945f-76312e6b6963,rev?*%
%TF.SameCoordinates,Original*%
%TF.FileFunction,Copper,L2,Bot*%
%TF.FilePolarity,Positive*%
%FSLAX46Y46*%
G04 Gerber Fmt 4.6, Leading zero omitted, Abs format (unit mm)*
G04 Created by KiCad (PCBNEW (6.0.8)) date 2023-04-11 21:19:58*
%MOMM*%
%LPD*%
G01*
G04 APERTURE LIST*
G04 Aperture macros list*
%AMRoundRect*
0 Rectangle with rounded corners*
0 $1 Rounding radius*
0 $2 $3 $4 $5 $6 $7 $8 $9 X,Y pos of 4 corners*
0 Add a 4 corners polygon primitive as box body*
4,1,4,$2,$3,$4,$5,$6,$7,$8,$9,$2,$3,0*
0 Add four circle primitives for the rounded corners*
1,1,$1+$1,$2,$3*
1,1,$1+$1,$4,$5*
1,1,$1+$1,$6,$7*
1,1,$1+$1,$8,$9*
0 Add four rect primitives between the rounded corners*
20,1,$1+$1,$2,$3,$4,$5,0*
20,1,$1+$1,$4,$5,$6,$7,0*
20,1,$1+$1,$6,$7,$8,$9,0*
20,1,$1+$1,$8,$9,$2,$3,0*%
%AMOutline5P*
0 Free polygon, 5 corners , with rotation*
0 The origin of the aperture is its center*
0 number of corners: always 5*
0 $1 to $10 corner X, Y*
0 $11 Rotation angle, in degrees counterclockwise*
0 create outline with 5 corners*
4,1,5,$1,$2,$3,$4,$5,$6,$7,$8,$9,$10,$1,$2,$11*%
%AMOutline6P*
0 Free polygon, 6 corners , with rotation*
0 The origin of the aperture is its center*
0 number of corners: always 6*
0 $1 to $12 corner X, Y*
0 $13 Rotation angle, in degrees counterclockwise*
0 create outline with 6 corners*
4,1,6,$1,$2,$3,$4,$5,$6,$7,$8,$9,$10,$11,$12,$1,$2,$13*%
%AMOutline7P*
0 Free polygon, 7 corners , with rotation*
0 The origin of the aperture is its center*
0 number of corners: always 7*
0 $1 to $14 corner X, Y*
0 $15 Rotation angle, in degrees counterclockwise*
0 create outline with 7 corners*
4,1,7,$1,$2,$3,$4,$5,$6,$7,$8,$9,$10,$11,$12,$13,$14,$1,$2,$15*%
%AMOutline8P*
0 Free polygon, 8 corners , with rotation*
0 The origin of the aperture is its center*
0 number of corners: always 8*
0 $1 to $16 corner X, Y*
0 $17 Rotation angle, in degrees counterclockwise*
0 create outline with 8 corners*
4,1,8,$1,$2,$3,$4,$5,$6,$7,$8,$9,$10,$11,$12,$13,$14,$15,$16,$1,$2,$17*%
%AMFreePoly0*
4,1,5,0.292100,-0.673100,-0.292100,-0.673100,-0.292100,0.673100,0.292100,0.673100,0.292100,-0.673100,0.292100,-0.673100,$1*%
%AMFreePoly1*
4,1,5,0.255000,-0.673100,-0.255000,-0.673100,-0.255000,0.673100,0.255000,0.673100,0.255000,-0.673100,0.255000,-0.673100,$1*%
%AMFreePoly2*
4,1,5,0.280000,-0.475000,-0.280000,-0.475000,-0.280000,0.475000,0.280000,0.475000,0.280000,-0.475000,0.280000,-0.475000,$1*%
G04 Aperture macros list end*
%TA.AperFunction,SMDPad,CuDef*%
%ADD10RoundRect,0.250000X-0.475000X0.250000X-0.475000X-0.250000X0.475000X-0.250000X0.475000X0.250000X0*%
%TD*%
%TA.AperFunction,SMDPad,CuDef*%
%ADD11RoundRect,0.250000X-0.450000X0.262500X-0.450000X-0.262500X0.450000X-0.262500X0.450000X0.262500X0*%
%TD*%
%TA.AperFunction,SMDPad,CuDef*%
%ADD12R,1.500000X1.000000*%
%TD*%
%TA.AperFunction,SMDPad,CuDef*%
%ADD13Outline5P,-0.500000X0.750000X0.500000X0.750000X0.500000X-0.550000X0.300000X-0.750000X-0.500000X-0.750000X90.000000*%
%TD*%
%TA.AperFunction,SMDPad,CuDef*%
%ADD14FreePoly0,0.000000*%
%TD*%
%TA.AperFunction,SMDPad,CuDef*%
%ADD15FreePoly1,0.000000*%
%TD*%
%TA.AperFunction,SMDPad,CuDef*%
%ADD16Outline5P,-0.292100X0.673100X0.292100X0.673100X0.292100X-0.673100X-0.175260X-0.673100X-0.292100X-0.556260X0.000000*%
%TD*%
%TA.AperFunction,SMDPad,CuDef*%
%ADD17RoundRect,0.250000X0.312500X0.625000X-0.312500X0.625000X-0.312500X-0.625000X0.312500X-0.625000X0*%
%TD*%
%TA.AperFunction,SMDPad,CuDef*%
%ADD18RoundRect,0.250000X0.250000X0.475000X-0.250000X0.475000X-0.250000X-0.475000X0.250000X-0.475000X0*%
%TD*%
%TA.AperFunction,SMDPad,CuDef*%
%ADD19FreePoly2,0.000000*%
%TD*%
%TA.AperFunction,SMDPad,CuDef*%
%ADD20RoundRect,0.250000X0.625000X-0.312500X0.625000X0.312500X-0.625000X0.312500X-0.625000X-0.312500X0*%
%TD*%
%TA.AperFunction,SMDPad,CuDef*%
%ADD21RoundRect,0.250000X0.325000X0.650000X-0.325000X0.650000X-0.325000X-0.650000X0.325000X-0.650000X0*%
%TD*%
%TA.AperFunction,SMDPad,CuDef*%
%ADD22RoundRect,0.250000X-0.312500X-0.625000X0.312500X-0.625000X0.312500X0.625000X-0.312500X0.625000X0*%
%TD*%
%TA.AperFunction,SMDPad,CuDef*%
%ADD23Outline5P,-0.500000X0.750000X0.500000X0.750000X0.500000X-0.550000X0.300000X-0.750000X-0.500000X-0.750000X270.000000*%
%TD*%
%TA.AperFunction,ViaPad*%
%ADD24C,0.800000*%
%TD*%
%TA.AperFunction,Conductor*%
%ADD25C,0.200000*%
%TD*%
%TA.AperFunction,Conductor*%
%ADD26C,0.250000*%
%TD*%
G04 APERTURE END LIST*
D10*
%TO.P,REF\u002A\u002A,1*%
%TO.N,N/C*%
X147828000Y-111318000D03*
%TO.P,REF\u002A\u002A,2*%
X147828000Y-113218000D03*
%TD*%
D11*
%TO.P,REF\u002A\u002A,1*%
%TO.N,N/C*%
X152552400Y-97029900D03*
%TO.P,REF\u002A\u002A,2*%
X152552400Y-98854900D03*
%TD*%
D12*
%TO.P,REF\u002A\u002A,1*%
%TO.N,N/C*%
X162052000Y-106456000D03*
D13*
%TO.P,REF\u002A\u002A,2*%
X162052000Y-103856000D03*
%TD*%
D14*
%TO.P,REF\u002A\u002A,1*%
%TO.N,N/C*%
X144018000Y-103632000D03*
%TO.P,REF\u002A\u002A,2*%
X145288000Y-103632000D03*
%TO.P,REF\u002A\u002A,3*%
X146558000Y-103632000D03*
%TO.P,REF\u002A\u002A,4*%
X147828000Y-103632000D03*
%TO.P,REF\u002A\u002A,5*%
X149098000Y-103632000D03*
%TO.P,REF\u002A\u002A,6*%
X150368000Y-103632000D03*
%TO.P,REF\u002A\u002A,7*%
X151638000Y-103632000D03*
%TO.P,REF\u002A\u002A,8*%
X151638000Y-108562000D03*
%TO.P,REF\u002A\u002A,9*%
X150368000Y-108562000D03*
%TO.P,REF\u002A\u002A,10*%
X149098000Y-108562000D03*
%TO.P,REF\u002A\u002A,11*%
X147828000Y-108562000D03*
D15*
%TO.P,REF\u002A\u002A,12*%
X146558000Y-108562000D03*
D14*
%TO.P,REF\u002A\u002A,13*%
X145288000Y-108562000D03*
D16*
%TO.P,REF\u002A\u002A,14*%
X144018000Y-108562000D03*
%TD*%
D17*
%TO.P,REF\u002A\u002A,1*%
%TO.N,N/C*%
X154370500Y-117348000D03*
%TO.P,REF\u002A\u002A,2*%
X151445500Y-117348000D03*
%TD*%
%TO.P,REF\u002A\u002A,1*%
%TO.N,N/C*%
X140654500Y-109728000D03*
%TO.P,REF\u002A\u002A,2*%
X137729500Y-109728000D03*
%TD*%
D18*
%TO.P,REF\u002A\u002A,1*%
%TO.N,N/C*%
X139126000Y-101600000D03*
%TO.P,REF\u002A\u002A,2*%
X137226000Y-101600000D03*
%TD*%
D19*
%TO.P,REF\u002A\u002A,1*%
%TO.N,N/C*%
X141666000Y-114259000D03*
%TO.P,REF\u002A\u002A,2*%
X139766000Y-114259000D03*
%TO.P,REF\u002A\u002A,3*%
X140716000Y-112309000D03*
%TD*%
D18*
%TO.P,REF\u002A\u002A,1*%
%TO.N,N/C*%
X158938000Y-101600000D03*
%TO.P,REF\u002A\u002A,2*%
X157038000Y-101600000D03*
%TD*%
D20*
%TO.P,REF\u002A\u002A,1*%
%TO.N,N/C*%
X134620000Y-107126500D03*
%TO.P,REF\u002A\u002A,2*%
X134620000Y-104201500D03*
%TD*%
D11*
%TO.P,REF\u002A\u002A,1*%
%TO.N,N/C*%
X143713200Y-97639500D03*
%TO.P,REF\u002A\u002A,2*%
X143713200Y-99464500D03*
%TD*%
D17*
%TO.P,REF\u002A\u002A,1*%
%TO.N,N/C*%
X153456100Y-93116400D03*
%TO.P,REF\u002A\u002A,2*%
X150531100Y-93116400D03*
%TD*%
D21*
%TO.P,REF\u002A\u002A,1*%
%TO.N,N/C*%
X159463000Y-113792000D03*
%TO.P,REF\u002A\u002A,2*%
X156513000Y-113792000D03*
%TD*%
D22*
%TO.P,REF\u002A\u002A,1*%
%TO.N,N/C*%
X159065500Y-109728000D03*
%TO.P,REF\u002A\u002A,2*%
X161990500Y-109728000D03*
%TD*%
D12*
%TO.P,REF\u002A\u002A,1*%
%TO.N,N/C*%
X139700000Y-94204000D03*
D23*
%TO.P,REF\u002A\u002A,2*%
X139700000Y-96804000D03*
%TD*%
D24*
%TO.N,*%
X138684000Y-117856000D03*
X163576000Y-100076000D03*
X134620000Y-111760000D03*
X158496000Y-116332000D03*
X149148800Y-94843600D03*
X143967200Y-94843600D03*
%TD*%
D25*
%TO.N,*%
X136144000Y-113284000D02*
X136144000Y-115316000D01*
X138176000Y-111252000D02*
X136144000Y-113284000D01*
X136144000Y-115316000D02*
X138684000Y-117856000D01*
X138176000Y-111252000D02*
X139233000Y-112309000D01*
X137729500Y-110805500D02*
X138176000Y-111252000D01*
X147320000Y-101600000D02*
X147320000Y-94538800D01*
X147320000Y-94538800D02*
X148107400Y-93751400D01*
X148742400Y-93116400D02*
X148107400Y-93751400D01*
X148336000Y-101600000D02*
X149098000Y-102362000D01*
X147320000Y-101600000D02*
X148336000Y-101600000D01*
X149098000Y-102362000D02*
X149098000Y-103632000D01*
X146558000Y-102362000D02*
X147320000Y-101600000D01*
X146558000Y-103632000D02*
X146558000Y-102362000D01*
D26*
X147828000Y-105156000D02*
X147828000Y-103632000D01*
X145796000Y-105664000D02*
X147320000Y-105664000D01*
X145288000Y-105156000D02*
X145796000Y-105664000D01*
X145288000Y-103632000D02*
X145288000Y-105156000D01*
X147320000Y-105664000D02*
X147828000Y-105156000D01*
D25*
X145288000Y-107696000D02*
X144718500Y-107126500D01*
X144718500Y-107126500D02*
X143194500Y-107126500D01*
X145288000Y-108562000D02*
X145288000Y-107696000D01*
D26*
X145288000Y-105033000D02*
X143194500Y-107126500D01*
X145288000Y-103632000D02*
X145288000Y-105033000D01*
D25*
X134620000Y-107126500D02*
X143194500Y-107126500D01*
X163576000Y-100076000D02*
X164592000Y-99060000D01*
X164592000Y-99060000D02*
X164592000Y-105156000D01*
X164592000Y-98552000D02*
X164592000Y-99060000D01*
X134112000Y-111760000D02*
X134620000Y-111760000D01*
X133096000Y-110744000D02*
X133604000Y-111252000D01*
X133096000Y-110236000D02*
X133096000Y-110744000D01*
X133096000Y-109220000D02*
X133096000Y-110236000D01*
X133604000Y-108712000D02*
X133096000Y-109220000D01*
X135636000Y-108712000D02*
X133604000Y-108712000D01*
X133604000Y-111252000D02*
X134112000Y-111760000D01*
X137160000Y-107696000D02*
X136652000Y-107696000D01*
X136652000Y-107696000D02*
X135636000Y-108712000D01*
X143152000Y-107696000D02*
X137160000Y-107696000D01*
X144018000Y-108562000D02*
X143152000Y-107696000D01*
X155956000Y-116332000D02*
X158496000Y-116332000D01*
X150368000Y-110744000D02*
X155956000Y-116332000D01*
X150368000Y-108562000D02*
X150368000Y-110744000D01*
X164592000Y-105156000D02*
X164338000Y-105410000D01*
D26*
X163292000Y-106456000D02*
X164338000Y-105410000D01*
D25*
X141732000Y-90932000D02*
X156972000Y-90932000D01*
X156972000Y-90932000D02*
X164592000Y-98552000D01*
X139700000Y-92964000D02*
X141732000Y-90932000D01*
X139700000Y-94204000D02*
X139700000Y-92964000D01*
X143967200Y-97385500D02*
X143713200Y-97639500D01*
X143967200Y-94843600D02*
X143967200Y-97385500D01*
X151335100Y-97029900D02*
X149148800Y-94843600D01*
X152552400Y-97029900D02*
X151335100Y-97029900D01*
X142697200Y-101600000D02*
X142646400Y-101600000D01*
X143713200Y-100584000D02*
X142697200Y-101600000D01*
X142646400Y-101600000D02*
X143256000Y-101600000D01*
X143713200Y-99464500D02*
X143713200Y-100584000D01*
X142240000Y-101600000D02*
X142646400Y-101600000D01*
X152552400Y-101092000D02*
X152044400Y-101600000D01*
D26*
X152044400Y-101600000D02*
X154432000Y-101600000D01*
D25*
X152552400Y-98854900D02*
X152552400Y-101092000D01*
D26*
X151384000Y-101600000D02*
X152044400Y-101600000D01*
D25*
X150531100Y-93116400D02*
X148742400Y-93116400D01*
X162052000Y-99629500D02*
X162052000Y-102616000D01*
X155538900Y-93116400D02*
X162052000Y-99629500D01*
X153456100Y-93116400D02*
X155538900Y-93116400D01*
D26*
X155448000Y-108712000D02*
X156972000Y-108712000D01*
D25*
X151638000Y-110998000D02*
X151638000Y-108562000D01*
X162052000Y-102616000D02*
X161036000Y-101600000D01*
X146787000Y-114259000D02*
X146771000Y-114259000D01*
X156513000Y-113792000D02*
X154432000Y-113792000D01*
D26*
X150368000Y-103632000D02*
X150368000Y-102616000D01*
X150368000Y-102616000D02*
X151384000Y-101600000D01*
X139766000Y-115890000D02*
X143256000Y-119380000D01*
D25*
X165100000Y-105664000D02*
X164592000Y-105156000D01*
D26*
X139766000Y-114259000D02*
X139766000Y-115890000D01*
D25*
X142852000Y-109728000D02*
X144018000Y-108562000D01*
D26*
X154432000Y-101600000D02*
X157038000Y-101600000D01*
D25*
X161036000Y-101600000D02*
X158938000Y-101600000D01*
D26*
X134620000Y-103348000D02*
X134620000Y-102616000D01*
D25*
X152908000Y-112268000D02*
X151638000Y-110998000D01*
X144018000Y-102362000D02*
X144018000Y-103632000D01*
X165100000Y-111760000D02*
X165100000Y-106172000D01*
D26*
X134620000Y-102108000D02*
X135128000Y-101600000D01*
D25*
X154432000Y-113792000D02*
X152908000Y-112268000D01*
X146771000Y-114259000D02*
X141666000Y-114259000D01*
X159065500Y-109728000D02*
X155448000Y-109728000D01*
X164592000Y-112268000D02*
X165100000Y-111760000D01*
D26*
X157988000Y-106680000D02*
X158212000Y-106456000D01*
D25*
X163068000Y-112268000D02*
X164084000Y-111252000D01*
X164084000Y-111252000D02*
X164084000Y-110744000D01*
X152400000Y-106680000D02*
X148336000Y-106680000D01*
X163068000Y-113792000D02*
X159512000Y-117348000D01*
D26*
X139700000Y-96804000D02*
X136368000Y-96804000D01*
X148336000Y-106680000D02*
X149098000Y-107442000D01*
D25*
X142240000Y-101600000D02*
X139126000Y-101600000D01*
X159463000Y-113792000D02*
X163068000Y-113792000D01*
D26*
X151638000Y-104902000D02*
X155448000Y-108712000D01*
D25*
X149860000Y-117348000D02*
X146771000Y-114259000D01*
X140654500Y-109728000D02*
X142852000Y-109728000D01*
D26*
X157988000Y-107696000D02*
X157988000Y-106680000D01*
X143256000Y-119380000D02*
X144272000Y-120396000D01*
X144272000Y-120396000D02*
X156464000Y-120396000D01*
D25*
X163068000Y-113792000D02*
X164592000Y-112268000D01*
X165100000Y-106172000D02*
X165100000Y-105664000D01*
X150368000Y-103124000D02*
X150368000Y-103782000D01*
D26*
X162052000Y-106456000D02*
X163292000Y-106456000D01*
X134620000Y-102616000D02*
X134620000Y-102108000D01*
X156464000Y-120396000D02*
X159512000Y-117348000D01*
X135128000Y-101600000D02*
X137226000Y-101600000D01*
X146558000Y-107442000D02*
X147320000Y-106680000D01*
D25*
X159512000Y-117348000D02*
X154370500Y-117348000D01*
D26*
X151638000Y-103632000D02*
X151638000Y-104902000D01*
D25*
X164084000Y-110744000D02*
X163068000Y-109728000D01*
X163068000Y-109728000D02*
X161990500Y-109728000D01*
D26*
X158212000Y-106456000D02*
X162052000Y-106456000D01*
X136368000Y-96804000D02*
X134620000Y-98552000D01*
D25*
X137729500Y-109728000D02*
X137729500Y-110805500D01*
X139233000Y-112309000D02*
X140716000Y-112309000D01*
D26*
X147828000Y-108562000D02*
X147828000Y-111318000D01*
D25*
X162052000Y-103856000D02*
X162052000Y-102616000D01*
X143256000Y-101600000D02*
X144018000Y-102362000D01*
D26*
X146558000Y-108562000D02*
X146558000Y-107442000D01*
D25*
X147828000Y-113218000D02*
X146787000Y-114259000D01*
D26*
X147320000Y-106680000D02*
X148336000Y-106680000D01*
D25*
X152908000Y-112268000D02*
X163068000Y-112268000D01*
D26*
X134620000Y-98552000D02*
X134620000Y-102108000D01*
X156972000Y-108712000D02*
X157988000Y-107696000D01*
D25*
X151445500Y-117348000D02*
X149860000Y-117348000D01*
X134620000Y-104201500D02*
X134620000Y-103124000D01*
X155448000Y-109728000D02*
X152400000Y-106680000D01*
D26*
X149098000Y-107442000D02*
X149098000Y-108562000D01*
%TD*%
M02*
