%TF.GenerationSoftware,KiCad,Pcbnew,7.0.7*%
%TF.CreationDate,2023-12-15T10:50:05-05:00*%
%TF.ProjectId,Conference Circuit 1214,436f6e66-6572-4656-9e63-652043697263,rev?*%
%TF.SameCoordinates,Original*%
%TF.FileFunction,Drillmap*%
%TF.FilePolarity,Positive*%
%FSLAX45Y45*%
G04 Gerber Fmt 4.5, Leading zero omitted, Abs format (unit mm)*
G04 Created by KiCad (PCBNEW 7.0.7) date 2023-12-15 10:50:05*
%MOMM*%
%LPD*%
G01*
G04 APERTURE LIST*
%ADD10C,0.100000*%
%ADD11C,0.200000*%
%ADD12C,0.040000*%
%ADD13C,0.080000*%
%ADD14C,0.109220*%
G04 APERTURE END LIST*
D10*
X16319500Y-9207500D02*
X16319500Y-10287000D01*
X14922500Y-10541000D02*
G75*
G03*
X15049500Y-10668000I127000J0D01*
G01*
X16230600Y-10668903D02*
X15049500Y-10668000D01*
X16230600Y-10668902D02*
G75*
G03*
X16319500Y-10566400I0J89802D01*
G01*
X16319500Y-10287000D02*
X16319500Y-10566400D01*
X16319500Y-9207500D02*
G75*
G03*
X16002000Y-8890000I-317500J0D01*
G01*
X14922500Y-10541000D02*
X14922500Y-10287000D01*
X16002000Y-8890000D02*
X15176500Y-8890000D01*
X14922500Y-9144000D02*
X14922500Y-10287000D01*
X15176500Y-8890000D02*
G75*
G03*
X14922500Y-9144000I0J-254000D01*
G01*
D11*
D12*
X15080300Y-9505000D02*
X15120300Y-9545000D01*
X15120300Y-9505000D02*
X15080300Y-9545000D01*
X15143800Y-9784400D02*
X15183800Y-9824400D01*
X15183800Y-9784400D02*
X15143800Y-9824400D01*
X15220000Y-9378000D02*
X15260000Y-9418000D01*
X15260000Y-9378000D02*
X15220000Y-9418000D01*
X15270800Y-10470200D02*
X15310800Y-10510200D01*
X15310800Y-10470200D02*
X15270800Y-10510200D01*
X15321600Y-9809800D02*
X15361600Y-9849800D01*
X15361600Y-9809800D02*
X15321600Y-9849800D01*
X15689900Y-9797100D02*
X15729900Y-9837100D01*
X15729900Y-9797100D02*
X15689900Y-9837100D01*
X15829600Y-9251000D02*
X15869600Y-9291000D01*
X15869600Y-9251000D02*
X15829600Y-9291000D01*
X15867700Y-9936800D02*
X15907700Y-9976800D01*
X15907700Y-9936800D02*
X15867700Y-9976800D01*
X16020100Y-9238300D02*
X16060100Y-9278300D01*
X16060100Y-9238300D02*
X16020100Y-9278300D01*
X16172500Y-9924100D02*
X16212500Y-9964100D01*
X16212500Y-9924100D02*
X16172500Y-9964100D01*
X16185200Y-9771700D02*
X16225200Y-9811700D01*
X16225200Y-9771700D02*
X16185200Y-9811700D01*
D13*
X15178400Y-9131300D02*
G75*
G03*
X15178400Y-9131300I-40000J0D01*
G01*
X15584800Y-9017000D02*
G75*
G03*
X15584800Y-9017000I-40000J0D01*
G01*
X16080100Y-10401300D02*
G75*
G03*
X16080100Y-10401300I-40000J0D01*
G01*
X16105500Y-9080500D02*
G75*
G03*
X16105500Y-9080500I-40000J0D01*
G01*
D14*
X15696500Y-9344150D02*
X15696500Y-9453370D01*
X15641890Y-9398760D02*
X15751110Y-9398760D01*
X15696500Y-10344150D02*
X15696500Y-10453370D01*
X15641890Y-10398760D02*
X15751110Y-10398760D01*
D11*
X15178277Y-10985386D02*
X15178277Y-10785386D01*
X15178277Y-10785386D02*
X15225896Y-10785386D01*
X15225896Y-10785386D02*
X15254467Y-10794910D01*
X15254467Y-10794910D02*
X15273515Y-10813958D01*
X15273515Y-10813958D02*
X15283039Y-10833005D01*
X15283039Y-10833005D02*
X15292562Y-10871101D01*
X15292562Y-10871101D02*
X15292562Y-10899672D01*
X15292562Y-10899672D02*
X15283039Y-10937767D01*
X15283039Y-10937767D02*
X15273515Y-10956815D01*
X15273515Y-10956815D02*
X15254467Y-10975863D01*
X15254467Y-10975863D02*
X15225896Y-10985386D01*
X15225896Y-10985386D02*
X15178277Y-10985386D01*
X15378277Y-10985386D02*
X15378277Y-10852053D01*
X15378277Y-10890148D02*
X15387801Y-10871101D01*
X15387801Y-10871101D02*
X15397324Y-10861577D01*
X15397324Y-10861577D02*
X15416372Y-10852053D01*
X15416372Y-10852053D02*
X15435420Y-10852053D01*
X15502086Y-10985386D02*
X15502086Y-10852053D01*
X15502086Y-10785386D02*
X15492562Y-10794910D01*
X15492562Y-10794910D02*
X15502086Y-10804434D01*
X15502086Y-10804434D02*
X15511610Y-10794910D01*
X15511610Y-10794910D02*
X15502086Y-10785386D01*
X15502086Y-10785386D02*
X15502086Y-10804434D01*
X15625896Y-10985386D02*
X15606848Y-10975863D01*
X15606848Y-10975863D02*
X15597324Y-10956815D01*
X15597324Y-10956815D02*
X15597324Y-10785386D01*
X15730658Y-10985386D02*
X15711610Y-10975863D01*
X15711610Y-10975863D02*
X15702086Y-10956815D01*
X15702086Y-10956815D02*
X15702086Y-10785386D01*
X15959229Y-10985386D02*
X15959229Y-10785386D01*
X15959229Y-10785386D02*
X16025896Y-10928243D01*
X16025896Y-10928243D02*
X16092562Y-10785386D01*
X16092562Y-10785386D02*
X16092562Y-10985386D01*
X16273515Y-10985386D02*
X16273515Y-10880624D01*
X16273515Y-10880624D02*
X16263991Y-10861577D01*
X16263991Y-10861577D02*
X16244943Y-10852053D01*
X16244943Y-10852053D02*
X16206848Y-10852053D01*
X16206848Y-10852053D02*
X16187801Y-10861577D01*
X16273515Y-10975863D02*
X16254467Y-10985386D01*
X16254467Y-10985386D02*
X16206848Y-10985386D01*
X16206848Y-10985386D02*
X16187801Y-10975863D01*
X16187801Y-10975863D02*
X16178277Y-10956815D01*
X16178277Y-10956815D02*
X16178277Y-10937767D01*
X16178277Y-10937767D02*
X16187801Y-10918720D01*
X16187801Y-10918720D02*
X16206848Y-10909196D01*
X16206848Y-10909196D02*
X16254467Y-10909196D01*
X16254467Y-10909196D02*
X16273515Y-10899672D01*
X16368753Y-10852053D02*
X16368753Y-11052053D01*
X16368753Y-10861577D02*
X16387801Y-10852053D01*
X16387801Y-10852053D02*
X16425896Y-10852053D01*
X16425896Y-10852053D02*
X16444943Y-10861577D01*
X16444943Y-10861577D02*
X16454467Y-10871101D01*
X16454467Y-10871101D02*
X16463991Y-10890148D01*
X16463991Y-10890148D02*
X16463991Y-10947291D01*
X16463991Y-10947291D02*
X16454467Y-10966339D01*
X16454467Y-10966339D02*
X16444943Y-10975863D01*
X16444943Y-10975863D02*
X16425896Y-10985386D01*
X16425896Y-10985386D02*
X16387801Y-10985386D01*
X16387801Y-10985386D02*
X16368753Y-10975863D01*
X16549705Y-10966339D02*
X16559229Y-10975863D01*
X16559229Y-10975863D02*
X16549705Y-10985386D01*
X16549705Y-10985386D02*
X16540182Y-10975863D01*
X16540182Y-10975863D02*
X16549705Y-10966339D01*
X16549705Y-10966339D02*
X16549705Y-10985386D01*
X16549705Y-10861577D02*
X16559229Y-10871101D01*
X16559229Y-10871101D02*
X16549705Y-10880624D01*
X16549705Y-10880624D02*
X16540182Y-10871101D01*
X16540182Y-10871101D02*
X16549705Y-10861577D01*
X16549705Y-10861577D02*
X16549705Y-10880624D01*
D12*
X14877500Y-11293902D02*
X14917500Y-11333902D01*
X14917500Y-11293902D02*
X14877500Y-11333902D01*
D11*
X15216372Y-11205386D02*
X15235420Y-11205386D01*
X15235420Y-11205386D02*
X15254467Y-11214910D01*
X15254467Y-11214910D02*
X15263991Y-11224434D01*
X15263991Y-11224434D02*
X15273515Y-11243481D01*
X15273515Y-11243481D02*
X15283039Y-11281577D01*
X15283039Y-11281577D02*
X15283039Y-11329196D01*
X15283039Y-11329196D02*
X15273515Y-11367291D01*
X15273515Y-11367291D02*
X15263991Y-11386339D01*
X15263991Y-11386339D02*
X15254467Y-11395862D01*
X15254467Y-11395862D02*
X15235420Y-11405386D01*
X15235420Y-11405386D02*
X15216372Y-11405386D01*
X15216372Y-11405386D02*
X15197324Y-11395862D01*
X15197324Y-11395862D02*
X15187801Y-11386339D01*
X15187801Y-11386339D02*
X15178277Y-11367291D01*
X15178277Y-11367291D02*
X15168753Y-11329196D01*
X15168753Y-11329196D02*
X15168753Y-11281577D01*
X15168753Y-11281577D02*
X15178277Y-11243481D01*
X15178277Y-11243481D02*
X15187801Y-11224434D01*
X15187801Y-11224434D02*
X15197324Y-11214910D01*
X15197324Y-11214910D02*
X15216372Y-11205386D01*
X15368753Y-11386339D02*
X15378277Y-11395862D01*
X15378277Y-11395862D02*
X15368753Y-11405386D01*
X15368753Y-11405386D02*
X15359229Y-11395862D01*
X15359229Y-11395862D02*
X15368753Y-11386339D01*
X15368753Y-11386339D02*
X15368753Y-11405386D01*
X15549705Y-11272053D02*
X15549705Y-11405386D01*
X15502086Y-11195862D02*
X15454467Y-11338720D01*
X15454467Y-11338720D02*
X15578277Y-11338720D01*
X15692562Y-11205386D02*
X15711610Y-11205386D01*
X15711610Y-11205386D02*
X15730658Y-11214910D01*
X15730658Y-11214910D02*
X15740182Y-11224434D01*
X15740182Y-11224434D02*
X15749705Y-11243481D01*
X15749705Y-11243481D02*
X15759229Y-11281577D01*
X15759229Y-11281577D02*
X15759229Y-11329196D01*
X15759229Y-11329196D02*
X15749705Y-11367291D01*
X15749705Y-11367291D02*
X15740182Y-11386339D01*
X15740182Y-11386339D02*
X15730658Y-11395862D01*
X15730658Y-11395862D02*
X15711610Y-11405386D01*
X15711610Y-11405386D02*
X15692562Y-11405386D01*
X15692562Y-11405386D02*
X15673515Y-11395862D01*
X15673515Y-11395862D02*
X15663991Y-11386339D01*
X15663991Y-11386339D02*
X15654467Y-11367291D01*
X15654467Y-11367291D02*
X15644943Y-11329196D01*
X15644943Y-11329196D02*
X15644943Y-11281577D01*
X15644943Y-11281577D02*
X15654467Y-11243481D01*
X15654467Y-11243481D02*
X15663991Y-11224434D01*
X15663991Y-11224434D02*
X15673515Y-11214910D01*
X15673515Y-11214910D02*
X15692562Y-11205386D01*
X15883039Y-11205386D02*
X15902086Y-11205386D01*
X15902086Y-11205386D02*
X15921134Y-11214910D01*
X15921134Y-11214910D02*
X15930658Y-11224434D01*
X15930658Y-11224434D02*
X15940182Y-11243481D01*
X15940182Y-11243481D02*
X15949705Y-11281577D01*
X15949705Y-11281577D02*
X15949705Y-11329196D01*
X15949705Y-11329196D02*
X15940182Y-11367291D01*
X15940182Y-11367291D02*
X15930658Y-11386339D01*
X15930658Y-11386339D02*
X15921134Y-11395862D01*
X15921134Y-11395862D02*
X15902086Y-11405386D01*
X15902086Y-11405386D02*
X15883039Y-11405386D01*
X15883039Y-11405386D02*
X15863991Y-11395862D01*
X15863991Y-11395862D02*
X15854467Y-11386339D01*
X15854467Y-11386339D02*
X15844943Y-11367291D01*
X15844943Y-11367291D02*
X15835420Y-11329196D01*
X15835420Y-11329196D02*
X15835420Y-11281577D01*
X15835420Y-11281577D02*
X15844943Y-11243481D01*
X15844943Y-11243481D02*
X15854467Y-11224434D01*
X15854467Y-11224434D02*
X15863991Y-11214910D01*
X15863991Y-11214910D02*
X15883039Y-11205386D01*
X16035420Y-11405386D02*
X16035420Y-11272053D01*
X16035420Y-11291100D02*
X16044943Y-11281577D01*
X16044943Y-11281577D02*
X16063991Y-11272053D01*
X16063991Y-11272053D02*
X16092563Y-11272053D01*
X16092563Y-11272053D02*
X16111610Y-11281577D01*
X16111610Y-11281577D02*
X16121134Y-11300624D01*
X16121134Y-11300624D02*
X16121134Y-11405386D01*
X16121134Y-11300624D02*
X16130658Y-11281577D01*
X16130658Y-11281577D02*
X16149705Y-11272053D01*
X16149705Y-11272053D02*
X16178277Y-11272053D01*
X16178277Y-11272053D02*
X16197324Y-11281577D01*
X16197324Y-11281577D02*
X16206848Y-11300624D01*
X16206848Y-11300624D02*
X16206848Y-11405386D01*
X16302086Y-11405386D02*
X16302086Y-11272053D01*
X16302086Y-11291100D02*
X16311610Y-11281577D01*
X16311610Y-11281577D02*
X16330658Y-11272053D01*
X16330658Y-11272053D02*
X16359229Y-11272053D01*
X16359229Y-11272053D02*
X16378277Y-11281577D01*
X16378277Y-11281577D02*
X16387801Y-11300624D01*
X16387801Y-11300624D02*
X16387801Y-11405386D01*
X16387801Y-11300624D02*
X16397324Y-11281577D01*
X16397324Y-11281577D02*
X16416372Y-11272053D01*
X16416372Y-11272053D02*
X16444943Y-11272053D01*
X16444943Y-11272053D02*
X16463991Y-11281577D01*
X16463991Y-11281577D02*
X16473515Y-11300624D01*
X16473515Y-11300624D02*
X16473515Y-11405386D01*
X16863991Y-11195862D02*
X16692563Y-11453005D01*
X17121134Y-11205386D02*
X17140182Y-11205386D01*
X17140182Y-11205386D02*
X17159229Y-11214910D01*
X17159229Y-11214910D02*
X17168753Y-11224434D01*
X17168753Y-11224434D02*
X17178277Y-11243481D01*
X17178277Y-11243481D02*
X17187801Y-11281577D01*
X17187801Y-11281577D02*
X17187801Y-11329196D01*
X17187801Y-11329196D02*
X17178277Y-11367291D01*
X17178277Y-11367291D02*
X17168753Y-11386339D01*
X17168753Y-11386339D02*
X17159229Y-11395862D01*
X17159229Y-11395862D02*
X17140182Y-11405386D01*
X17140182Y-11405386D02*
X17121134Y-11405386D01*
X17121134Y-11405386D02*
X17102087Y-11395862D01*
X17102087Y-11395862D02*
X17092563Y-11386339D01*
X17092563Y-11386339D02*
X17083039Y-11367291D01*
X17083039Y-11367291D02*
X17073515Y-11329196D01*
X17073515Y-11329196D02*
X17073515Y-11281577D01*
X17073515Y-11281577D02*
X17083039Y-11243481D01*
X17083039Y-11243481D02*
X17092563Y-11224434D01*
X17092563Y-11224434D02*
X17102087Y-11214910D01*
X17102087Y-11214910D02*
X17121134Y-11205386D01*
X17273515Y-11386339D02*
X17283039Y-11395862D01*
X17283039Y-11395862D02*
X17273515Y-11405386D01*
X17273515Y-11405386D02*
X17263991Y-11395862D01*
X17263991Y-11395862D02*
X17273515Y-11386339D01*
X17273515Y-11386339D02*
X17273515Y-11405386D01*
X17406848Y-11205386D02*
X17425896Y-11205386D01*
X17425896Y-11205386D02*
X17444944Y-11214910D01*
X17444944Y-11214910D02*
X17454468Y-11224434D01*
X17454468Y-11224434D02*
X17463991Y-11243481D01*
X17463991Y-11243481D02*
X17473515Y-11281577D01*
X17473515Y-11281577D02*
X17473515Y-11329196D01*
X17473515Y-11329196D02*
X17463991Y-11367291D01*
X17463991Y-11367291D02*
X17454468Y-11386339D01*
X17454468Y-11386339D02*
X17444944Y-11395862D01*
X17444944Y-11395862D02*
X17425896Y-11405386D01*
X17425896Y-11405386D02*
X17406848Y-11405386D01*
X17406848Y-11405386D02*
X17387801Y-11395862D01*
X17387801Y-11395862D02*
X17378277Y-11386339D01*
X17378277Y-11386339D02*
X17368753Y-11367291D01*
X17368753Y-11367291D02*
X17359229Y-11329196D01*
X17359229Y-11329196D02*
X17359229Y-11281577D01*
X17359229Y-11281577D02*
X17368753Y-11243481D01*
X17368753Y-11243481D02*
X17378277Y-11224434D01*
X17378277Y-11224434D02*
X17387801Y-11214910D01*
X17387801Y-11214910D02*
X17406848Y-11205386D01*
X17663991Y-11405386D02*
X17549706Y-11405386D01*
X17606848Y-11405386D02*
X17606848Y-11205386D01*
X17606848Y-11205386D02*
X17587801Y-11233958D01*
X17587801Y-11233958D02*
X17568753Y-11253005D01*
X17568753Y-11253005D02*
X17549706Y-11262529D01*
X17844944Y-11205386D02*
X17749706Y-11205386D01*
X17749706Y-11205386D02*
X17740182Y-11300624D01*
X17740182Y-11300624D02*
X17749706Y-11291100D01*
X17749706Y-11291100D02*
X17768753Y-11281577D01*
X17768753Y-11281577D02*
X17816372Y-11281577D01*
X17816372Y-11281577D02*
X17835420Y-11291100D01*
X17835420Y-11291100D02*
X17844944Y-11300624D01*
X17844944Y-11300624D02*
X17854468Y-11319672D01*
X17854468Y-11319672D02*
X17854468Y-11367291D01*
X17854468Y-11367291D02*
X17844944Y-11386339D01*
X17844944Y-11386339D02*
X17835420Y-11395862D01*
X17835420Y-11395862D02*
X17816372Y-11405386D01*
X17816372Y-11405386D02*
X17768753Y-11405386D01*
X17768753Y-11405386D02*
X17749706Y-11395862D01*
X17749706Y-11395862D02*
X17740182Y-11386339D01*
X17921134Y-11205386D02*
X18054468Y-11205386D01*
X18054468Y-11205386D02*
X17968753Y-11405386D01*
X18121134Y-11205386D02*
X18121134Y-11243481D01*
X18197325Y-11205386D02*
X18197325Y-11243481D01*
X18492563Y-11481577D02*
X18483039Y-11472053D01*
X18483039Y-11472053D02*
X18463991Y-11443481D01*
X18463991Y-11443481D02*
X18454468Y-11424434D01*
X18454468Y-11424434D02*
X18444944Y-11395862D01*
X18444944Y-11395862D02*
X18435420Y-11348243D01*
X18435420Y-11348243D02*
X18435420Y-11310148D01*
X18435420Y-11310148D02*
X18444944Y-11262529D01*
X18444944Y-11262529D02*
X18454468Y-11233958D01*
X18454468Y-11233958D02*
X18463991Y-11214910D01*
X18463991Y-11214910D02*
X18483039Y-11186339D01*
X18483039Y-11186339D02*
X18492563Y-11176815D01*
X18673515Y-11405386D02*
X18559230Y-11405386D01*
X18616372Y-11405386D02*
X18616372Y-11205386D01*
X18616372Y-11205386D02*
X18597325Y-11233958D01*
X18597325Y-11233958D02*
X18578277Y-11253005D01*
X18578277Y-11253005D02*
X18559230Y-11262529D01*
X18863991Y-11405386D02*
X18749706Y-11405386D01*
X18806849Y-11405386D02*
X18806849Y-11205386D01*
X18806849Y-11205386D02*
X18787801Y-11233958D01*
X18787801Y-11233958D02*
X18768753Y-11253005D01*
X18768753Y-11253005D02*
X18749706Y-11262529D01*
X19102087Y-11405386D02*
X19102087Y-11205386D01*
X19187801Y-11405386D02*
X19187801Y-11300624D01*
X19187801Y-11300624D02*
X19178277Y-11281577D01*
X19178277Y-11281577D02*
X19159230Y-11272053D01*
X19159230Y-11272053D02*
X19130658Y-11272053D01*
X19130658Y-11272053D02*
X19111611Y-11281577D01*
X19111611Y-11281577D02*
X19102087Y-11291100D01*
X19311611Y-11405386D02*
X19292563Y-11395862D01*
X19292563Y-11395862D02*
X19283039Y-11386339D01*
X19283039Y-11386339D02*
X19273515Y-11367291D01*
X19273515Y-11367291D02*
X19273515Y-11310148D01*
X19273515Y-11310148D02*
X19283039Y-11291100D01*
X19283039Y-11291100D02*
X19292563Y-11281577D01*
X19292563Y-11281577D02*
X19311611Y-11272053D01*
X19311611Y-11272053D02*
X19340182Y-11272053D01*
X19340182Y-11272053D02*
X19359230Y-11281577D01*
X19359230Y-11281577D02*
X19368753Y-11291100D01*
X19368753Y-11291100D02*
X19378277Y-11310148D01*
X19378277Y-11310148D02*
X19378277Y-11367291D01*
X19378277Y-11367291D02*
X19368753Y-11386339D01*
X19368753Y-11386339D02*
X19359230Y-11395862D01*
X19359230Y-11395862D02*
X19340182Y-11405386D01*
X19340182Y-11405386D02*
X19311611Y-11405386D01*
X19492563Y-11405386D02*
X19473515Y-11395862D01*
X19473515Y-11395862D02*
X19463992Y-11376815D01*
X19463992Y-11376815D02*
X19463992Y-11205386D01*
X19644944Y-11395862D02*
X19625896Y-11405386D01*
X19625896Y-11405386D02*
X19587801Y-11405386D01*
X19587801Y-11405386D02*
X19568753Y-11395862D01*
X19568753Y-11395862D02*
X19559230Y-11376815D01*
X19559230Y-11376815D02*
X19559230Y-11300624D01*
X19559230Y-11300624D02*
X19568753Y-11281577D01*
X19568753Y-11281577D02*
X19587801Y-11272053D01*
X19587801Y-11272053D02*
X19625896Y-11272053D01*
X19625896Y-11272053D02*
X19644944Y-11281577D01*
X19644944Y-11281577D02*
X19654468Y-11300624D01*
X19654468Y-11300624D02*
X19654468Y-11319672D01*
X19654468Y-11319672D02*
X19559230Y-11338720D01*
X19730658Y-11395862D02*
X19749706Y-11405386D01*
X19749706Y-11405386D02*
X19787801Y-11405386D01*
X19787801Y-11405386D02*
X19806849Y-11395862D01*
X19806849Y-11395862D02*
X19816373Y-11376815D01*
X19816373Y-11376815D02*
X19816373Y-11367291D01*
X19816373Y-11367291D02*
X19806849Y-11348243D01*
X19806849Y-11348243D02*
X19787801Y-11338720D01*
X19787801Y-11338720D02*
X19759230Y-11338720D01*
X19759230Y-11338720D02*
X19740182Y-11329196D01*
X19740182Y-11329196D02*
X19730658Y-11310148D01*
X19730658Y-11310148D02*
X19730658Y-11300624D01*
X19730658Y-11300624D02*
X19740182Y-11281577D01*
X19740182Y-11281577D02*
X19759230Y-11272053D01*
X19759230Y-11272053D02*
X19787801Y-11272053D01*
X19787801Y-11272053D02*
X19806849Y-11281577D01*
X19883039Y-11481577D02*
X19892563Y-11472053D01*
X19892563Y-11472053D02*
X19911611Y-11443481D01*
X19911611Y-11443481D02*
X19921134Y-11424434D01*
X19921134Y-11424434D02*
X19930658Y-11395862D01*
X19930658Y-11395862D02*
X19940182Y-11348243D01*
X19940182Y-11348243D02*
X19940182Y-11310148D01*
X19940182Y-11310148D02*
X19930658Y-11262529D01*
X19930658Y-11262529D02*
X19921134Y-11233958D01*
X19921134Y-11233958D02*
X19911611Y-11214910D01*
X19911611Y-11214910D02*
X19892563Y-11186339D01*
X19892563Y-11186339D02*
X19883039Y-11176815D01*
D13*
X14917500Y-11577902D02*
G75*
G03*
X14917500Y-11577902I-40000J0D01*
G01*
D11*
X15216372Y-11469386D02*
X15235420Y-11469386D01*
X15235420Y-11469386D02*
X15254467Y-11478910D01*
X15254467Y-11478910D02*
X15263991Y-11488434D01*
X15263991Y-11488434D02*
X15273515Y-11507481D01*
X15273515Y-11507481D02*
X15283039Y-11545577D01*
X15283039Y-11545577D02*
X15283039Y-11593196D01*
X15283039Y-11593196D02*
X15273515Y-11631291D01*
X15273515Y-11631291D02*
X15263991Y-11650339D01*
X15263991Y-11650339D02*
X15254467Y-11659862D01*
X15254467Y-11659862D02*
X15235420Y-11669386D01*
X15235420Y-11669386D02*
X15216372Y-11669386D01*
X15216372Y-11669386D02*
X15197324Y-11659862D01*
X15197324Y-11659862D02*
X15187801Y-11650339D01*
X15187801Y-11650339D02*
X15178277Y-11631291D01*
X15178277Y-11631291D02*
X15168753Y-11593196D01*
X15168753Y-11593196D02*
X15168753Y-11545577D01*
X15168753Y-11545577D02*
X15178277Y-11507481D01*
X15178277Y-11507481D02*
X15187801Y-11488434D01*
X15187801Y-11488434D02*
X15197324Y-11478910D01*
X15197324Y-11478910D02*
X15216372Y-11469386D01*
X15368753Y-11650339D02*
X15378277Y-11659862D01*
X15378277Y-11659862D02*
X15368753Y-11669386D01*
X15368753Y-11669386D02*
X15359229Y-11659862D01*
X15359229Y-11659862D02*
X15368753Y-11650339D01*
X15368753Y-11650339D02*
X15368753Y-11669386D01*
X15492562Y-11555100D02*
X15473515Y-11545577D01*
X15473515Y-11545577D02*
X15463991Y-11536053D01*
X15463991Y-11536053D02*
X15454467Y-11517005D01*
X15454467Y-11517005D02*
X15454467Y-11507481D01*
X15454467Y-11507481D02*
X15463991Y-11488434D01*
X15463991Y-11488434D02*
X15473515Y-11478910D01*
X15473515Y-11478910D02*
X15492562Y-11469386D01*
X15492562Y-11469386D02*
X15530658Y-11469386D01*
X15530658Y-11469386D02*
X15549705Y-11478910D01*
X15549705Y-11478910D02*
X15559229Y-11488434D01*
X15559229Y-11488434D02*
X15568753Y-11507481D01*
X15568753Y-11507481D02*
X15568753Y-11517005D01*
X15568753Y-11517005D02*
X15559229Y-11536053D01*
X15559229Y-11536053D02*
X15549705Y-11545577D01*
X15549705Y-11545577D02*
X15530658Y-11555100D01*
X15530658Y-11555100D02*
X15492562Y-11555100D01*
X15492562Y-11555100D02*
X15473515Y-11564624D01*
X15473515Y-11564624D02*
X15463991Y-11574148D01*
X15463991Y-11574148D02*
X15454467Y-11593196D01*
X15454467Y-11593196D02*
X15454467Y-11631291D01*
X15454467Y-11631291D02*
X15463991Y-11650339D01*
X15463991Y-11650339D02*
X15473515Y-11659862D01*
X15473515Y-11659862D02*
X15492562Y-11669386D01*
X15492562Y-11669386D02*
X15530658Y-11669386D01*
X15530658Y-11669386D02*
X15549705Y-11659862D01*
X15549705Y-11659862D02*
X15559229Y-11650339D01*
X15559229Y-11650339D02*
X15568753Y-11631291D01*
X15568753Y-11631291D02*
X15568753Y-11593196D01*
X15568753Y-11593196D02*
X15559229Y-11574148D01*
X15559229Y-11574148D02*
X15549705Y-11564624D01*
X15549705Y-11564624D02*
X15530658Y-11555100D01*
X15692562Y-11469386D02*
X15711610Y-11469386D01*
X15711610Y-11469386D02*
X15730658Y-11478910D01*
X15730658Y-11478910D02*
X15740182Y-11488434D01*
X15740182Y-11488434D02*
X15749705Y-11507481D01*
X15749705Y-11507481D02*
X15759229Y-11545577D01*
X15759229Y-11545577D02*
X15759229Y-11593196D01*
X15759229Y-11593196D02*
X15749705Y-11631291D01*
X15749705Y-11631291D02*
X15740182Y-11650339D01*
X15740182Y-11650339D02*
X15730658Y-11659862D01*
X15730658Y-11659862D02*
X15711610Y-11669386D01*
X15711610Y-11669386D02*
X15692562Y-11669386D01*
X15692562Y-11669386D02*
X15673515Y-11659862D01*
X15673515Y-11659862D02*
X15663991Y-11650339D01*
X15663991Y-11650339D02*
X15654467Y-11631291D01*
X15654467Y-11631291D02*
X15644943Y-11593196D01*
X15644943Y-11593196D02*
X15644943Y-11545577D01*
X15644943Y-11545577D02*
X15654467Y-11507481D01*
X15654467Y-11507481D02*
X15663991Y-11488434D01*
X15663991Y-11488434D02*
X15673515Y-11478910D01*
X15673515Y-11478910D02*
X15692562Y-11469386D01*
X15883039Y-11469386D02*
X15902086Y-11469386D01*
X15902086Y-11469386D02*
X15921134Y-11478910D01*
X15921134Y-11478910D02*
X15930658Y-11488434D01*
X15930658Y-11488434D02*
X15940182Y-11507481D01*
X15940182Y-11507481D02*
X15949705Y-11545577D01*
X15949705Y-11545577D02*
X15949705Y-11593196D01*
X15949705Y-11593196D02*
X15940182Y-11631291D01*
X15940182Y-11631291D02*
X15930658Y-11650339D01*
X15930658Y-11650339D02*
X15921134Y-11659862D01*
X15921134Y-11659862D02*
X15902086Y-11669386D01*
X15902086Y-11669386D02*
X15883039Y-11669386D01*
X15883039Y-11669386D02*
X15863991Y-11659862D01*
X15863991Y-11659862D02*
X15854467Y-11650339D01*
X15854467Y-11650339D02*
X15844943Y-11631291D01*
X15844943Y-11631291D02*
X15835420Y-11593196D01*
X15835420Y-11593196D02*
X15835420Y-11545577D01*
X15835420Y-11545577D02*
X15844943Y-11507481D01*
X15844943Y-11507481D02*
X15854467Y-11488434D01*
X15854467Y-11488434D02*
X15863991Y-11478910D01*
X15863991Y-11478910D02*
X15883039Y-11469386D01*
X16035420Y-11669386D02*
X16035420Y-11536053D01*
X16035420Y-11555100D02*
X16044943Y-11545577D01*
X16044943Y-11545577D02*
X16063991Y-11536053D01*
X16063991Y-11536053D02*
X16092563Y-11536053D01*
X16092563Y-11536053D02*
X16111610Y-11545577D01*
X16111610Y-11545577D02*
X16121134Y-11564624D01*
X16121134Y-11564624D02*
X16121134Y-11669386D01*
X16121134Y-11564624D02*
X16130658Y-11545577D01*
X16130658Y-11545577D02*
X16149705Y-11536053D01*
X16149705Y-11536053D02*
X16178277Y-11536053D01*
X16178277Y-11536053D02*
X16197324Y-11545577D01*
X16197324Y-11545577D02*
X16206848Y-11564624D01*
X16206848Y-11564624D02*
X16206848Y-11669386D01*
X16302086Y-11669386D02*
X16302086Y-11536053D01*
X16302086Y-11555100D02*
X16311610Y-11545577D01*
X16311610Y-11545577D02*
X16330658Y-11536053D01*
X16330658Y-11536053D02*
X16359229Y-11536053D01*
X16359229Y-11536053D02*
X16378277Y-11545577D01*
X16378277Y-11545577D02*
X16387801Y-11564624D01*
X16387801Y-11564624D02*
X16387801Y-11669386D01*
X16387801Y-11564624D02*
X16397324Y-11545577D01*
X16397324Y-11545577D02*
X16416372Y-11536053D01*
X16416372Y-11536053D02*
X16444943Y-11536053D01*
X16444943Y-11536053D02*
X16463991Y-11545577D01*
X16463991Y-11545577D02*
X16473515Y-11564624D01*
X16473515Y-11564624D02*
X16473515Y-11669386D01*
X16863991Y-11459862D02*
X16692563Y-11717005D01*
X17121134Y-11469386D02*
X17140182Y-11469386D01*
X17140182Y-11469386D02*
X17159229Y-11478910D01*
X17159229Y-11478910D02*
X17168753Y-11488434D01*
X17168753Y-11488434D02*
X17178277Y-11507481D01*
X17178277Y-11507481D02*
X17187801Y-11545577D01*
X17187801Y-11545577D02*
X17187801Y-11593196D01*
X17187801Y-11593196D02*
X17178277Y-11631291D01*
X17178277Y-11631291D02*
X17168753Y-11650339D01*
X17168753Y-11650339D02*
X17159229Y-11659862D01*
X17159229Y-11659862D02*
X17140182Y-11669386D01*
X17140182Y-11669386D02*
X17121134Y-11669386D01*
X17121134Y-11669386D02*
X17102087Y-11659862D01*
X17102087Y-11659862D02*
X17092563Y-11650339D01*
X17092563Y-11650339D02*
X17083039Y-11631291D01*
X17083039Y-11631291D02*
X17073515Y-11593196D01*
X17073515Y-11593196D02*
X17073515Y-11545577D01*
X17073515Y-11545577D02*
X17083039Y-11507481D01*
X17083039Y-11507481D02*
X17092563Y-11488434D01*
X17092563Y-11488434D02*
X17102087Y-11478910D01*
X17102087Y-11478910D02*
X17121134Y-11469386D01*
X17273515Y-11650339D02*
X17283039Y-11659862D01*
X17283039Y-11659862D02*
X17273515Y-11669386D01*
X17273515Y-11669386D02*
X17263991Y-11659862D01*
X17263991Y-11659862D02*
X17273515Y-11650339D01*
X17273515Y-11650339D02*
X17273515Y-11669386D01*
X17406848Y-11469386D02*
X17425896Y-11469386D01*
X17425896Y-11469386D02*
X17444944Y-11478910D01*
X17444944Y-11478910D02*
X17454468Y-11488434D01*
X17454468Y-11488434D02*
X17463991Y-11507481D01*
X17463991Y-11507481D02*
X17473515Y-11545577D01*
X17473515Y-11545577D02*
X17473515Y-11593196D01*
X17473515Y-11593196D02*
X17463991Y-11631291D01*
X17463991Y-11631291D02*
X17454468Y-11650339D01*
X17454468Y-11650339D02*
X17444944Y-11659862D01*
X17444944Y-11659862D02*
X17425896Y-11669386D01*
X17425896Y-11669386D02*
X17406848Y-11669386D01*
X17406848Y-11669386D02*
X17387801Y-11659862D01*
X17387801Y-11659862D02*
X17378277Y-11650339D01*
X17378277Y-11650339D02*
X17368753Y-11631291D01*
X17368753Y-11631291D02*
X17359229Y-11593196D01*
X17359229Y-11593196D02*
X17359229Y-11545577D01*
X17359229Y-11545577D02*
X17368753Y-11507481D01*
X17368753Y-11507481D02*
X17378277Y-11488434D01*
X17378277Y-11488434D02*
X17387801Y-11478910D01*
X17387801Y-11478910D02*
X17406848Y-11469386D01*
X17540182Y-11469386D02*
X17663991Y-11469386D01*
X17663991Y-11469386D02*
X17597325Y-11545577D01*
X17597325Y-11545577D02*
X17625896Y-11545577D01*
X17625896Y-11545577D02*
X17644944Y-11555100D01*
X17644944Y-11555100D02*
X17654468Y-11564624D01*
X17654468Y-11564624D02*
X17663991Y-11583672D01*
X17663991Y-11583672D02*
X17663991Y-11631291D01*
X17663991Y-11631291D02*
X17654468Y-11650339D01*
X17654468Y-11650339D02*
X17644944Y-11659862D01*
X17644944Y-11659862D02*
X17625896Y-11669386D01*
X17625896Y-11669386D02*
X17568753Y-11669386D01*
X17568753Y-11669386D02*
X17549706Y-11659862D01*
X17549706Y-11659862D02*
X17540182Y-11650339D01*
X17854468Y-11669386D02*
X17740182Y-11669386D01*
X17797325Y-11669386D02*
X17797325Y-11469386D01*
X17797325Y-11469386D02*
X17778277Y-11497958D01*
X17778277Y-11497958D02*
X17759229Y-11517005D01*
X17759229Y-11517005D02*
X17740182Y-11526529D01*
X18035420Y-11469386D02*
X17940182Y-11469386D01*
X17940182Y-11469386D02*
X17930658Y-11564624D01*
X17930658Y-11564624D02*
X17940182Y-11555100D01*
X17940182Y-11555100D02*
X17959229Y-11545577D01*
X17959229Y-11545577D02*
X18006849Y-11545577D01*
X18006849Y-11545577D02*
X18025896Y-11555100D01*
X18025896Y-11555100D02*
X18035420Y-11564624D01*
X18035420Y-11564624D02*
X18044944Y-11583672D01*
X18044944Y-11583672D02*
X18044944Y-11631291D01*
X18044944Y-11631291D02*
X18035420Y-11650339D01*
X18035420Y-11650339D02*
X18025896Y-11659862D01*
X18025896Y-11659862D02*
X18006849Y-11669386D01*
X18006849Y-11669386D02*
X17959229Y-11669386D01*
X17959229Y-11669386D02*
X17940182Y-11659862D01*
X17940182Y-11659862D02*
X17930658Y-11650339D01*
X18121134Y-11469386D02*
X18121134Y-11507481D01*
X18197325Y-11469386D02*
X18197325Y-11507481D01*
X18492563Y-11745577D02*
X18483039Y-11736053D01*
X18483039Y-11736053D02*
X18463991Y-11707481D01*
X18463991Y-11707481D02*
X18454468Y-11688434D01*
X18454468Y-11688434D02*
X18444944Y-11659862D01*
X18444944Y-11659862D02*
X18435420Y-11612243D01*
X18435420Y-11612243D02*
X18435420Y-11574148D01*
X18435420Y-11574148D02*
X18444944Y-11526529D01*
X18444944Y-11526529D02*
X18454468Y-11497958D01*
X18454468Y-11497958D02*
X18463991Y-11478910D01*
X18463991Y-11478910D02*
X18483039Y-11450339D01*
X18483039Y-11450339D02*
X18492563Y-11440815D01*
X18654468Y-11536053D02*
X18654468Y-11669386D01*
X18606849Y-11459862D02*
X18559230Y-11602720D01*
X18559230Y-11602720D02*
X18683039Y-11602720D01*
X18911611Y-11669386D02*
X18911611Y-11469386D01*
X18997325Y-11669386D02*
X18997325Y-11564624D01*
X18997325Y-11564624D02*
X18987801Y-11545577D01*
X18987801Y-11545577D02*
X18968753Y-11536053D01*
X18968753Y-11536053D02*
X18940182Y-11536053D01*
X18940182Y-11536053D02*
X18921134Y-11545577D01*
X18921134Y-11545577D02*
X18911611Y-11555100D01*
X19121134Y-11669386D02*
X19102087Y-11659862D01*
X19102087Y-11659862D02*
X19092563Y-11650339D01*
X19092563Y-11650339D02*
X19083039Y-11631291D01*
X19083039Y-11631291D02*
X19083039Y-11574148D01*
X19083039Y-11574148D02*
X19092563Y-11555100D01*
X19092563Y-11555100D02*
X19102087Y-11545577D01*
X19102087Y-11545577D02*
X19121134Y-11536053D01*
X19121134Y-11536053D02*
X19149706Y-11536053D01*
X19149706Y-11536053D02*
X19168753Y-11545577D01*
X19168753Y-11545577D02*
X19178277Y-11555100D01*
X19178277Y-11555100D02*
X19187801Y-11574148D01*
X19187801Y-11574148D02*
X19187801Y-11631291D01*
X19187801Y-11631291D02*
X19178277Y-11650339D01*
X19178277Y-11650339D02*
X19168753Y-11659862D01*
X19168753Y-11659862D02*
X19149706Y-11669386D01*
X19149706Y-11669386D02*
X19121134Y-11669386D01*
X19302087Y-11669386D02*
X19283039Y-11659862D01*
X19283039Y-11659862D02*
X19273515Y-11640815D01*
X19273515Y-11640815D02*
X19273515Y-11469386D01*
X19454468Y-11659862D02*
X19435420Y-11669386D01*
X19435420Y-11669386D02*
X19397325Y-11669386D01*
X19397325Y-11669386D02*
X19378277Y-11659862D01*
X19378277Y-11659862D02*
X19368753Y-11640815D01*
X19368753Y-11640815D02*
X19368753Y-11564624D01*
X19368753Y-11564624D02*
X19378277Y-11545577D01*
X19378277Y-11545577D02*
X19397325Y-11536053D01*
X19397325Y-11536053D02*
X19435420Y-11536053D01*
X19435420Y-11536053D02*
X19454468Y-11545577D01*
X19454468Y-11545577D02*
X19463992Y-11564624D01*
X19463992Y-11564624D02*
X19463992Y-11583672D01*
X19463992Y-11583672D02*
X19368753Y-11602720D01*
X19540182Y-11659862D02*
X19559230Y-11669386D01*
X19559230Y-11669386D02*
X19597325Y-11669386D01*
X19597325Y-11669386D02*
X19616373Y-11659862D01*
X19616373Y-11659862D02*
X19625896Y-11640815D01*
X19625896Y-11640815D02*
X19625896Y-11631291D01*
X19625896Y-11631291D02*
X19616373Y-11612243D01*
X19616373Y-11612243D02*
X19597325Y-11602720D01*
X19597325Y-11602720D02*
X19568753Y-11602720D01*
X19568753Y-11602720D02*
X19549706Y-11593196D01*
X19549706Y-11593196D02*
X19540182Y-11574148D01*
X19540182Y-11574148D02*
X19540182Y-11564624D01*
X19540182Y-11564624D02*
X19549706Y-11545577D01*
X19549706Y-11545577D02*
X19568753Y-11536053D01*
X19568753Y-11536053D02*
X19597325Y-11536053D01*
X19597325Y-11536053D02*
X19616373Y-11545577D01*
X19692563Y-11745577D02*
X19702087Y-11736053D01*
X19702087Y-11736053D02*
X19721134Y-11707481D01*
X19721134Y-11707481D02*
X19730658Y-11688434D01*
X19730658Y-11688434D02*
X19740182Y-11659862D01*
X19740182Y-11659862D02*
X19749706Y-11612243D01*
X19749706Y-11612243D02*
X19749706Y-11574148D01*
X19749706Y-11574148D02*
X19740182Y-11526529D01*
X19740182Y-11526529D02*
X19730658Y-11497958D01*
X19730658Y-11497958D02*
X19721134Y-11478910D01*
X19721134Y-11478910D02*
X19702087Y-11450339D01*
X19702087Y-11450339D02*
X19692563Y-11440815D01*
D14*
X14862890Y-11787292D02*
X14862890Y-11896512D01*
X14808280Y-11841902D02*
X14917500Y-11841902D01*
D11*
X15283039Y-11933386D02*
X15168753Y-11933386D01*
X15225896Y-11933386D02*
X15225896Y-11733386D01*
X15225896Y-11733386D02*
X15206848Y-11761958D01*
X15206848Y-11761958D02*
X15187801Y-11781005D01*
X15187801Y-11781005D02*
X15168753Y-11790529D01*
X15368753Y-11914339D02*
X15378277Y-11923862D01*
X15378277Y-11923862D02*
X15368753Y-11933386D01*
X15368753Y-11933386D02*
X15359229Y-11923862D01*
X15359229Y-11923862D02*
X15368753Y-11914339D01*
X15368753Y-11914339D02*
X15368753Y-11933386D01*
X15502086Y-11733386D02*
X15521134Y-11733386D01*
X15521134Y-11733386D02*
X15540182Y-11742910D01*
X15540182Y-11742910D02*
X15549705Y-11752434D01*
X15549705Y-11752434D02*
X15559229Y-11771481D01*
X15559229Y-11771481D02*
X15568753Y-11809577D01*
X15568753Y-11809577D02*
X15568753Y-11857196D01*
X15568753Y-11857196D02*
X15559229Y-11895291D01*
X15559229Y-11895291D02*
X15549705Y-11914339D01*
X15549705Y-11914339D02*
X15540182Y-11923862D01*
X15540182Y-11923862D02*
X15521134Y-11933386D01*
X15521134Y-11933386D02*
X15502086Y-11933386D01*
X15502086Y-11933386D02*
X15483039Y-11923862D01*
X15483039Y-11923862D02*
X15473515Y-11914339D01*
X15473515Y-11914339D02*
X15463991Y-11895291D01*
X15463991Y-11895291D02*
X15454467Y-11857196D01*
X15454467Y-11857196D02*
X15454467Y-11809577D01*
X15454467Y-11809577D02*
X15463991Y-11771481D01*
X15463991Y-11771481D02*
X15473515Y-11752434D01*
X15473515Y-11752434D02*
X15483039Y-11742910D01*
X15483039Y-11742910D02*
X15502086Y-11733386D01*
X15663991Y-11933386D02*
X15702086Y-11933386D01*
X15702086Y-11933386D02*
X15721134Y-11923862D01*
X15721134Y-11923862D02*
X15730658Y-11914339D01*
X15730658Y-11914339D02*
X15749705Y-11885767D01*
X15749705Y-11885767D02*
X15759229Y-11847672D01*
X15759229Y-11847672D02*
X15759229Y-11771481D01*
X15759229Y-11771481D02*
X15749705Y-11752434D01*
X15749705Y-11752434D02*
X15740182Y-11742910D01*
X15740182Y-11742910D02*
X15721134Y-11733386D01*
X15721134Y-11733386D02*
X15683039Y-11733386D01*
X15683039Y-11733386D02*
X15663991Y-11742910D01*
X15663991Y-11742910D02*
X15654467Y-11752434D01*
X15654467Y-11752434D02*
X15644943Y-11771481D01*
X15644943Y-11771481D02*
X15644943Y-11819100D01*
X15644943Y-11819100D02*
X15654467Y-11838148D01*
X15654467Y-11838148D02*
X15663991Y-11847672D01*
X15663991Y-11847672D02*
X15683039Y-11857196D01*
X15683039Y-11857196D02*
X15721134Y-11857196D01*
X15721134Y-11857196D02*
X15740182Y-11847672D01*
X15740182Y-11847672D02*
X15749705Y-11838148D01*
X15749705Y-11838148D02*
X15759229Y-11819100D01*
X15835420Y-11752434D02*
X15844943Y-11742910D01*
X15844943Y-11742910D02*
X15863991Y-11733386D01*
X15863991Y-11733386D02*
X15911610Y-11733386D01*
X15911610Y-11733386D02*
X15930658Y-11742910D01*
X15930658Y-11742910D02*
X15940182Y-11752434D01*
X15940182Y-11752434D02*
X15949705Y-11771481D01*
X15949705Y-11771481D02*
X15949705Y-11790529D01*
X15949705Y-11790529D02*
X15940182Y-11819100D01*
X15940182Y-11819100D02*
X15825896Y-11933386D01*
X15825896Y-11933386D02*
X15949705Y-11933386D01*
X16035420Y-11933386D02*
X16035420Y-11800053D01*
X16035420Y-11819100D02*
X16044943Y-11809577D01*
X16044943Y-11809577D02*
X16063991Y-11800053D01*
X16063991Y-11800053D02*
X16092563Y-11800053D01*
X16092563Y-11800053D02*
X16111610Y-11809577D01*
X16111610Y-11809577D02*
X16121134Y-11828624D01*
X16121134Y-11828624D02*
X16121134Y-11933386D01*
X16121134Y-11828624D02*
X16130658Y-11809577D01*
X16130658Y-11809577D02*
X16149705Y-11800053D01*
X16149705Y-11800053D02*
X16178277Y-11800053D01*
X16178277Y-11800053D02*
X16197324Y-11809577D01*
X16197324Y-11809577D02*
X16206848Y-11828624D01*
X16206848Y-11828624D02*
X16206848Y-11933386D01*
X16302086Y-11933386D02*
X16302086Y-11800053D01*
X16302086Y-11819100D02*
X16311610Y-11809577D01*
X16311610Y-11809577D02*
X16330658Y-11800053D01*
X16330658Y-11800053D02*
X16359229Y-11800053D01*
X16359229Y-11800053D02*
X16378277Y-11809577D01*
X16378277Y-11809577D02*
X16387801Y-11828624D01*
X16387801Y-11828624D02*
X16387801Y-11933386D01*
X16387801Y-11828624D02*
X16397324Y-11809577D01*
X16397324Y-11809577D02*
X16416372Y-11800053D01*
X16416372Y-11800053D02*
X16444943Y-11800053D01*
X16444943Y-11800053D02*
X16463991Y-11809577D01*
X16463991Y-11809577D02*
X16473515Y-11828624D01*
X16473515Y-11828624D02*
X16473515Y-11933386D01*
X16863991Y-11723862D02*
X16692563Y-11981005D01*
X17121134Y-11733386D02*
X17140182Y-11733386D01*
X17140182Y-11733386D02*
X17159229Y-11742910D01*
X17159229Y-11742910D02*
X17168753Y-11752434D01*
X17168753Y-11752434D02*
X17178277Y-11771481D01*
X17178277Y-11771481D02*
X17187801Y-11809577D01*
X17187801Y-11809577D02*
X17187801Y-11857196D01*
X17187801Y-11857196D02*
X17178277Y-11895291D01*
X17178277Y-11895291D02*
X17168753Y-11914339D01*
X17168753Y-11914339D02*
X17159229Y-11923862D01*
X17159229Y-11923862D02*
X17140182Y-11933386D01*
X17140182Y-11933386D02*
X17121134Y-11933386D01*
X17121134Y-11933386D02*
X17102087Y-11923862D01*
X17102087Y-11923862D02*
X17092563Y-11914339D01*
X17092563Y-11914339D02*
X17083039Y-11895291D01*
X17083039Y-11895291D02*
X17073515Y-11857196D01*
X17073515Y-11857196D02*
X17073515Y-11809577D01*
X17073515Y-11809577D02*
X17083039Y-11771481D01*
X17083039Y-11771481D02*
X17092563Y-11752434D01*
X17092563Y-11752434D02*
X17102087Y-11742910D01*
X17102087Y-11742910D02*
X17121134Y-11733386D01*
X17273515Y-11914339D02*
X17283039Y-11923862D01*
X17283039Y-11923862D02*
X17273515Y-11933386D01*
X17273515Y-11933386D02*
X17263991Y-11923862D01*
X17263991Y-11923862D02*
X17273515Y-11914339D01*
X17273515Y-11914339D02*
X17273515Y-11933386D01*
X17406848Y-11733386D02*
X17425896Y-11733386D01*
X17425896Y-11733386D02*
X17444944Y-11742910D01*
X17444944Y-11742910D02*
X17454468Y-11752434D01*
X17454468Y-11752434D02*
X17463991Y-11771481D01*
X17463991Y-11771481D02*
X17473515Y-11809577D01*
X17473515Y-11809577D02*
X17473515Y-11857196D01*
X17473515Y-11857196D02*
X17463991Y-11895291D01*
X17463991Y-11895291D02*
X17454468Y-11914339D01*
X17454468Y-11914339D02*
X17444944Y-11923862D01*
X17444944Y-11923862D02*
X17425896Y-11933386D01*
X17425896Y-11933386D02*
X17406848Y-11933386D01*
X17406848Y-11933386D02*
X17387801Y-11923862D01*
X17387801Y-11923862D02*
X17378277Y-11914339D01*
X17378277Y-11914339D02*
X17368753Y-11895291D01*
X17368753Y-11895291D02*
X17359229Y-11857196D01*
X17359229Y-11857196D02*
X17359229Y-11809577D01*
X17359229Y-11809577D02*
X17368753Y-11771481D01*
X17368753Y-11771481D02*
X17378277Y-11752434D01*
X17378277Y-11752434D02*
X17387801Y-11742910D01*
X17387801Y-11742910D02*
X17406848Y-11733386D01*
X17644944Y-11800053D02*
X17644944Y-11933386D01*
X17597325Y-11723862D02*
X17549706Y-11866720D01*
X17549706Y-11866720D02*
X17673515Y-11866720D01*
X17730658Y-11733386D02*
X17854468Y-11733386D01*
X17854468Y-11733386D02*
X17787801Y-11809577D01*
X17787801Y-11809577D02*
X17816372Y-11809577D01*
X17816372Y-11809577D02*
X17835420Y-11819100D01*
X17835420Y-11819100D02*
X17844944Y-11828624D01*
X17844944Y-11828624D02*
X17854468Y-11847672D01*
X17854468Y-11847672D02*
X17854468Y-11895291D01*
X17854468Y-11895291D02*
X17844944Y-11914339D01*
X17844944Y-11914339D02*
X17835420Y-11923862D01*
X17835420Y-11923862D02*
X17816372Y-11933386D01*
X17816372Y-11933386D02*
X17759229Y-11933386D01*
X17759229Y-11933386D02*
X17740182Y-11923862D01*
X17740182Y-11923862D02*
X17730658Y-11914339D01*
X17978277Y-11733386D02*
X17997325Y-11733386D01*
X17997325Y-11733386D02*
X18016372Y-11742910D01*
X18016372Y-11742910D02*
X18025896Y-11752434D01*
X18025896Y-11752434D02*
X18035420Y-11771481D01*
X18035420Y-11771481D02*
X18044944Y-11809577D01*
X18044944Y-11809577D02*
X18044944Y-11857196D01*
X18044944Y-11857196D02*
X18035420Y-11895291D01*
X18035420Y-11895291D02*
X18025896Y-11914339D01*
X18025896Y-11914339D02*
X18016372Y-11923862D01*
X18016372Y-11923862D02*
X17997325Y-11933386D01*
X17997325Y-11933386D02*
X17978277Y-11933386D01*
X17978277Y-11933386D02*
X17959229Y-11923862D01*
X17959229Y-11923862D02*
X17949706Y-11914339D01*
X17949706Y-11914339D02*
X17940182Y-11895291D01*
X17940182Y-11895291D02*
X17930658Y-11857196D01*
X17930658Y-11857196D02*
X17930658Y-11809577D01*
X17930658Y-11809577D02*
X17940182Y-11771481D01*
X17940182Y-11771481D02*
X17949706Y-11752434D01*
X17949706Y-11752434D02*
X17959229Y-11742910D01*
X17959229Y-11742910D02*
X17978277Y-11733386D01*
X18121134Y-11733386D02*
X18121134Y-11771481D01*
X18197325Y-11733386D02*
X18197325Y-11771481D01*
X18492563Y-12009577D02*
X18483039Y-12000053D01*
X18483039Y-12000053D02*
X18463991Y-11971481D01*
X18463991Y-11971481D02*
X18454468Y-11952434D01*
X18454468Y-11952434D02*
X18444944Y-11923862D01*
X18444944Y-11923862D02*
X18435420Y-11876243D01*
X18435420Y-11876243D02*
X18435420Y-11838148D01*
X18435420Y-11838148D02*
X18444944Y-11790529D01*
X18444944Y-11790529D02*
X18454468Y-11761958D01*
X18454468Y-11761958D02*
X18463991Y-11742910D01*
X18463991Y-11742910D02*
X18483039Y-11714339D01*
X18483039Y-11714339D02*
X18492563Y-11704815D01*
X18559230Y-11752434D02*
X18568753Y-11742910D01*
X18568753Y-11742910D02*
X18587801Y-11733386D01*
X18587801Y-11733386D02*
X18635420Y-11733386D01*
X18635420Y-11733386D02*
X18654468Y-11742910D01*
X18654468Y-11742910D02*
X18663991Y-11752434D01*
X18663991Y-11752434D02*
X18673515Y-11771481D01*
X18673515Y-11771481D02*
X18673515Y-11790529D01*
X18673515Y-11790529D02*
X18663991Y-11819100D01*
X18663991Y-11819100D02*
X18549706Y-11933386D01*
X18549706Y-11933386D02*
X18673515Y-11933386D01*
X18911611Y-11933386D02*
X18911611Y-11733386D01*
X18997325Y-11933386D02*
X18997325Y-11828624D01*
X18997325Y-11828624D02*
X18987801Y-11809577D01*
X18987801Y-11809577D02*
X18968753Y-11800053D01*
X18968753Y-11800053D02*
X18940182Y-11800053D01*
X18940182Y-11800053D02*
X18921134Y-11809577D01*
X18921134Y-11809577D02*
X18911611Y-11819100D01*
X19121134Y-11933386D02*
X19102087Y-11923862D01*
X19102087Y-11923862D02*
X19092563Y-11914339D01*
X19092563Y-11914339D02*
X19083039Y-11895291D01*
X19083039Y-11895291D02*
X19083039Y-11838148D01*
X19083039Y-11838148D02*
X19092563Y-11819100D01*
X19092563Y-11819100D02*
X19102087Y-11809577D01*
X19102087Y-11809577D02*
X19121134Y-11800053D01*
X19121134Y-11800053D02*
X19149706Y-11800053D01*
X19149706Y-11800053D02*
X19168753Y-11809577D01*
X19168753Y-11809577D02*
X19178277Y-11819100D01*
X19178277Y-11819100D02*
X19187801Y-11838148D01*
X19187801Y-11838148D02*
X19187801Y-11895291D01*
X19187801Y-11895291D02*
X19178277Y-11914339D01*
X19178277Y-11914339D02*
X19168753Y-11923862D01*
X19168753Y-11923862D02*
X19149706Y-11933386D01*
X19149706Y-11933386D02*
X19121134Y-11933386D01*
X19302087Y-11933386D02*
X19283039Y-11923862D01*
X19283039Y-11923862D02*
X19273515Y-11904815D01*
X19273515Y-11904815D02*
X19273515Y-11733386D01*
X19454468Y-11923862D02*
X19435420Y-11933386D01*
X19435420Y-11933386D02*
X19397325Y-11933386D01*
X19397325Y-11933386D02*
X19378277Y-11923862D01*
X19378277Y-11923862D02*
X19368753Y-11904815D01*
X19368753Y-11904815D02*
X19368753Y-11828624D01*
X19368753Y-11828624D02*
X19378277Y-11809577D01*
X19378277Y-11809577D02*
X19397325Y-11800053D01*
X19397325Y-11800053D02*
X19435420Y-11800053D01*
X19435420Y-11800053D02*
X19454468Y-11809577D01*
X19454468Y-11809577D02*
X19463992Y-11828624D01*
X19463992Y-11828624D02*
X19463992Y-11847672D01*
X19463992Y-11847672D02*
X19368753Y-11866720D01*
X19540182Y-11923862D02*
X19559230Y-11933386D01*
X19559230Y-11933386D02*
X19597325Y-11933386D01*
X19597325Y-11933386D02*
X19616373Y-11923862D01*
X19616373Y-11923862D02*
X19625896Y-11904815D01*
X19625896Y-11904815D02*
X19625896Y-11895291D01*
X19625896Y-11895291D02*
X19616373Y-11876243D01*
X19616373Y-11876243D02*
X19597325Y-11866720D01*
X19597325Y-11866720D02*
X19568753Y-11866720D01*
X19568753Y-11866720D02*
X19549706Y-11857196D01*
X19549706Y-11857196D02*
X19540182Y-11838148D01*
X19540182Y-11838148D02*
X19540182Y-11828624D01*
X19540182Y-11828624D02*
X19549706Y-11809577D01*
X19549706Y-11809577D02*
X19568753Y-11800053D01*
X19568753Y-11800053D02*
X19597325Y-11800053D01*
X19597325Y-11800053D02*
X19616373Y-11809577D01*
X19692563Y-12009577D02*
X19702087Y-12000053D01*
X19702087Y-12000053D02*
X19721134Y-11971481D01*
X19721134Y-11971481D02*
X19730658Y-11952434D01*
X19730658Y-11952434D02*
X19740182Y-11923862D01*
X19740182Y-11923862D02*
X19749706Y-11876243D01*
X19749706Y-11876243D02*
X19749706Y-11838148D01*
X19749706Y-11838148D02*
X19740182Y-11790529D01*
X19740182Y-11790529D02*
X19730658Y-11761958D01*
X19730658Y-11761958D02*
X19721134Y-11742910D01*
X19721134Y-11742910D02*
X19702087Y-11714339D01*
X19702087Y-11714339D02*
X19692563Y-11704815D01*
M02*
