%TF.GenerationSoftware,KiCad,Pcbnew,7.0.7*%
%TF.CreationDate,2023-12-15T10:49:52-05:00*%
%TF.ProjectId,Conference Circuit 1214,436f6e66-6572-4656-9e63-652043697263,rev?*%
%TF.SameCoordinates,Original*%
%TF.FileFunction,Copper,L1,Top*%
%TF.FilePolarity,Positive*%
%FSLAX46Y46*%
G04 Gerber Fmt 4.6, Leading zero omitted, Abs format (unit mm)*
G04 Created by KiCad (PCBNEW 7.0.7) date 2023-12-15 10:49:52*
%MOMM*%
%LPD*%
G01*
G04 APERTURE LIST*
G04 Aperture macros list*
%AMRoundRect*
0 Rectangle with rounded corners*
0 $1 Rounding radius*
0 $2 $3 $4 $5 $6 $7 $8 $9 X,Y pos of 4 corners*
0 Add a 4 corners polygon primitive as box body*
4,1,4,$2,$3,$4,$5,$6,$7,$8,$9,$2,$3,0*
0 Add four circle primitives for the rounded corners*
1,1,$1+$1,$2,$3*
1,1,$1+$1,$4,$5*
1,1,$1+$1,$6,$7*
1,1,$1+$1,$8,$9*
0 Add four rect primitives between the rounded corners*
20,1,$1+$1,$2,$3,$4,$5,0*
20,1,$1+$1,$4,$5,$6,$7,0*
20,1,$1+$1,$6,$7,$8,$9,0*
20,1,$1+$1,$8,$9,$2,$3,0*%
G04 Aperture macros list end*
%TA.AperFunction,ComponentPad*%
%ADD10C,1.200000*%
%TD*%
%TA.AperFunction,ConnectorPad*%
%ADD11C,1.778000*%
%TD*%
%TA.AperFunction,SMDPad,CuDef*%
%ADD12RoundRect,0.150000X0.150000X-0.587500X0.150000X0.587500X-0.150000X0.587500X-0.150000X-0.587500X0*%
%TD*%
%TA.AperFunction,SMDPad,CuDef*%
%ADD13RoundRect,0.250001X-0.624999X0.462499X-0.624999X-0.462499X0.624999X-0.462499X0.624999X0.462499X0*%
%TD*%
%TA.AperFunction,SMDPad,CuDef*%
%ADD14RoundRect,0.140000X0.170000X-0.140000X0.170000X0.140000X-0.170000X0.140000X-0.170000X-0.140000X0*%
%TD*%
%TA.AperFunction,SMDPad,CuDef*%
%ADD15RoundRect,0.140000X-0.140000X-0.170000X0.140000X-0.170000X0.140000X0.170000X-0.140000X0.170000X0*%
%TD*%
%TA.AperFunction,SMDPad,CuDef*%
%ADD16RoundRect,0.135000X0.135000X0.185000X-0.135000X0.185000X-0.135000X-0.185000X0.135000X-0.185000X0*%
%TD*%
%TA.AperFunction,SMDPad,CuDef*%
%ADD17RoundRect,0.135000X-0.185000X0.135000X-0.185000X-0.135000X0.185000X-0.135000X0.185000X0.135000X0*%
%TD*%
%TA.AperFunction,SMDPad,CuDef*%
%ADD18RoundRect,0.140000X0.140000X0.170000X-0.140000X0.170000X-0.140000X-0.170000X0.140000X-0.170000X0*%
%TD*%
%TA.AperFunction,SMDPad,CuDef*%
%ADD19RoundRect,0.135000X0.185000X-0.135000X0.185000X0.135000X-0.185000X0.135000X-0.185000X-0.135000X0*%
%TD*%
%TA.AperFunction,ComponentPad*%
%ADD20C,1.600200*%
%TD*%
%TA.AperFunction,ViaPad*%
%ADD21C,0.800000*%
%TD*%
%TA.AperFunction,Conductor*%
%ADD22C,0.250000*%
%TD*%
G04 APERTURE END LIST*
D10*
%TO.P,TP3,1,1*%
%TO.N,0*%
X151384000Y-91313000D03*
D11*
X151384000Y-91313000D03*
%TD*%
D10*
%TO.P,TP4,1,1*%
%TO.N,Net-(R2-Pad2)*%
X160401000Y-104013000D03*
D11*
X160401000Y-104013000D03*
%TD*%
D12*
%TO.P,Q3,1,B*%
%TO.N,Net-(Q3-B)*%
X153228000Y-94028500D03*
%TO.P,Q3,2,C*%
%TO.N,Net-(Q3-C)*%
X155128000Y-94028500D03*
%TO.P,Q3,3,E*%
%TO.N,0*%
X154178000Y-92153500D03*
%TD*%
D13*
%TO.P,Q1,1,C*%
%TO.N,Net-(Q1-C)*%
X154178000Y-100874500D03*
%TO.P,Q1,2,E*%
%TO.N,0*%
X154178000Y-103849500D03*
%TD*%
D10*
%TO.P,TP2,1,1*%
%TO.N,Net-(Q3-C)*%
X155448000Y-90170000D03*
D11*
X155448000Y-90170000D03*
%TD*%
D14*
%TO.P,C3,1*%
%TO.N,0*%
X151003000Y-97127000D03*
%TO.P,C3,2*%
%TO.N,Net-(C3-Pad2)*%
X151003000Y-96167000D03*
%TD*%
D13*
%TO.P,Q2,1,C*%
%TO.N,Net-(Q2-C)*%
X151638000Y-100874500D03*
%TO.P,Q2,2,E*%
%TO.N,0*%
X151638000Y-103849500D03*
%TD*%
D15*
%TO.P,C4,1*%
%TO.N,Net-(C4-Pad1)*%
X158016000Y-96393000D03*
%TO.P,C4,2*%
%TO.N,Net-(Q3-B)*%
X158976000Y-96393000D03*
%TD*%
D16*
%TO.P,R6,1*%
%TO.N,Net-(Q3-B)*%
X155450000Y-95885000D03*
%TO.P,R6,2*%
%TO.N,0*%
X154430000Y-95885000D03*
%TD*%
D10*
%TO.P,TP1,1,1*%
%TO.N,+3.3V*%
X160655000Y-90805000D03*
D11*
X160655000Y-90805000D03*
%TD*%
D16*
%TO.P,R1,1*%
%TO.N,Net-(R1-Pad1)*%
X159133000Y-101727000D03*
%TO.P,R1,2*%
%TO.N,Net-(Q1-C)*%
X158113000Y-101727000D03*
%TD*%
D17*
%TO.P,R4,1*%
%TO.N,+3.3V*%
X154559000Y-98169000D03*
%TO.P,R4,2*%
%TO.N,Net-(C2-Pad2)*%
X154559000Y-99189000D03*
%TD*%
D15*
%TO.P,C2,1*%
%TO.N,Net-(Q2-C)*%
X151539000Y-99060000D03*
%TO.P,C2,2*%
%TO.N,Net-(C2-Pad2)*%
X152499000Y-99060000D03*
%TD*%
D18*
%TO.P,C_B1,1*%
%TO.N,+3.3V*%
X156210000Y-97028000D03*
%TO.P,C_B1,2*%
%TO.N,0*%
X155250000Y-97028000D03*
%TD*%
D19*
%TO.P,R7,1*%
%TO.N,+3.3V*%
X156972000Y-92331000D03*
%TO.P,R7,2*%
%TO.N,Net-(Q3-C)*%
X156972000Y-91311000D03*
%TD*%
D15*
%TO.P,C1,1*%
%TO.N,Net-(Q1-C)*%
X157127000Y-100584000D03*
%TO.P,C1,2*%
%TO.N,Net-(C1-Pad2)*%
X158087000Y-100584000D03*
%TD*%
D19*
%TO.P,R3,1*%
%TO.N,Net-(C1-Pad2)*%
X160909000Y-99443000D03*
%TO.P,R3,2*%
%TO.N,+3.3V*%
X160909000Y-98423000D03*
%TD*%
D20*
%TO.P,BT1,1,+*%
%TO.N,+3.3V*%
X156965000Y-93987595D03*
%TO.P,BT1,2,-*%
%TO.N,0*%
X156965000Y-103987595D03*
%TD*%
D21*
%TO.N,Net-(C1-Pad2)*%
X161925000Y-99441000D03*
%TO.N,Net-(C2-Pad2)*%
X153416000Y-98298000D03*
%TO.N,0*%
X152908000Y-104902000D03*
%TO.N,Net-(C3-Pad2)*%
X151003000Y-95250000D03*
%TO.N,Net-(C4-Pad1)*%
X157099000Y-98171000D03*
%TO.N,Net-(Q3-B)*%
X152400000Y-93980000D03*
X160401000Y-92583000D03*
%TO.N,Net-(R1-Pad1)*%
X158877000Y-99568000D03*
%TO.N,+3.3V*%
X158496000Y-92710000D03*
X162052000Y-97917000D03*
%TO.N,Net-(Q2-C)*%
X151638000Y-98044000D03*
%TD*%
D22*
%TO.N,Net-(Q1-C)*%
X154178000Y-100874500D02*
X156836500Y-100874500D01*
X156836500Y-100874500D02*
X157127000Y-100584000D01*
X158113000Y-101727000D02*
X157127000Y-100741000D01*
X157127000Y-100741000D02*
X157127000Y-100584000D01*
%TO.N,Net-(C1-Pad2)*%
X158576695Y-98843000D02*
X160309000Y-98843000D01*
X160909000Y-99443000D02*
X161923000Y-99443000D01*
X158087000Y-99332695D02*
X158576695Y-98843000D01*
X160309000Y-98843000D02*
X160909000Y-99443000D01*
X158087000Y-100584000D02*
X158087000Y-99332695D01*
X161923000Y-99443000D02*
X161925000Y-99441000D01*
%TO.N,Net-(C2-Pad2)*%
X153416000Y-98298000D02*
X153261000Y-98298000D01*
X152628000Y-99189000D02*
X152499000Y-99060000D01*
X153261000Y-98298000D02*
X152499000Y-99060000D01*
X154559000Y-99189000D02*
X152628000Y-99189000D01*
%TO.N,0*%
X151638000Y-94243305D02*
X151638000Y-93716695D01*
X151384000Y-91313000D02*
X153337500Y-91313000D01*
X152690500Y-104902000D02*
X151638000Y-103849500D01*
X153201195Y-92153500D02*
X154178000Y-92153500D01*
X150438000Y-97692000D02*
X150438000Y-101575172D01*
X153675305Y-95130305D02*
X154430000Y-95885000D01*
X152525000Y-95130305D02*
X153675305Y-95130305D01*
X151638000Y-102775172D02*
X151638000Y-103849500D01*
X151003000Y-97127000D02*
X150438000Y-97692000D01*
X154178000Y-103849500D02*
X153960500Y-103849500D01*
X153337500Y-91313000D02*
X154178000Y-92153500D01*
X152525000Y-95130305D02*
X151638000Y-94243305D01*
X154316095Y-103987595D02*
X156965000Y-103987595D01*
X154430000Y-95885000D02*
X153188000Y-97127000D01*
X150438000Y-101575172D02*
X151638000Y-102775172D01*
X154430000Y-95885000D02*
X154430000Y-96208000D01*
X151638000Y-93716695D02*
X153201195Y-92153500D01*
X154178000Y-103849500D02*
X154316095Y-103987595D01*
X153188000Y-97127000D02*
X151003000Y-97127000D01*
X152908000Y-104902000D02*
X152690500Y-104902000D01*
X154430000Y-96208000D02*
X155250000Y-97028000D01*
X153960500Y-103849500D02*
X152908000Y-104902000D01*
%TO.N,Net-(C3-Pad2)*%
X151003000Y-96167000D02*
X151003000Y-95250000D01*
%TO.N,Net-(C4-Pad1)*%
X157099000Y-98171000D02*
X157099000Y-98298000D01*
X157099000Y-98171000D02*
X157099000Y-97310000D01*
X157099000Y-97310000D02*
X158016000Y-96393000D01*
%TO.N,Net-(Q3-B)*%
X158976000Y-96393000D02*
X158976000Y-96385391D01*
X155450000Y-95885000D02*
X153593500Y-94028500D01*
X160401000Y-92583000D02*
X159004000Y-93980000D01*
X153228000Y-94028500D02*
X152527000Y-94028500D01*
X159004000Y-96357391D02*
X159004000Y-93980000D01*
X152527000Y-94028500D02*
X152400000Y-93980000D01*
X152430000Y-94028500D02*
X152478500Y-94028500D01*
X153593500Y-94028500D02*
X153228000Y-94028500D01*
X158976000Y-96385391D02*
X159004000Y-96357391D01*
X152400000Y-93980000D02*
X152430000Y-94028500D01*
%TO.N,Net-(Q3-C)*%
X155831000Y-90170000D02*
X156972000Y-91311000D01*
X155448000Y-90170000D02*
X155831000Y-90170000D01*
X156972000Y-91311000D02*
X155128000Y-93155000D01*
X155128000Y-93155000D02*
X155128000Y-94028500D01*
%TO.N,Net-(R1-Pad1)*%
X159133000Y-99824000D02*
X158877000Y-99568000D01*
X159133000Y-101727000D02*
X159133000Y-99824000D01*
%TO.N,+3.3V*%
X160909000Y-98423000D02*
X161546000Y-98423000D01*
X156972000Y-93980595D02*
X156965000Y-93987595D01*
X156210000Y-97035609D02*
X156210000Y-97028000D01*
X156965000Y-96273000D02*
X156210000Y-97028000D01*
X161546000Y-98423000D02*
X162052000Y-97917000D01*
X158117000Y-92331000D02*
X158496000Y-92710000D01*
X156972000Y-92331000D02*
X156972000Y-93980595D01*
X156965000Y-93987595D02*
X156965000Y-96273000D01*
X154559000Y-98169000D02*
X155076609Y-98169000D01*
X154559000Y-98169000D02*
X154559000Y-98072000D01*
X155076609Y-98169000D02*
X156210000Y-97035609D01*
X156972000Y-92331000D02*
X158117000Y-92331000D01*
%TO.N,Net-(Q2-C)*%
X151638000Y-99159000D02*
X151539000Y-99060000D01*
X151638000Y-98961000D02*
X151539000Y-99060000D01*
X151638000Y-98044000D02*
X151638000Y-98961000D01*
X151638000Y-100874500D02*
X151638000Y-99159000D01*
%TD*%
%TA.AperFunction,Conductor*%
%TO.N,0*%
G36*
X162503039Y-100603685D02*
G01*
X162548794Y-100656489D01*
X162560000Y-100708000D01*
X162560000Y-105540000D01*
X162540315Y-105607039D01*
X162487511Y-105652794D01*
X162436000Y-105664000D01*
X150492000Y-105664000D01*
X150424961Y-105644315D01*
X150379206Y-105591511D01*
X150368000Y-105540000D01*
X150368000Y-105017528D01*
X150387685Y-104950489D01*
X150440489Y-104904734D01*
X150509647Y-104894790D01*
X150557097Y-104911990D01*
X150693870Y-104996353D01*
X150693881Y-104996358D01*
X150860303Y-105051505D01*
X150860310Y-105051506D01*
X150963014Y-105061999D01*
X150963027Y-105062000D01*
X151388000Y-105062000D01*
X151388000Y-104099500D01*
X151888000Y-104099500D01*
X151888000Y-105062000D01*
X152312973Y-105062000D01*
X152312985Y-105061999D01*
X152415689Y-105051506D01*
X152415696Y-105051505D01*
X152582118Y-104996358D01*
X152582123Y-104996356D01*
X152731344Y-104904315D01*
X152820317Y-104815341D01*
X152881640Y-104781855D01*
X152951331Y-104786839D01*
X152995680Y-104815340D01*
X153084655Y-104904315D01*
X153233876Y-104996356D01*
X153233881Y-104996358D01*
X153400303Y-105051505D01*
X153400310Y-105051506D01*
X153503014Y-105061999D01*
X153503027Y-105062000D01*
X153928000Y-105062000D01*
X153928000Y-104099500D01*
X151888000Y-104099500D01*
X151388000Y-104099500D01*
X151388000Y-102637000D01*
X151888000Y-102637000D01*
X151888000Y-103599500D01*
X153928000Y-103599500D01*
X153928000Y-102637000D01*
X154428000Y-102637000D01*
X154428000Y-105062000D01*
X154852973Y-105062000D01*
X154852985Y-105061999D01*
X154955689Y-105051506D01*
X154955696Y-105051505D01*
X155122118Y-104996358D01*
X155122123Y-104996356D01*
X155271344Y-104904315D01*
X155395315Y-104780344D01*
X155487356Y-104631123D01*
X155487359Y-104631116D01*
X155531759Y-104497125D01*
X155571531Y-104439680D01*
X155636047Y-104412856D01*
X155704823Y-104425171D01*
X155756023Y-104472713D01*
X155761847Y-104483723D01*
X155834782Y-104640131D01*
X155885901Y-104713138D01*
X155885902Y-104713139D01*
X156319375Y-104279665D01*
X156380698Y-104246180D01*
X156450389Y-104251164D01*
X156506323Y-104293035D01*
X156509923Y-104298774D01*
X156514657Y-104305481D01*
X156617121Y-104415192D01*
X156652536Y-104436728D01*
X156699588Y-104488379D01*
X156711246Y-104557269D01*
X156683809Y-104621526D01*
X156675789Y-104630357D01*
X156239454Y-105066691D01*
X156312466Y-105117814D01*
X156312468Y-105117815D01*
X156518639Y-105213954D01*
X156518648Y-105213958D01*
X156738372Y-105272832D01*
X156738382Y-105272834D01*
X156964999Y-105292661D01*
X156965001Y-105292661D01*
X157191617Y-105272834D01*
X157191627Y-105272832D01*
X157411351Y-105213958D01*
X157411360Y-105213954D01*
X157617530Y-105117816D01*
X157690544Y-105066691D01*
X157255393Y-104631541D01*
X157221908Y-104570218D01*
X157226892Y-104500527D01*
X157264817Y-104447673D01*
X157367862Y-104363841D01*
X157418254Y-104292450D01*
X157472994Y-104249035D01*
X157542519Y-104242106D01*
X157604754Y-104273864D01*
X157607238Y-104276280D01*
X158044096Y-104713139D01*
X158095221Y-104640125D01*
X158191359Y-104433955D01*
X158191363Y-104433946D01*
X158250237Y-104214222D01*
X158250239Y-104214212D01*
X158267843Y-104013006D01*
X158998710Y-104013006D01*
X159017833Y-104243801D01*
X159017835Y-104243812D01*
X159074689Y-104468323D01*
X159167722Y-104680415D01*
X159294393Y-104874301D01*
X159451257Y-105044700D01*
X159451261Y-105044703D01*
X159634015Y-105186946D01*
X159634020Y-105186950D01*
X159829356Y-105292661D01*
X159837707Y-105297180D01*
X159947232Y-105334779D01*
X160056754Y-105372379D01*
X160056756Y-105372379D01*
X160056758Y-105372380D01*
X160285200Y-105410500D01*
X160285201Y-105410500D01*
X160516799Y-105410500D01*
X160516800Y-105410500D01*
X160745242Y-105372380D01*
X160964293Y-105297180D01*
X161167980Y-105186950D01*
X161350745Y-105044698D01*
X161507604Y-104874304D01*
X161634277Y-104680416D01*
X161727310Y-104468323D01*
X161784165Y-104243809D01*
X161784306Y-104242106D01*
X161803290Y-104013006D01*
X161803290Y-104012993D01*
X161784166Y-103782198D01*
X161784164Y-103782187D01*
X161727310Y-103557676D01*
X161634277Y-103345584D01*
X161507606Y-103151698D01*
X161350742Y-102981299D01*
X161350738Y-102981296D01*
X161167984Y-102839053D01*
X161167979Y-102839049D01*
X160964294Y-102728820D01*
X160964288Y-102728818D01*
X160745245Y-102653620D01*
X160573910Y-102625029D01*
X160516800Y-102615500D01*
X160285200Y-102615500D01*
X160239511Y-102623123D01*
X160056754Y-102653620D01*
X159837711Y-102728818D01*
X159837705Y-102728820D01*
X159634020Y-102839049D01*
X159634015Y-102839053D01*
X159451261Y-102981296D01*
X159451257Y-102981299D01*
X159294393Y-103151698D01*
X159167722Y-103345584D01*
X159074689Y-103557676D01*
X159017835Y-103782187D01*
X159017833Y-103782198D01*
X158998710Y-104012993D01*
X158998710Y-104013006D01*
X158267843Y-104013006D01*
X158270066Y-103987595D01*
X158270066Y-103987594D01*
X158250239Y-103760977D01*
X158250237Y-103760967D01*
X158191363Y-103541243D01*
X158191359Y-103541234D01*
X158095220Y-103335063D01*
X158095219Y-103335061D01*
X158044096Y-103262050D01*
X158044096Y-103262049D01*
X157610624Y-103695522D01*
X157549301Y-103729007D01*
X157479609Y-103724023D01*
X157423676Y-103682151D01*
X157420081Y-103676422D01*
X157415342Y-103669708D01*
X157312878Y-103559997D01*
X157277460Y-103538459D01*
X157230409Y-103486807D01*
X157218752Y-103417917D01*
X157246190Y-103353660D01*
X157254209Y-103344831D01*
X157690544Y-102908497D01*
X157690543Y-102908496D01*
X157617536Y-102857377D01*
X157411360Y-102761235D01*
X157411351Y-102761231D01*
X157191627Y-102702357D01*
X157191617Y-102702355D01*
X156965001Y-102682529D01*
X156964999Y-102682529D01*
X156738382Y-102702355D01*
X156738372Y-102702357D01*
X156518648Y-102761231D01*
X156518639Y-102761235D01*
X156312464Y-102857376D01*
X156239454Y-102908496D01*
X156674606Y-103343648D01*
X156708091Y-103404971D01*
X156703107Y-103474663D01*
X156665181Y-103527516D01*
X156562139Y-103611347D01*
X156562135Y-103611352D01*
X156511746Y-103682737D01*
X156457003Y-103726154D01*
X156387478Y-103733083D01*
X156325244Y-103701324D01*
X156322761Y-103698909D01*
X155885901Y-103262049D01*
X155834781Y-103335059D01*
X155789382Y-103432418D01*
X155743209Y-103484857D01*
X155676016Y-103504009D01*
X155609135Y-103483793D01*
X155563800Y-103430628D01*
X155553000Y-103380013D01*
X155553000Y-103337027D01*
X155552999Y-103337014D01*
X155542506Y-103234310D01*
X155542505Y-103234303D01*
X155487358Y-103067881D01*
X155487356Y-103067876D01*
X155395315Y-102918655D01*
X155271344Y-102794684D01*
X155122123Y-102702643D01*
X155122118Y-102702641D01*
X154955696Y-102647494D01*
X154955689Y-102647493D01*
X154852985Y-102637000D01*
X154428000Y-102637000D01*
X153928000Y-102637000D01*
X153503014Y-102637000D01*
X153400310Y-102647493D01*
X153400303Y-102647494D01*
X153233881Y-102702641D01*
X153233876Y-102702643D01*
X153084655Y-102794684D01*
X152995681Y-102883659D01*
X152934358Y-102917144D01*
X152864666Y-102912160D01*
X152820319Y-102883659D01*
X152731344Y-102794684D01*
X152582123Y-102702643D01*
X152582118Y-102702641D01*
X152415696Y-102647494D01*
X152415689Y-102647493D01*
X152312985Y-102637000D01*
X151888000Y-102637000D01*
X151388000Y-102637000D01*
X150963014Y-102637000D01*
X150860310Y-102647493D01*
X150860303Y-102647494D01*
X150693881Y-102702641D01*
X150693876Y-102702643D01*
X150557097Y-102787010D01*
X150489704Y-102805450D01*
X150423041Y-102784527D01*
X150378271Y-102730885D01*
X150368000Y-102681471D01*
X150368000Y-102232000D01*
X150387685Y-102164961D01*
X150440489Y-102119206D01*
X150492000Y-102108000D01*
X157275575Y-102108000D01*
X157342614Y-102127685D01*
X157382307Y-102168879D01*
X157382730Y-102169595D01*
X157382731Y-102169596D01*
X157465494Y-102309541D01*
X157465496Y-102309543D01*
X157465498Y-102309546D01*
X157580453Y-102424501D01*
X157580457Y-102424504D01*
X157580459Y-102424506D01*
X157720404Y-102507269D01*
X157772447Y-102522389D01*
X157876526Y-102552627D01*
X157876528Y-102552627D01*
X157876534Y-102552629D01*
X157899332Y-102554423D01*
X157913008Y-102555500D01*
X157913010Y-102555499D01*
X157913011Y-102555500D01*
X158213120Y-102555499D01*
X158312988Y-102555499D01*
X158349466Y-102552629D01*
X158505596Y-102507269D01*
X158559879Y-102475165D01*
X158627601Y-102457982D01*
X158686120Y-102475165D01*
X158740404Y-102507269D01*
X158792447Y-102522389D01*
X158896526Y-102552627D01*
X158896528Y-102552627D01*
X158896534Y-102552629D01*
X158919332Y-102554423D01*
X158933008Y-102555500D01*
X158933010Y-102555499D01*
X158933011Y-102555500D01*
X159233024Y-102555499D01*
X159332988Y-102555499D01*
X159369466Y-102552629D01*
X159525596Y-102507269D01*
X159665541Y-102424506D01*
X159780506Y-102309541D01*
X159863269Y-102169596D01*
X159863269Y-102169595D01*
X159863693Y-102168879D01*
X159914762Y-102121196D01*
X159970425Y-102108000D01*
X160020000Y-102108000D01*
X160020000Y-100708000D01*
X160039685Y-100640961D01*
X160092489Y-100595206D01*
X160144000Y-100584000D01*
X162436000Y-100584000D01*
X162503039Y-100603685D01*
G37*
%TD.AperFunction*%
%TD*%
M02*
