%TF.GenerationSoftware,KiCad,Pcbnew,7.0.7*%
%TF.CreationDate,2023-12-15T10:49:52-05:00*%
%TF.ProjectId,Conference Circuit 1214,436f6e66-6572-4656-9e63-652043697263,rev?*%
%TF.SameCoordinates,Original*%
%TF.FileFunction,Copper,L2,Bot*%
%TF.FilePolarity,Positive*%
%FSLAX46Y46*%
G04 Gerber Fmt 4.6, Leading zero omitted, Abs format (unit mm)*
G04 Created by KiCad (PCBNEW 7.0.7) date 2023-12-15 10:49:52*
%MOMM*%
%LPD*%
G01*
G04 APERTURE LIST*
G04 Aperture macros list*
%AMRoundRect*
0 Rectangle with rounded corners*
0 $1 Rounding radius*
0 $2 $3 $4 $5 $6 $7 $8 $9 X,Y pos of 4 corners*
0 Add a 4 corners polygon primitive as box body*
4,1,4,$2,$3,$4,$5,$6,$7,$8,$9,$2,$3,0*
0 Add four circle primitives for the rounded corners*
1,1,$1+$1,$2,$3*
1,1,$1+$1,$4,$5*
1,1,$1+$1,$6,$7*
1,1,$1+$1,$8,$9*
0 Add four rect primitives between the rounded corners*
20,1,$1+$1,$2,$3,$4,$5,0*
20,1,$1+$1,$4,$5,$6,$7,0*
20,1,$1+$1,$6,$7,$8,$9,0*
20,1,$1+$1,$8,$9,$2,$3,0*%
G04 Aperture macros list end*
%TA.AperFunction,ComponentPad*%
%ADD10C,1.200000*%
%TD*%
%TA.AperFunction,ConnectorPad*%
%ADD11C,1.200000*%
%TD*%
%TA.AperFunction,ComponentPad*%
%ADD12C,1.600200*%
%TD*%
%TA.AperFunction,SMDPad,CuDef*%
%ADD13R,0.558800X2.286000*%
%TD*%
%TA.AperFunction,SMDPad,CuDef*%
%ADD14RoundRect,0.135000X-0.135000X-0.185000X0.135000X-0.185000X0.135000X0.185000X-0.135000X0.185000X0*%
%TD*%
%TA.AperFunction,ViaPad*%
%ADD15C,0.800000*%
%TD*%
%TA.AperFunction,Conductor*%
%ADD16C,0.250000*%
%TD*%
G04 APERTURE END LIST*
D10*
%TO.P,TP3,1,1*%
%TO.N,0*%
X151384000Y-91313000D03*
D11*
X151384000Y-91313000D03*
%TD*%
D10*
%TO.P,TP4,1,1*%
%TO.N,Net-(R2-Pad2)*%
X160401000Y-104013000D03*
D11*
X160401000Y-104013000D03*
%TD*%
D10*
%TO.P,TP2,1,1*%
%TO.N,Net-(Q3-C)*%
X155448000Y-90170000D03*
D11*
X155448000Y-90170000D03*
%TD*%
D10*
%TO.P,TP1,1,1*%
%TO.N,+3.3V*%
X160655000Y-90805000D03*
D11*
X160655000Y-90805000D03*
%TD*%
D12*
%TO.P,BT1,1,+*%
%TO.N,+3.3V*%
X156965000Y-93987595D03*
%TO.P,BT1,2,-*%
%TO.N,0*%
X156965000Y-103987595D03*
%TD*%
D13*
%TO.P,U1,1*%
%TO.N,Net-(C1-Pad2)*%
X160909000Y-101447600D03*
%TO.P,U1,2*%
%TO.N,Net-(R1-Pad1)*%
X159639000Y-101447600D03*
%TO.P,U1,3*%
%TO.N,Net-(R2-Pad2)*%
X158369000Y-101447600D03*
%TO.P,U1,4*%
%TO.N,Net-(R1-Pad1)*%
X157099000Y-101447600D03*
%TO.P,U1,5*%
%TO.N,Net-(R2-Pad2)*%
X155829000Y-101447600D03*
%TO.P,U1,6*%
%TO.N,Net-(C2-Pad2)*%
X154559000Y-101447600D03*
%TO.P,U1,7,GND*%
%TO.N,0*%
X153289000Y-101447600D03*
%TO.P,U1,8*%
%TO.N,Net-(C3-Pad2)*%
X153289000Y-96418400D03*
%TO.P,U1,9*%
%TO.N,Net-(R2-Pad2)*%
X154559000Y-96418400D03*
%TO.P,U1,10*%
%TO.N,Net-(R5-Pad2)*%
X155829000Y-96418400D03*
%TO.P,U1,11*%
%TO.N,Net-(C4-Pad1)*%
X157099000Y-96418400D03*
%TO.P,U1,12*%
%TO.N,Net-(R5-Pad2)*%
X158369000Y-96418400D03*
%TO.P,U1,13*%
%TO.N,Net-(R2-Pad2)*%
X159639000Y-96418400D03*
%TO.P,U1,14,VCC*%
%TO.N,+3.3V*%
X160909000Y-96418400D03*
%TD*%
D14*
%TO.P,R5,1*%
%TO.N,Net-(C3-Pad2)*%
X154049000Y-94107000D03*
%TO.P,R5,2*%
%TO.N,Net-(R5-Pad2)*%
X155069000Y-94107000D03*
%TD*%
%TO.P,R2,1*%
%TO.N,Net-(Q2-C)*%
X151128000Y-102362000D03*
%TO.P,R2,2*%
%TO.N,Net-(R2-Pad2)*%
X152148000Y-102362000D03*
%TD*%
D15*
%TO.N,Net-(C1-Pad2)*%
X161925000Y-99441000D03*
%TO.N,Net-(C2-Pad2)*%
X153416000Y-98298000D03*
%TO.N,0*%
X152908000Y-104902000D03*
%TO.N,Net-(C3-Pad2)*%
X151003000Y-95250000D03*
%TO.N,Net-(C4-Pad1)*%
X157099000Y-98171000D03*
%TO.N,Net-(Q3-B)*%
X152400000Y-93980000D03*
X160401000Y-92583000D03*
%TO.N,Net-(R1-Pad1)*%
X158877000Y-99568000D03*
%TO.N,+3.3V*%
X158496000Y-92710000D03*
X162052000Y-97917000D03*
%TO.N,Net-(Q2-C)*%
X151638000Y-98044000D03*
%TD*%
D16*
%TO.N,Net-(C1-Pad2)*%
X161925000Y-99568000D02*
X161925000Y-99441000D01*
X160909000Y-100584000D02*
X161925000Y-99568000D01*
X161925000Y-99441000D02*
X162052000Y-99441000D01*
X162052000Y-99441000D02*
X162052000Y-99441000D01*
X160909000Y-101447600D02*
X160909000Y-100584000D01*
%TO.N,Net-(C2-Pad2)*%
X153289000Y-98298000D02*
X153289000Y-98298000D01*
X154559000Y-99568000D02*
X153416000Y-98425000D01*
X154559000Y-101447600D02*
X154559000Y-99568000D01*
X153416000Y-98425000D02*
X153416000Y-98298000D01*
X153416000Y-98298000D02*
X153289000Y-98298000D01*
%TO.N,0*%
X153289000Y-101447600D02*
X153289000Y-102311200D01*
X153289000Y-102311200D02*
X152908000Y-102692200D01*
X152908000Y-102692200D02*
X152908000Y-104902000D01*
X152908000Y-104902000D02*
X152908000Y-105029000D01*
%TO.N,Net-(C3-Pad2)*%
X153289000Y-94867000D02*
X153289000Y-96418400D01*
X152171400Y-96418400D02*
X153289000Y-96418400D01*
X154049000Y-94107000D02*
X153289000Y-94867000D01*
X151003000Y-95250000D02*
X152171400Y-96418400D01*
%TO.N,Net-(C4-Pad1)*%
X157099000Y-98171000D02*
X157099000Y-96418400D01*
%TO.N,Net-(Q3-B)*%
X152400000Y-93980000D02*
X154395000Y-91985000D01*
X159422000Y-91985000D02*
X159803000Y-91985000D01*
X154395000Y-91985000D02*
X159422000Y-91985000D01*
X159803000Y-91985000D02*
X160401000Y-92583000D01*
%TO.N,Net-(R1-Pad1)*%
X159639000Y-101447600D02*
X159639000Y-100330000D01*
X157099000Y-100645200D02*
X158176200Y-99568000D01*
X157099000Y-101447600D02*
X157099000Y-100645200D01*
X159639000Y-100330000D02*
X158877000Y-99568000D01*
X158176200Y-99568000D02*
X158877000Y-99568000D01*
%TO.N,Net-(R2-Pad2)*%
X158369000Y-104174727D02*
X157431032Y-105112695D01*
X156591000Y-99346000D02*
X157761804Y-99346000D01*
X152607695Y-105627000D02*
X154723000Y-105627000D01*
X154723000Y-105627000D02*
X155829000Y-104521000D01*
X152148000Y-102362000D02*
X152148000Y-105167305D01*
X154559000Y-97811400D02*
X154559000Y-96418400D01*
X154559000Y-97811400D02*
X155829000Y-99081400D01*
X158369000Y-101447600D02*
X158369000Y-104174727D01*
X155829000Y-99081400D02*
X155829000Y-101447600D01*
X157761804Y-99346000D02*
X159639000Y-97468804D01*
X157431032Y-105112695D02*
X156420695Y-105112695D01*
X155829000Y-104521000D02*
X155829000Y-101447600D01*
X159143765Y-104013000D02*
X158369000Y-103238235D01*
X155829000Y-100108000D02*
X156591000Y-99346000D01*
X159639000Y-97468804D02*
X159639000Y-96418400D01*
X158369000Y-103238235D02*
X158369000Y-101447600D01*
X160401000Y-104013000D02*
X159143765Y-104013000D01*
X155829000Y-101447600D02*
X155829000Y-100108000D01*
X152148000Y-105167305D02*
X152607695Y-105627000D01*
X156420695Y-105112695D02*
X155829000Y-104521000D01*
%TO.N,+3.3V*%
X160909000Y-94478695D02*
X161255000Y-94132695D01*
X161925000Y-97434400D02*
X162052000Y-97917000D01*
X159140305Y-92710000D02*
X158496000Y-92710000D01*
X161255000Y-94132695D02*
X161255000Y-91405000D01*
X160909000Y-96418400D02*
X160909000Y-94478695D01*
X160909000Y-96418400D02*
X161925000Y-97434400D01*
X160909000Y-94478695D02*
X159140305Y-92710000D01*
X156965000Y-93987595D02*
X156329405Y-93987595D01*
X162052000Y-97917000D02*
X161925000Y-97917000D01*
X161255000Y-91405000D02*
X160655000Y-90805000D01*
X161290000Y-91440000D02*
X160655000Y-90805000D01*
%TO.N,Net-(R5-Pad2)*%
X157505495Y-92862495D02*
X158369000Y-93726000D01*
X155069000Y-94107000D02*
X156313505Y-92862495D01*
X156313505Y-92862495D02*
X157505495Y-92862495D01*
X158369000Y-96418400D02*
X158369000Y-97926305D01*
X158369000Y-93726000D02*
X158369000Y-96418400D01*
X155829000Y-98171000D02*
X155829000Y-96418400D01*
X157399305Y-98896000D02*
X156554000Y-98896000D01*
X158369000Y-97926305D02*
X157399305Y-98896000D01*
X156554000Y-98896000D02*
X155829000Y-98171000D01*
%TO.N,Net-(Q2-C)*%
X151128000Y-102362000D02*
X151638000Y-101852000D01*
X151638000Y-101852000D02*
X151638000Y-98044000D01*
%TD*%
M02*
