%TF.GenerationSoftware,KiCad,Pcbnew,(6.0.8)*%
%TF.CreationDate,2023-04-11T21:19:58-04:00*%
%TF.ProjectId,Rat_NEST_v1,5261745f-4e45-4535-945f-76312e6b6963,rev?*%
%TF.SameCoordinates,Original*%
%TF.FileFunction,Legend,Bot*%
%TF.FilePolarity,Positive*%
%FSLAX46Y46*%
G04 Gerber Fmt 4.6, Leading zero omitted, Abs format (unit mm)*
G04 Created by KiCad (PCBNEW (6.0.8)) date 2023-04-11 21:19:58*
%MOMM*%
%LPD*%
G01*
G04 APERTURE LIST*
%ADD10C,0.120000*%
G04 APERTURE END LIST*
D10*
%TO.C,REF\u002A\u002A*%
X147093000Y-112006748D02*
X147093000Y-112529252D01*
X148563000Y-112006748D02*
X148563000Y-112529252D01*
X153287400Y-97715336D02*
X153287400Y-98169464D01*
X151817400Y-97715336D02*
X151817400Y-98169464D01*
X153635064Y-118258000D02*
X152180936Y-118258000D01*
X153635064Y-116438000D02*
X152180936Y-116438000D01*
X139919064Y-110638000D02*
X138464936Y-110638000D01*
X139919064Y-108818000D02*
X138464936Y-108818000D01*
X138437252Y-100865000D02*
X137914748Y-100865000D01*
X138437252Y-102335000D02*
X137914748Y-102335000D01*
X158249252Y-100865000D02*
X157726748Y-100865000D01*
X158249252Y-102335000D02*
X157726748Y-102335000D01*
X133710000Y-106391064D02*
X133710000Y-104936936D01*
X135530000Y-106391064D02*
X135530000Y-104936936D01*
X144448200Y-98324936D02*
X144448200Y-98779064D01*
X142978200Y-98324936D02*
X142978200Y-98779064D01*
X152720664Y-94026400D02*
X151266536Y-94026400D01*
X152720664Y-92206400D02*
X151266536Y-92206400D01*
X158699252Y-112882000D02*
X157276748Y-112882000D01*
X158699252Y-114702000D02*
X157276748Y-114702000D01*
X159800936Y-108818000D02*
X161255064Y-108818000D01*
X159800936Y-110638000D02*
X161255064Y-110638000D01*
%TD*%
M02*
