%TF.GenerationSoftware,KiCad,Pcbnew,(6.0.8)*%
%TF.CreationDate,2023-04-11T21:20:02-04:00*%
%TF.ProjectId,Rat_NEST_v1,5261745f-4e45-4535-945f-76312e6b6963,rev?*%
%TF.SameCoordinates,Original*%
%TF.FileFunction,Drillmap*%
%TF.FilePolarity,Positive*%
%FSLAX45Y45*%
G04 Gerber Fmt 4.5, Leading zero omitted, Abs format (unit mm)*
G04 Created by KiCad (PCBNEW (6.0.8)) date 2023-04-11 21:20:02*
%MOMM*%
%LPD*%
G01*
G04 APERTURE LIST*
%ADD10C,0.200000*%
G04 APERTURE END LIST*
D10*
X16775831Y-10627360D02*
G75*
G03*
X16775831Y-10627360I-1815231J0D01*
G01*
X13392988Y-12763067D02*
X13392988Y-12563067D01*
X13440607Y-12563067D01*
X13469178Y-12572591D01*
X13488226Y-12591639D01*
X13497750Y-12610686D01*
X13507273Y-12648782D01*
X13507273Y-12677353D01*
X13497750Y-12715448D01*
X13488226Y-12734496D01*
X13469178Y-12753543D01*
X13440607Y-12763067D01*
X13392988Y-12763067D01*
X13592988Y-12763067D02*
X13592988Y-12629734D01*
X13592988Y-12667829D02*
X13602512Y-12648782D01*
X13612035Y-12639258D01*
X13631083Y-12629734D01*
X13650131Y-12629734D01*
X13716797Y-12763067D02*
X13716797Y-12629734D01*
X13716797Y-12563067D02*
X13707273Y-12572591D01*
X13716797Y-12582115D01*
X13726321Y-12572591D01*
X13716797Y-12563067D01*
X13716797Y-12582115D01*
X13840607Y-12763067D02*
X13821559Y-12753543D01*
X13812035Y-12734496D01*
X13812035Y-12563067D01*
X13945369Y-12763067D02*
X13926321Y-12753543D01*
X13916797Y-12734496D01*
X13916797Y-12563067D01*
X14173940Y-12763067D02*
X14173940Y-12563067D01*
X14240607Y-12705924D01*
X14307273Y-12563067D01*
X14307273Y-12763067D01*
X14488226Y-12763067D02*
X14488226Y-12658305D01*
X14478702Y-12639258D01*
X14459654Y-12629734D01*
X14421559Y-12629734D01*
X14402512Y-12639258D01*
X14488226Y-12753543D02*
X14469178Y-12763067D01*
X14421559Y-12763067D01*
X14402512Y-12753543D01*
X14392988Y-12734496D01*
X14392988Y-12715448D01*
X14402512Y-12696401D01*
X14421559Y-12686877D01*
X14469178Y-12686877D01*
X14488226Y-12677353D01*
X14583464Y-12629734D02*
X14583464Y-12829734D01*
X14583464Y-12639258D02*
X14602512Y-12629734D01*
X14640607Y-12629734D01*
X14659654Y-12639258D01*
X14669178Y-12648782D01*
X14678702Y-12667829D01*
X14678702Y-12724972D01*
X14669178Y-12744020D01*
X14659654Y-12753543D01*
X14640607Y-12763067D01*
X14602512Y-12763067D01*
X14583464Y-12753543D01*
X14764416Y-12744020D02*
X14773940Y-12753543D01*
X14764416Y-12763067D01*
X14754893Y-12753543D01*
X14764416Y-12744020D01*
X14764416Y-12763067D01*
X14764416Y-12639258D02*
X14773940Y-12648782D01*
X14764416Y-12658305D01*
X14754893Y-12648782D01*
X14764416Y-12639258D01*
X14764416Y-12658305D01*
M02*
