%TF.GenerationSoftware,KiCad,Pcbnew,(6.0.8)*%
%TF.CreationDate,2023-04-11T21:19:58-04:00*%
%TF.ProjectId,Rat_NEST_v1,5261745f-4e45-4535-945f-76312e6b6963,rev?*%
%TF.SameCoordinates,Original*%
%TF.FileFunction,Paste,Bot*%
%TF.FilePolarity,Positive*%
%FSLAX46Y46*%
G04 Gerber Fmt 4.6, Leading zero omitted, Abs format (unit mm)*
G04 Created by KiCad (PCBNEW (6.0.8)) date 2023-04-11 21:19:58*
%MOMM*%
%LPD*%
G01*
G04 APERTURE LIST*
G04 Aperture macros list*
%AMRoundRect*
0 Rectangle with rounded corners*
0 $1 Rounding radius*
0 $2 $3 $4 $5 $6 $7 $8 $9 X,Y pos of 4 corners*
0 Add a 4 corners polygon primitive as box body*
4,1,4,$2,$3,$4,$5,$6,$7,$8,$9,$2,$3,0*
0 Add four circle primitives for the rounded corners*
1,1,$1+$1,$2,$3*
1,1,$1+$1,$4,$5*
1,1,$1+$1,$6,$7*
1,1,$1+$1,$8,$9*
0 Add four rect primitives between the rounded corners*
20,1,$1+$1,$2,$3,$4,$5,0*
20,1,$1+$1,$4,$5,$6,$7,0*
20,1,$1+$1,$6,$7,$8,$9,0*
20,1,$1+$1,$8,$9,$2,$3,0*%
%AMOutline5P*
0 Free polygon, 5 corners , with rotation*
0 The origin of the aperture is its center*
0 number of corners: always 5*
0 $1 to $10 corner X, Y*
0 $11 Rotation angle, in degrees counterclockwise*
0 create outline with 5 corners*
4,1,5,$1,$2,$3,$4,$5,$6,$7,$8,$9,$10,$1,$2,$11*%
%AMOutline6P*
0 Free polygon, 6 corners , with rotation*
0 The origin of the aperture is its center*
0 number of corners: always 6*
0 $1 to $12 corner X, Y*
0 $13 Rotation angle, in degrees counterclockwise*
0 create outline with 6 corners*
4,1,6,$1,$2,$3,$4,$5,$6,$7,$8,$9,$10,$11,$12,$1,$2,$13*%
%AMOutline7P*
0 Free polygon, 7 corners , with rotation*
0 The origin of the aperture is its center*
0 number of corners: always 7*
0 $1 to $14 corner X, Y*
0 $15 Rotation angle, in degrees counterclockwise*
0 create outline with 7 corners*
4,1,7,$1,$2,$3,$4,$5,$6,$7,$8,$9,$10,$11,$12,$13,$14,$1,$2,$15*%
%AMOutline8P*
0 Free polygon, 8 corners , with rotation*
0 The origin of the aperture is its center*
0 number of corners: always 8*
0 $1 to $16 corner X, Y*
0 $17 Rotation angle, in degrees counterclockwise*
0 create outline with 8 corners*
4,1,8,$1,$2,$3,$4,$5,$6,$7,$8,$9,$10,$11,$12,$13,$14,$15,$16,$1,$2,$17*%
%AMFreePoly0*
4,1,5,0.292100,-0.673100,-0.292100,-0.673100,-0.292100,0.673100,0.292100,0.673100,0.292100,-0.673100,0.292100,-0.673100,$1*%
%AMFreePoly1*
4,1,5,0.255000,-0.673100,-0.255000,-0.673100,-0.255000,0.673100,0.255000,0.673100,0.255000,-0.673100,0.255000,-0.673100,$1*%
%AMFreePoly2*
4,1,5,0.280000,-0.475000,-0.280000,-0.475000,-0.280000,0.475000,0.280000,0.475000,0.280000,-0.475000,0.280000,-0.475000,$1*%
G04 Aperture macros list end*
%ADD10RoundRect,0.250000X-0.475000X0.250000X-0.475000X-0.250000X0.475000X-0.250000X0.475000X0.250000X0*%
%ADD11RoundRect,0.250000X-0.450000X0.262500X-0.450000X-0.262500X0.450000X-0.262500X0.450000X0.262500X0*%
%ADD12R,1.500000X1.000000*%
%ADD13Outline5P,-0.500000X0.750000X0.500000X0.750000X0.500000X-0.550000X0.300000X-0.750000X-0.500000X-0.750000X90.000000*%
%ADD14FreePoly0,0.000000*%
%ADD15FreePoly1,0.000000*%
%ADD16Outline5P,-0.292100X0.673100X0.292100X0.673100X0.292100X-0.673100X-0.175260X-0.673100X-0.292100X-0.556260X0.000000*%
%ADD17RoundRect,0.250000X0.312500X0.625000X-0.312500X0.625000X-0.312500X-0.625000X0.312500X-0.625000X0*%
%ADD18RoundRect,0.250000X0.250000X0.475000X-0.250000X0.475000X-0.250000X-0.475000X0.250000X-0.475000X0*%
%ADD19FreePoly2,0.000000*%
%ADD20RoundRect,0.250000X0.625000X-0.312500X0.625000X0.312500X-0.625000X0.312500X-0.625000X-0.312500X0*%
%ADD21RoundRect,0.250000X0.325000X0.650000X-0.325000X0.650000X-0.325000X-0.650000X0.325000X-0.650000X0*%
%ADD22RoundRect,0.250000X-0.312500X-0.625000X0.312500X-0.625000X0.312500X0.625000X-0.312500X0.625000X0*%
%ADD23Outline5P,-0.500000X0.750000X0.500000X0.750000X0.500000X-0.550000X0.300000X-0.750000X-0.500000X-0.750000X270.000000*%
G04 APERTURE END LIST*
D10*
%TO.C,REF\u002A\u002A*%
X147828000Y-111318000D03*
X147828000Y-113218000D03*
%TD*%
D11*
%TO.C,REF\u002A\u002A*%
X152552400Y-97029900D03*
X152552400Y-98854900D03*
%TD*%
D12*
%TO.C,REF\u002A\u002A*%
X162052000Y-106456000D03*
D13*
X162052000Y-103856000D03*
%TD*%
D14*
%TO.C,REF\u002A\u002A*%
X144018000Y-103632000D03*
X145288000Y-103632000D03*
X146558000Y-103632000D03*
X147828000Y-103632000D03*
X149098000Y-103632000D03*
X150368000Y-103632000D03*
X151638000Y-103632000D03*
X151638000Y-108562000D03*
X150368000Y-108562000D03*
X149098000Y-108562000D03*
X147828000Y-108562000D03*
D15*
X146558000Y-108562000D03*
D14*
X145288000Y-108562000D03*
D16*
X144018000Y-108562000D03*
%TD*%
D17*
%TO.C,REF\u002A\u002A*%
X154370500Y-117348000D03*
X151445500Y-117348000D03*
%TD*%
%TO.C,REF\u002A\u002A*%
X140654500Y-109728000D03*
X137729500Y-109728000D03*
%TD*%
D18*
%TO.C,REF\u002A\u002A*%
X139126000Y-101600000D03*
X137226000Y-101600000D03*
%TD*%
D19*
%TO.C,REF\u002A\u002A*%
X141666000Y-114259000D03*
X139766000Y-114259000D03*
X140716000Y-112309000D03*
%TD*%
D18*
%TO.C,REF\u002A\u002A*%
X158938000Y-101600000D03*
X157038000Y-101600000D03*
%TD*%
D20*
%TO.C,REF\u002A\u002A*%
X134620000Y-107126500D03*
X134620000Y-104201500D03*
%TD*%
D11*
%TO.C,REF\u002A\u002A*%
X143713200Y-97639500D03*
X143713200Y-99464500D03*
%TD*%
D17*
%TO.C,REF\u002A\u002A*%
X153456100Y-93116400D03*
X150531100Y-93116400D03*
%TD*%
D21*
%TO.C,REF\u002A\u002A*%
X159463000Y-113792000D03*
X156513000Y-113792000D03*
%TD*%
D22*
%TO.C,REF\u002A\u002A*%
X159065500Y-109728000D03*
X161990500Y-109728000D03*
%TD*%
D12*
%TO.C,REF\u002A\u002A*%
X139700000Y-94204000D03*
D23*
X139700000Y-96804000D03*
%TD*%
M02*
