%TF.GenerationSoftware,KiCad,Pcbnew,7.0.7*%
%TF.CreationDate,2023-12-15T10:30:33-05:00*%
%TF.ProjectId,Original Circle FES Device,4f726967-696e-4616-9c20-436972636c65,rev?*%
%TF.SameCoordinates,Original*%
%TF.FileFunction,Legend,Top*%
%TF.FilePolarity,Positive*%
%FSLAX46Y46*%
G04 Gerber Fmt 4.6, Leading zero omitted, Abs format (unit mm)*
G04 Created by KiCad (PCBNEW 7.0.7) date 2023-12-15 10:30:33*
%MOMM*%
%LPD*%
G01*
G04 APERTURE LIST*
G04 Aperture macros list*
%AMRoundRect*
0 Rectangle with rounded corners*
0 $1 Rounding radius*
0 $2 $3 $4 $5 $6 $7 $8 $9 X,Y pos of 4 corners*
0 Add a 4 corners polygon primitive as box body*
4,1,4,$2,$3,$4,$5,$6,$7,$8,$9,$2,$3,0*
0 Add four circle primitives for the rounded corners*
1,1,$1+$1,$2,$3*
1,1,$1+$1,$4,$5*
1,1,$1+$1,$6,$7*
1,1,$1+$1,$8,$9*
0 Add four rect primitives between the rounded corners*
20,1,$1+$1,$2,$3,$4,$5,0*
20,1,$1+$1,$4,$5,$6,$7,0*
20,1,$1+$1,$6,$7,$8,$9,0*
20,1,$1+$1,$8,$9,$2,$3,0*%
G04 Aperture macros list end*
%ADD10C,0.150000*%
%ADD11C,0.120000*%
%ADD12C,0.152400*%
%ADD13RoundRect,0.135000X-0.135000X-0.185000X0.135000X-0.185000X0.135000X0.185000X-0.135000X0.185000X0*%
%ADD14C,1.200000*%
%ADD15C,1.400000*%
%ADD16RoundRect,0.135000X0.135000X0.185000X-0.135000X0.185000X-0.135000X-0.185000X0.135000X-0.185000X0*%
%ADD17RoundRect,0.140000X-0.140000X-0.170000X0.140000X-0.170000X0.140000X0.170000X-0.140000X0.170000X0*%
%ADD18RoundRect,0.140000X0.140000X0.170000X-0.140000X0.170000X-0.140000X-0.170000X0.140000X-0.170000X0*%
%ADD19RoundRect,0.250000X-0.625000X0.375000X-0.625000X-0.375000X0.625000X-0.375000X0.625000X0.375000X0*%
%ADD20RoundRect,0.150000X-0.512500X-0.150000X0.512500X-0.150000X0.512500X0.150000X-0.512500X0.150000X0*%
%ADD21RoundRect,0.135000X-0.185000X0.135000X-0.185000X-0.135000X0.185000X-0.135000X0.185000X0.135000X0*%
%ADD22RoundRect,0.250000X0.625000X-0.375000X0.625000X0.375000X-0.625000X0.375000X-0.625000X-0.375000X0*%
%ADD23C,1.600200*%
G04 APERTURE END LIST*
D10*
X114808000Y-103759000D02*
X116713000Y-104140000D01*
X112141000Y-112141000D02*
X112395000Y-112395000D01*
X120523000Y-114046000D02*
X121031000Y-113538000D01*
X118999000Y-107569000D02*
X118618000Y-107442000D01*
X112395000Y-112395000D02*
X112395000Y-111887000D01*
X120396000Y-105410000D02*
X120142000Y-105156000D01*
X118999000Y-107569000D02*
X118999000Y-107950000D01*
X113411000Y-106045000D02*
X113157000Y-105537000D01*
X120523000Y-114046000D02*
X121031000Y-114427000D01*
X123444000Y-112649000D02*
X121412000Y-114046000D01*
X121285000Y-103505000D02*
X121285000Y-102616000D01*
X118491000Y-108331000D02*
X118491000Y-107950000D01*
X118491000Y-107950000D02*
X118999000Y-107569000D01*
X112141000Y-110109000D02*
X112141000Y-112141000D01*
X121412000Y-114046000D02*
X120523000Y-114046000D01*
X112649000Y-104140000D02*
X113030000Y-104140000D01*
X112649000Y-106045000D02*
X113411000Y-106045000D01*
X113411000Y-106045000D02*
X113030000Y-106553000D01*
X120396000Y-104902000D02*
X120904000Y-104902000D01*
X116713000Y-104140000D02*
X116078000Y-104394000D01*
X112395000Y-112395000D02*
X111887000Y-112395000D01*
X112649000Y-104140000D02*
X112649000Y-106045000D01*
X120396000Y-105156000D02*
X120396000Y-105410000D01*
X120396000Y-105156000D02*
X120396000Y-104902000D01*
X121285000Y-103505000D02*
X122174000Y-103505000D01*
X122428000Y-102362000D02*
X121285000Y-103505000D01*
X116713000Y-104140000D02*
X116332000Y-103632000D01*
X120396000Y-105410000D02*
X120650000Y-105156000D01*
X114641333Y-103451819D02*
X114308000Y-102975628D01*
X114069905Y-103451819D02*
X114069905Y-102451819D01*
X114069905Y-102451819D02*
X114450857Y-102451819D01*
X114450857Y-102451819D02*
X114546095Y-102499438D01*
X114546095Y-102499438D02*
X114593714Y-102547057D01*
X114593714Y-102547057D02*
X114641333Y-102642295D01*
X114641333Y-102642295D02*
X114641333Y-102785152D01*
X114641333Y-102785152D02*
X114593714Y-102880390D01*
X114593714Y-102880390D02*
X114546095Y-102928009D01*
X114546095Y-102928009D02*
X114450857Y-102975628D01*
X114450857Y-102975628D02*
X114069905Y-102975628D01*
X115498476Y-102451819D02*
X115308000Y-102451819D01*
X115308000Y-102451819D02*
X115212762Y-102499438D01*
X115212762Y-102499438D02*
X115165143Y-102547057D01*
X115165143Y-102547057D02*
X115069905Y-102689914D01*
X115069905Y-102689914D02*
X115022286Y-102880390D01*
X115022286Y-102880390D02*
X115022286Y-103261342D01*
X115022286Y-103261342D02*
X115069905Y-103356580D01*
X115069905Y-103356580D02*
X115117524Y-103404200D01*
X115117524Y-103404200D02*
X115212762Y-103451819D01*
X115212762Y-103451819D02*
X115403238Y-103451819D01*
X115403238Y-103451819D02*
X115498476Y-103404200D01*
X115498476Y-103404200D02*
X115546095Y-103356580D01*
X115546095Y-103356580D02*
X115593714Y-103261342D01*
X115593714Y-103261342D02*
X115593714Y-103023247D01*
X115593714Y-103023247D02*
X115546095Y-102928009D01*
X115546095Y-102928009D02*
X115498476Y-102880390D01*
X115498476Y-102880390D02*
X115403238Y-102832771D01*
X115403238Y-102832771D02*
X115212762Y-102832771D01*
X115212762Y-102832771D02*
X115117524Y-102880390D01*
X115117524Y-102880390D02*
X115069905Y-102928009D01*
X115069905Y-102928009D02*
X115022286Y-103023247D01*
X112976819Y-108958000D02*
X112500628Y-109291333D01*
X112976819Y-109529428D02*
X111976819Y-109529428D01*
X111976819Y-109529428D02*
X111976819Y-109148476D01*
X111976819Y-109148476D02*
X112024438Y-109053238D01*
X112024438Y-109053238D02*
X112072057Y-109005619D01*
X112072057Y-109005619D02*
X112167295Y-108958000D01*
X112167295Y-108958000D02*
X112310152Y-108958000D01*
X112310152Y-108958000D02*
X112405390Y-109005619D01*
X112405390Y-109005619D02*
X112453009Y-109053238D01*
X112453009Y-109053238D02*
X112500628Y-109148476D01*
X112500628Y-109148476D02*
X112500628Y-109529428D01*
X112691104Y-108577047D02*
X112691104Y-108100857D01*
X112976819Y-108672285D02*
X111976819Y-108338952D01*
X111976819Y-108338952D02*
X112976819Y-108005619D01*
X111976819Y-107815142D02*
X111976819Y-107243714D01*
X112976819Y-107529428D02*
X111976819Y-107529428D01*
X123531333Y-102689819D02*
X123198000Y-102213628D01*
X122959905Y-102689819D02*
X122959905Y-101689819D01*
X122959905Y-101689819D02*
X123340857Y-101689819D01*
X123340857Y-101689819D02*
X123436095Y-101737438D01*
X123436095Y-101737438D02*
X123483714Y-101785057D01*
X123483714Y-101785057D02*
X123531333Y-101880295D01*
X123531333Y-101880295D02*
X123531333Y-102023152D01*
X123531333Y-102023152D02*
X123483714Y-102118390D01*
X123483714Y-102118390D02*
X123436095Y-102166009D01*
X123436095Y-102166009D02*
X123340857Y-102213628D01*
X123340857Y-102213628D02*
X122959905Y-102213628D01*
X123912286Y-101785057D02*
X123959905Y-101737438D01*
X123959905Y-101737438D02*
X124055143Y-101689819D01*
X124055143Y-101689819D02*
X124293238Y-101689819D01*
X124293238Y-101689819D02*
X124388476Y-101737438D01*
X124388476Y-101737438D02*
X124436095Y-101785057D01*
X124436095Y-101785057D02*
X124483714Y-101880295D01*
X124483714Y-101880295D02*
X124483714Y-101975533D01*
X124483714Y-101975533D02*
X124436095Y-102118390D01*
X124436095Y-102118390D02*
X123864667Y-102689819D01*
X123864667Y-102689819D02*
X124483714Y-102689819D01*
X118850580Y-109640666D02*
X118898200Y-109688285D01*
X118898200Y-109688285D02*
X118945819Y-109831142D01*
X118945819Y-109831142D02*
X118945819Y-109926380D01*
X118945819Y-109926380D02*
X118898200Y-110069237D01*
X118898200Y-110069237D02*
X118802961Y-110164475D01*
X118802961Y-110164475D02*
X118707723Y-110212094D01*
X118707723Y-110212094D02*
X118517247Y-110259713D01*
X118517247Y-110259713D02*
X118374390Y-110259713D01*
X118374390Y-110259713D02*
X118183914Y-110212094D01*
X118183914Y-110212094D02*
X118088676Y-110164475D01*
X118088676Y-110164475D02*
X117993438Y-110069237D01*
X117993438Y-110069237D02*
X117945819Y-109926380D01*
X117945819Y-109926380D02*
X117945819Y-109831142D01*
X117945819Y-109831142D02*
X117993438Y-109688285D01*
X117993438Y-109688285D02*
X118041057Y-109640666D01*
X117945819Y-109307332D02*
X117945819Y-108688285D01*
X117945819Y-108688285D02*
X118326771Y-109021618D01*
X118326771Y-109021618D02*
X118326771Y-108878761D01*
X118326771Y-108878761D02*
X118374390Y-108783523D01*
X118374390Y-108783523D02*
X118422009Y-108735904D01*
X118422009Y-108735904D02*
X118517247Y-108688285D01*
X118517247Y-108688285D02*
X118755342Y-108688285D01*
X118755342Y-108688285D02*
X118850580Y-108735904D01*
X118850580Y-108735904D02*
X118898200Y-108783523D01*
X118898200Y-108783523D02*
X118945819Y-108878761D01*
X118945819Y-108878761D02*
X118945819Y-109164475D01*
X118945819Y-109164475D02*
X118898200Y-109259713D01*
X118898200Y-109259713D02*
X118850580Y-109307332D01*
X121753333Y-105515580D02*
X121705714Y-105563200D01*
X121705714Y-105563200D02*
X121562857Y-105610819D01*
X121562857Y-105610819D02*
X121467619Y-105610819D01*
X121467619Y-105610819D02*
X121324762Y-105563200D01*
X121324762Y-105563200D02*
X121229524Y-105467961D01*
X121229524Y-105467961D02*
X121181905Y-105372723D01*
X121181905Y-105372723D02*
X121134286Y-105182247D01*
X121134286Y-105182247D02*
X121134286Y-105039390D01*
X121134286Y-105039390D02*
X121181905Y-104848914D01*
X121181905Y-104848914D02*
X121229524Y-104753676D01*
X121229524Y-104753676D02*
X121324762Y-104658438D01*
X121324762Y-104658438D02*
X121467619Y-104610819D01*
X121467619Y-104610819D02*
X121562857Y-104610819D01*
X121562857Y-104610819D02*
X121705714Y-104658438D01*
X121705714Y-104658438D02*
X121753333Y-104706057D01*
X122610476Y-104944152D02*
X122610476Y-105610819D01*
X122372381Y-104563200D02*
X122134286Y-105277485D01*
X122134286Y-105277485D02*
X122753333Y-105277485D01*
X115347761Y-111040057D02*
X115252523Y-110992438D01*
X115252523Y-110992438D02*
X115157285Y-110897200D01*
X115157285Y-110897200D02*
X115014428Y-110754342D01*
X115014428Y-110754342D02*
X114919190Y-110706723D01*
X114919190Y-110706723D02*
X114823952Y-110706723D01*
X114871571Y-110944819D02*
X114776333Y-110897200D01*
X114776333Y-110897200D02*
X114681095Y-110801961D01*
X114681095Y-110801961D02*
X114633476Y-110611485D01*
X114633476Y-110611485D02*
X114633476Y-110278152D01*
X114633476Y-110278152D02*
X114681095Y-110087676D01*
X114681095Y-110087676D02*
X114776333Y-109992438D01*
X114776333Y-109992438D02*
X114871571Y-109944819D01*
X114871571Y-109944819D02*
X115062047Y-109944819D01*
X115062047Y-109944819D02*
X115157285Y-109992438D01*
X115157285Y-109992438D02*
X115252523Y-110087676D01*
X115252523Y-110087676D02*
X115300142Y-110278152D01*
X115300142Y-110278152D02*
X115300142Y-110611485D01*
X115300142Y-110611485D02*
X115252523Y-110801961D01*
X115252523Y-110801961D02*
X115157285Y-110897200D01*
X115157285Y-110897200D02*
X115062047Y-110944819D01*
X115062047Y-110944819D02*
X114871571Y-110944819D01*
X116252523Y-110944819D02*
X115681095Y-110944819D01*
X115966809Y-110944819D02*
X115966809Y-109944819D01*
X115966809Y-109944819D02*
X115871571Y-110087676D01*
X115871571Y-110087676D02*
X115776333Y-110182914D01*
X115776333Y-110182914D02*
X115681095Y-110230533D01*
X114770819Y-114665047D02*
X114770819Y-114474571D01*
X114770819Y-114474571D02*
X114818438Y-114379333D01*
X114818438Y-114379333D02*
X114913676Y-114284095D01*
X114913676Y-114284095D02*
X115104152Y-114236476D01*
X115104152Y-114236476D02*
X115437485Y-114236476D01*
X115437485Y-114236476D02*
X115627961Y-114284095D01*
X115627961Y-114284095D02*
X115723200Y-114379333D01*
X115723200Y-114379333D02*
X115770819Y-114474571D01*
X115770819Y-114474571D02*
X115770819Y-114665047D01*
X115770819Y-114665047D02*
X115723200Y-114760285D01*
X115723200Y-114760285D02*
X115627961Y-114855523D01*
X115627961Y-114855523D02*
X115437485Y-114903142D01*
X115437485Y-114903142D02*
X115104152Y-114903142D01*
X115104152Y-114903142D02*
X114913676Y-114855523D01*
X114913676Y-114855523D02*
X114818438Y-114760285D01*
X114818438Y-114760285D02*
X114770819Y-114665047D01*
X115770819Y-113807904D02*
X114770819Y-113807904D01*
X114770819Y-113807904D02*
X115770819Y-113236476D01*
X115770819Y-113236476D02*
X114770819Y-113236476D01*
X114373819Y-104433666D02*
X113897628Y-104766999D01*
X114373819Y-105005094D02*
X113373819Y-105005094D01*
X113373819Y-105005094D02*
X113373819Y-104624142D01*
X113373819Y-104624142D02*
X113421438Y-104528904D01*
X113421438Y-104528904D02*
X113469057Y-104481285D01*
X113469057Y-104481285D02*
X113564295Y-104433666D01*
X113564295Y-104433666D02*
X113707152Y-104433666D01*
X113707152Y-104433666D02*
X113802390Y-104481285D01*
X113802390Y-104481285D02*
X113850009Y-104528904D01*
X113850009Y-104528904D02*
X113897628Y-104624142D01*
X113897628Y-104624142D02*
X113897628Y-105005094D01*
X113373819Y-104100332D02*
X113373819Y-103433666D01*
X113373819Y-103433666D02*
X114373819Y-103862237D01*
X123200438Y-111759904D02*
X123152819Y-111855142D01*
X123152819Y-111855142D02*
X123152819Y-111997999D01*
X123152819Y-111997999D02*
X123200438Y-112140856D01*
X123200438Y-112140856D02*
X123295676Y-112236094D01*
X123295676Y-112236094D02*
X123390914Y-112283713D01*
X123390914Y-112283713D02*
X123581390Y-112331332D01*
X123581390Y-112331332D02*
X123724247Y-112331332D01*
X123724247Y-112331332D02*
X123914723Y-112283713D01*
X123914723Y-112283713D02*
X124009961Y-112236094D01*
X124009961Y-112236094D02*
X124105200Y-112140856D01*
X124105200Y-112140856D02*
X124152819Y-111997999D01*
X124152819Y-111997999D02*
X124152819Y-111902761D01*
X124152819Y-111902761D02*
X124105200Y-111759904D01*
X124105200Y-111759904D02*
X124057580Y-111712285D01*
X124057580Y-111712285D02*
X123724247Y-111712285D01*
X123724247Y-111712285D02*
X123724247Y-111902761D01*
X124152819Y-111283713D02*
X123152819Y-111283713D01*
X123152819Y-111283713D02*
X124152819Y-110712285D01*
X124152819Y-110712285D02*
X123152819Y-110712285D01*
X124152819Y-110236094D02*
X123152819Y-110236094D01*
X123152819Y-110236094D02*
X123152819Y-109997999D01*
X123152819Y-109997999D02*
X123200438Y-109855142D01*
X123200438Y-109855142D02*
X123295676Y-109759904D01*
X123295676Y-109759904D02*
X123390914Y-109712285D01*
X123390914Y-109712285D02*
X123581390Y-109664666D01*
X123581390Y-109664666D02*
X123724247Y-109664666D01*
X123724247Y-109664666D02*
X123914723Y-109712285D01*
X123914723Y-109712285D02*
X124009961Y-109759904D01*
X124009961Y-109759904D02*
X124105200Y-109855142D01*
X124105200Y-109855142D02*
X124152819Y-109997999D01*
X124152819Y-109997999D02*
X124152819Y-110236094D01*
X121062761Y-111040057D02*
X120967523Y-110992438D01*
X120967523Y-110992438D02*
X120872285Y-110897200D01*
X120872285Y-110897200D02*
X120729428Y-110754342D01*
X120729428Y-110754342D02*
X120634190Y-110706723D01*
X120634190Y-110706723D02*
X120538952Y-110706723D01*
X120586571Y-110944819D02*
X120491333Y-110897200D01*
X120491333Y-110897200D02*
X120396095Y-110801961D01*
X120396095Y-110801961D02*
X120348476Y-110611485D01*
X120348476Y-110611485D02*
X120348476Y-110278152D01*
X120348476Y-110278152D02*
X120396095Y-110087676D01*
X120396095Y-110087676D02*
X120491333Y-109992438D01*
X120491333Y-109992438D02*
X120586571Y-109944819D01*
X120586571Y-109944819D02*
X120777047Y-109944819D01*
X120777047Y-109944819D02*
X120872285Y-109992438D01*
X120872285Y-109992438D02*
X120967523Y-110087676D01*
X120967523Y-110087676D02*
X121015142Y-110278152D01*
X121015142Y-110278152D02*
X121015142Y-110611485D01*
X121015142Y-110611485D02*
X120967523Y-110801961D01*
X120967523Y-110801961D02*
X120872285Y-110897200D01*
X120872285Y-110897200D02*
X120777047Y-110944819D01*
X120777047Y-110944819D02*
X120586571Y-110944819D01*
X121396095Y-110040057D02*
X121443714Y-109992438D01*
X121443714Y-109992438D02*
X121538952Y-109944819D01*
X121538952Y-109944819D02*
X121777047Y-109944819D01*
X121777047Y-109944819D02*
X121872285Y-109992438D01*
X121872285Y-109992438D02*
X121919904Y-110040057D01*
X121919904Y-110040057D02*
X121967523Y-110135295D01*
X121967523Y-110135295D02*
X121967523Y-110230533D01*
X121967523Y-110230533D02*
X121919904Y-110373390D01*
X121919904Y-110373390D02*
X121348476Y-110944819D01*
X121348476Y-110944819D02*
X121967523Y-110944819D01*
X119380048Y-101800866D02*
X120141953Y-101800866D01*
X119761000Y-102181819D02*
X119761000Y-101419914D01*
D11*
%TO.C,R6*%
X117829359Y-104141000D02*
X118136641Y-104141000D01*
X117829359Y-104901000D02*
X118136641Y-104901000D01*
%TO.C,R2*%
X120803641Y-104520000D02*
X120496359Y-104520000D01*
X120803641Y-103760000D02*
X120496359Y-103760000D01*
%TO.C,C3*%
X120034164Y-107082000D02*
X120249836Y-107082000D01*
X120034164Y-107802000D02*
X120249836Y-107802000D01*
%TO.C,C4*%
X120122836Y-106405000D02*
X119907164Y-106405000D01*
X120122836Y-105685000D02*
X119907164Y-105685000D01*
%TO.C,Q1*%
X116578000Y-108202000D02*
X114308000Y-108202000D01*
X114308000Y-108202000D02*
X114308000Y-112087000D01*
X116578000Y-112087000D02*
X116578000Y-108202000D01*
%TO.C,Q3*%
X116972500Y-104739000D02*
X115172500Y-104739000D01*
X116972500Y-104739000D02*
X117772500Y-104739000D01*
X116972500Y-107859000D02*
X116172500Y-107859000D01*
X116972500Y-107859000D02*
X117772500Y-107859000D01*
%TO.C,R7*%
X114553000Y-106018359D02*
X114553000Y-106325641D01*
X113793000Y-106018359D02*
X113793000Y-106325641D01*
%TO.C,Q2*%
X119769000Y-112775000D02*
X122039000Y-112775000D01*
X122039000Y-112775000D02*
X122039000Y-108890000D01*
X119769000Y-108890000D02*
X119769000Y-112775000D01*
D12*
%TO.C,+*%
X115938300Y-110239827D02*
X115938300Y-111987005D01*
X115938300Y-111987005D02*
X117000137Y-111987005D01*
X119219863Y-111987005D02*
X120281700Y-111987005D01*
X120281700Y-111987005D02*
X120281700Y-110239827D01*
%TD*%
%LPC*%
D13*
%TO.C,R6*%
X117473000Y-104521000D03*
X118493000Y-104521000D03*
%TD*%
D14*
%TO.C,RAT*%
X113284000Y-113284000D03*
D15*
X113284000Y-113284000D03*
%TD*%
D16*
%TO.C,R2*%
X121160000Y-104140000D03*
X120140000Y-104140000D03*
%TD*%
D17*
%TO.C,C3*%
X119662000Y-107442000D03*
X120622000Y-107442000D03*
%TD*%
D18*
%TO.C,C4*%
X120495000Y-106045000D03*
X119535000Y-106045000D03*
%TD*%
D19*
%TO.C,Q1*%
X115443000Y-109087000D03*
X115443000Y-111887000D03*
%TD*%
D14*
%TO.C,ON*%
X116840000Y-113792000D03*
D15*
X116840000Y-113792000D03*
%TD*%
D20*
%TO.C,Q3*%
X115835000Y-105349000D03*
X115835000Y-107249000D03*
X118110000Y-106299000D03*
%TD*%
D21*
%TO.C,R7*%
X114173000Y-105662000D03*
X114173000Y-106682000D03*
%TD*%
D14*
%TO.C,GND*%
X119380000Y-113792000D03*
D15*
X119380000Y-113792000D03*
%TD*%
D22*
%TO.C,Q2*%
X120904000Y-111890000D03*
X120904000Y-109090000D03*
%TD*%
D23*
%TO.C,+*%
X118110000Y-101760000D03*
X118110000Y-111760000D03*
%TD*%
%LPD*%
M02*
