%TF.GenerationSoftware,KiCad,Pcbnew,7.0.7*%
%TF.CreationDate,2023-12-15T10:31:17-05:00*%
%TF.ProjectId,Original Circle FES Device,4f726967-696e-4616-9c20-436972636c65,rev?*%
%TF.SameCoordinates,Original*%
%TF.FileFunction,Drillmap*%
%TF.FilePolarity,Positive*%
%FSLAX45Y45*%
G04 Gerber Fmt 4.5, Leading zero omitted, Abs format (unit mm)*
G04 Created by KiCad (PCBNEW 7.0.7) date 2023-12-15 10:31:17*
%MOMM*%
%LPD*%
G01*
G04 APERTURE LIST*
%ADD10C,0.100000*%
%ADD11C,0.200000*%
G04 APERTURE END LIST*
D10*
X12496800Y-10033000D02*
G75*
G03*
X12369800Y-9906000I-127000J0D01*
G01*
X12369800Y-9906000D02*
X11239500Y-9906000D01*
X11239500Y-9906000D02*
G75*
G03*
X11125200Y-10020300I0J-114300D01*
G01*
X12128500Y-11557000D02*
G75*
G03*
X12496800Y-11163300I-12700J381000D01*
G01*
X12496800Y-10033000D02*
X12496800Y-11163300D01*
X11125200Y-11379200D02*
X11125200Y-10020300D01*
X12128500Y-11557000D02*
X11303000Y-11557000D01*
X11125200Y-11379200D02*
G75*
G03*
X11303000Y-11557000I177800J0D01*
G01*
D11*
X11380977Y-11873484D02*
X11380977Y-11673484D01*
X11380977Y-11673484D02*
X11428596Y-11673484D01*
X11428596Y-11673484D02*
X11457167Y-11683008D01*
X11457167Y-11683008D02*
X11476215Y-11702055D01*
X11476215Y-11702055D02*
X11485739Y-11721103D01*
X11485739Y-11721103D02*
X11495262Y-11759198D01*
X11495262Y-11759198D02*
X11495262Y-11787769D01*
X11495262Y-11787769D02*
X11485739Y-11825865D01*
X11485739Y-11825865D02*
X11476215Y-11844912D01*
X11476215Y-11844912D02*
X11457167Y-11863960D01*
X11457167Y-11863960D02*
X11428596Y-11873484D01*
X11428596Y-11873484D02*
X11380977Y-11873484D01*
X11580977Y-11873484D02*
X11580977Y-11740150D01*
X11580977Y-11778246D02*
X11590501Y-11759198D01*
X11590501Y-11759198D02*
X11600024Y-11749674D01*
X11600024Y-11749674D02*
X11619072Y-11740150D01*
X11619072Y-11740150D02*
X11638120Y-11740150D01*
X11704786Y-11873484D02*
X11704786Y-11740150D01*
X11704786Y-11673484D02*
X11695262Y-11683008D01*
X11695262Y-11683008D02*
X11704786Y-11692531D01*
X11704786Y-11692531D02*
X11714310Y-11683008D01*
X11714310Y-11683008D02*
X11704786Y-11673484D01*
X11704786Y-11673484D02*
X11704786Y-11692531D01*
X11828596Y-11873484D02*
X11809548Y-11863960D01*
X11809548Y-11863960D02*
X11800024Y-11844912D01*
X11800024Y-11844912D02*
X11800024Y-11673484D01*
X11933358Y-11873484D02*
X11914310Y-11863960D01*
X11914310Y-11863960D02*
X11904786Y-11844912D01*
X11904786Y-11844912D02*
X11904786Y-11673484D01*
X12161929Y-11873484D02*
X12161929Y-11673484D01*
X12161929Y-11673484D02*
X12228596Y-11816341D01*
X12228596Y-11816341D02*
X12295262Y-11673484D01*
X12295262Y-11673484D02*
X12295262Y-11873484D01*
X12476215Y-11873484D02*
X12476215Y-11768722D01*
X12476215Y-11768722D02*
X12466691Y-11749674D01*
X12466691Y-11749674D02*
X12447643Y-11740150D01*
X12447643Y-11740150D02*
X12409548Y-11740150D01*
X12409548Y-11740150D02*
X12390501Y-11749674D01*
X12476215Y-11863960D02*
X12457167Y-11873484D01*
X12457167Y-11873484D02*
X12409548Y-11873484D01*
X12409548Y-11873484D02*
X12390501Y-11863960D01*
X12390501Y-11863960D02*
X12380977Y-11844912D01*
X12380977Y-11844912D02*
X12380977Y-11825865D01*
X12380977Y-11825865D02*
X12390501Y-11806817D01*
X12390501Y-11806817D02*
X12409548Y-11797293D01*
X12409548Y-11797293D02*
X12457167Y-11797293D01*
X12457167Y-11797293D02*
X12476215Y-11787769D01*
X12571453Y-11740150D02*
X12571453Y-11940150D01*
X12571453Y-11749674D02*
X12590501Y-11740150D01*
X12590501Y-11740150D02*
X12628596Y-11740150D01*
X12628596Y-11740150D02*
X12647643Y-11749674D01*
X12647643Y-11749674D02*
X12657167Y-11759198D01*
X12657167Y-11759198D02*
X12666691Y-11778246D01*
X12666691Y-11778246D02*
X12666691Y-11835388D01*
X12666691Y-11835388D02*
X12657167Y-11854436D01*
X12657167Y-11854436D02*
X12647643Y-11863960D01*
X12647643Y-11863960D02*
X12628596Y-11873484D01*
X12628596Y-11873484D02*
X12590501Y-11873484D01*
X12590501Y-11873484D02*
X12571453Y-11863960D01*
X12752405Y-11854436D02*
X12761929Y-11863960D01*
X12761929Y-11863960D02*
X12752405Y-11873484D01*
X12752405Y-11873484D02*
X12742882Y-11863960D01*
X12742882Y-11863960D02*
X12752405Y-11854436D01*
X12752405Y-11854436D02*
X12752405Y-11873484D01*
X12752405Y-11749674D02*
X12761929Y-11759198D01*
X12761929Y-11759198D02*
X12752405Y-11768722D01*
X12752405Y-11768722D02*
X12742882Y-11759198D01*
X12742882Y-11759198D02*
X12752405Y-11749674D01*
X12752405Y-11749674D02*
X12752405Y-11768722D01*
M02*
