%TF.GenerationSoftware,KiCad,Pcbnew,7.0.7*%
%TF.CreationDate,2023-12-15T10:30:33-05:00*%
%TF.ProjectId,Original Circle FES Device,4f726967-696e-4616-9c20-436972636c65,rev?*%
%TF.SameCoordinates,Original*%
%TF.FileFunction,Copper,L2,Bot*%
%TF.FilePolarity,Positive*%
%FSLAX46Y46*%
G04 Gerber Fmt 4.6, Leading zero omitted, Abs format (unit mm)*
G04 Created by KiCad (PCBNEW 7.0.7) date 2023-12-15 10:30:33*
%MOMM*%
%LPD*%
G01*
G04 APERTURE LIST*
G04 Aperture macros list*
%AMRoundRect*
0 Rectangle with rounded corners*
0 $1 Rounding radius*
0 $2 $3 $4 $5 $6 $7 $8 $9 X,Y pos of 4 corners*
0 Add a 4 corners polygon primitive as box body*
4,1,4,$2,$3,$4,$5,$6,$7,$8,$9,$2,$3,0*
0 Add four circle primitives for the rounded corners*
1,1,$1+$1,$2,$3*
1,1,$1+$1,$4,$5*
1,1,$1+$1,$6,$7*
1,1,$1+$1,$8,$9*
0 Add four rect primitives between the rounded corners*
20,1,$1+$1,$2,$3,$4,$5,0*
20,1,$1+$1,$4,$5,$6,$7,0*
20,1,$1+$1,$6,$7,$8,$9,0*
20,1,$1+$1,$8,$9,$2,$3,0*%
G04 Aperture macros list end*
%TA.AperFunction,ComponentPad*%
%ADD10C,1.200000*%
%TD*%
%TA.AperFunction,ConnectorPad*%
%ADD11C,1.500000*%
%TD*%
%TA.AperFunction,ComponentPad*%
%ADD12C,1.600200*%
%TD*%
%TA.AperFunction,SMDPad,CuDef*%
%ADD13RoundRect,0.140000X0.140000X0.170000X-0.140000X0.170000X-0.140000X-0.170000X0.140000X-0.170000X0*%
%TD*%
%TA.AperFunction,SMDPad,CuDef*%
%ADD14RoundRect,0.140000X-0.140000X-0.170000X0.140000X-0.170000X0.140000X0.170000X-0.140000X0.170000X0*%
%TD*%
%TA.AperFunction,SMDPad,CuDef*%
%ADD15RoundRect,0.135000X-0.185000X0.135000X-0.185000X-0.135000X0.185000X-0.135000X0.185000X0.135000X0*%
%TD*%
%TA.AperFunction,SMDPad,CuDef*%
%ADD16R,0.558800X2.286000*%
%TD*%
%TA.AperFunction,SMDPad,CuDef*%
%ADD17RoundRect,0.135000X0.185000X-0.135000X0.185000X0.135000X-0.185000X0.135000X-0.185000X-0.135000X0*%
%TD*%
%TA.AperFunction,SMDPad,CuDef*%
%ADD18RoundRect,0.135000X0.135000X0.185000X-0.135000X0.185000X-0.135000X-0.185000X0.135000X-0.185000X0*%
%TD*%
%TA.AperFunction,ViaPad*%
%ADD19C,0.800000*%
%TD*%
%TA.AperFunction,Conductor*%
%ADD20C,0.250000*%
%TD*%
G04 APERTURE END LIST*
D10*
%TO.P,RAT,1,1*%
%TO.N,Net-(Q3-C)*%
X113284000Y-113284000D03*
D11*
X113284000Y-113284000D03*
%TD*%
D10*
%TO.P,ON,1,1*%
%TO.N,Net-(R1-Pad1)*%
X116840000Y-113792000D03*
D11*
X116840000Y-113792000D03*
%TD*%
D10*
%TO.P,GND,1,1*%
%TO.N,0*%
X119380000Y-113792000D03*
D11*
X119380000Y-113792000D03*
%TD*%
D12*
%TO.P,+,1,+*%
%TO.N,+3.3V*%
X118110000Y-101760000D03*
%TO.P,+,2,-*%
%TO.N,0*%
X118110000Y-111760000D03*
%TD*%
D13*
%TO.P,C2,1*%
%TO.N,Net-(Q2-E)*%
X122527000Y-102235000D03*
%TO.P,C2,2*%
%TO.N,Net-(C2-Pad2)*%
X121567000Y-102235000D03*
%TD*%
D14*
%TO.P,C1,1*%
%TO.N,Net-(Q1-C)*%
X113058000Y-102260400D03*
%TO.P,C1,2*%
%TO.N,Net-(C1-Pad2)*%
X114018000Y-102260400D03*
%TD*%
D15*
%TO.P,R4,1*%
%TO.N,+3.3V*%
X120650000Y-101344000D03*
%TO.P,R4,2*%
%TO.N,Net-(C2-Pad2)*%
X120650000Y-102364000D03*
%TD*%
D16*
%TO.P,U1,1*%
%TO.N,Net-(C1-Pad2)*%
X114300000Y-104317800D03*
%TO.P,U1,2*%
%TO.N,Net-(R1-Pad1)*%
X115570000Y-104317800D03*
%TO.P,U1,3*%
%TO.N,Net-(R2-Pad2)*%
X116840000Y-104317800D03*
%TO.P,U1,4*%
%TO.N,Net-(R1-Pad1)*%
X118110000Y-104317800D03*
%TO.P,U1,5*%
%TO.N,Net-(R2-Pad2)*%
X119380000Y-104317800D03*
%TO.P,U1,6*%
%TO.N,Net-(C2-Pad2)*%
X120650000Y-104317800D03*
%TO.P,U1,7,GND*%
%TO.N,0*%
X121920000Y-104317800D03*
%TO.P,U1,8*%
%TO.N,Net-(C3-Pad2)*%
X121920000Y-109347000D03*
%TO.P,U1,9*%
%TO.N,+3.3V*%
X120650000Y-109347000D03*
%TO.P,U1,10*%
%TO.N,Net-(R5-Pad2)*%
X119380000Y-109347000D03*
%TO.P,U1,11*%
%TO.N,Net-(C4-Pad1)*%
X118110000Y-109347000D03*
%TO.P,U1,12*%
%TO.N,Net-(R5-Pad2)*%
X116840000Y-109347000D03*
%TO.P,U1,13*%
%TO.N,Net-(R1-Pad1)*%
X115570000Y-109347000D03*
%TO.P,U1,14,VCC*%
%TO.N,+3.3V*%
X114300000Y-109347000D03*
%TD*%
D17*
%TO.P,R1,1*%
%TO.N,Net-(R1-Pad1)*%
X112649000Y-104269000D03*
%TO.P,R1,2*%
%TO.N,Net-(Q1-C)*%
X112649000Y-103249000D03*
%TD*%
%TO.P,R3,1*%
%TO.N,Net-(C1-Pad2)*%
X115570000Y-102237000D03*
%TO.P,R3,2*%
%TO.N,+3.3V*%
X115570000Y-101217000D03*
%TD*%
D18*
%TO.P,R5,1*%
%TO.N,Net-(C3-Pad2)*%
X121160000Y-111379000D03*
%TO.P,R5,2*%
%TO.N,Net-(R5-Pad2)*%
X120140000Y-111379000D03*
%TD*%
D19*
%TO.N,Net-(Q1-C)*%
X113168877Y-101317530D03*
%TO.N,Net-(Q2-E)*%
X122936000Y-103505000D03*
%TO.N,0*%
X117602000Y-107569000D03*
%TO.N,Net-(C3-Pad2)*%
X122936000Y-107823000D03*
%TO.N,Net-(C4-Pad1)*%
X121322000Y-106680000D03*
%TO.N,Net-(R2-Pad2)*%
X116586000Y-100203000D03*
%TO.N,+3.3V*%
X113284000Y-111125000D03*
X114300000Y-100838000D03*
X122047000Y-100838000D03*
%TD*%
D20*
%TO.N,Net-(Q1-C)*%
X113058000Y-102260400D02*
X113058000Y-101428407D01*
X113058000Y-101428407D02*
X113168877Y-101317530D01*
X113058000Y-102840000D02*
X112649000Y-103249000D01*
X113058000Y-102260400D02*
X113058000Y-102840000D01*
%TO.N,Net-(C1-Pad2)*%
X114046000Y-102232400D02*
X114018000Y-102260400D01*
X114300000Y-104317800D02*
X114300000Y-102542400D01*
X114300000Y-104317800D02*
X114300000Y-103507000D01*
X114300000Y-102542400D02*
X114018000Y-102260400D01*
X114300000Y-103507000D02*
X115570000Y-102237000D01*
%TO.N,Net-(Q2-E)*%
X122936000Y-103505000D02*
X122936000Y-102644000D01*
X122936000Y-102644000D02*
X122527000Y-102235000D01*
%TO.N,Net-(C2-Pad2)*%
X120650000Y-102364000D02*
X121438000Y-102364000D01*
X121438000Y-102364000D02*
X121567000Y-102235000D01*
X120650000Y-104317800D02*
X120650000Y-102364000D01*
%TO.N,0*%
X117602000Y-107569000D02*
X119385200Y-105785800D01*
X121254400Y-105785800D02*
X121920000Y-105120200D01*
X121920000Y-105120200D02*
X121920000Y-104317800D01*
X119385200Y-105785800D02*
X121254400Y-105785800D01*
%TO.N,Net-(C3-Pad2)*%
X121920000Y-110619000D02*
X121160000Y-111379000D01*
X122936000Y-107823000D02*
X122936000Y-108331000D01*
X121920000Y-109347000D02*
X121920000Y-110619000D01*
X122936000Y-108331000D02*
X121920000Y-109347000D01*
%TO.N,Net-(C4-Pad1)*%
X118110000Y-108483400D02*
X119405400Y-107188000D01*
X118110000Y-109347000D02*
X118110000Y-108483400D01*
X119405400Y-107188000D02*
X119405400Y-107162600D01*
X119405400Y-107162600D02*
X119761000Y-106807000D01*
X119761000Y-106807000D02*
X121195000Y-106807000D01*
X121195000Y-106807000D02*
X121322000Y-106680000D01*
%TO.N,Net-(R1-Pad1)*%
X118110000Y-105943400D02*
X118110000Y-104317800D01*
X117856000Y-106197400D02*
X118110000Y-105943400D01*
X115570000Y-107721400D02*
X115570000Y-109347000D01*
X115062000Y-106197400D02*
X115570000Y-105689400D01*
X115570000Y-112522000D02*
X115570000Y-109347000D01*
X116840000Y-113792000D02*
X115570000Y-112522000D01*
X115570000Y-105689400D02*
X115570000Y-104317800D01*
X113690400Y-106705400D02*
X114554000Y-106705400D01*
X115062000Y-106197400D02*
X117856000Y-106197400D01*
X112649000Y-105664000D02*
X113690400Y-106705400D01*
X114554000Y-106705400D02*
X115062000Y-106197400D01*
X112649000Y-104269000D02*
X112649000Y-105664000D01*
X114554000Y-106705400D02*
X115570000Y-107721400D01*
%TO.N,Net-(R2-Pad2)*%
X117212068Y-100203000D02*
X116586000Y-100203000D01*
X116840000Y-101438868D02*
X117643968Y-100634900D01*
X116586000Y-100203000D02*
X116459000Y-100203000D01*
X116840000Y-104317800D02*
X116840000Y-101438868D01*
X118576032Y-100634900D02*
X119380000Y-101438868D01*
X117643968Y-100634900D02*
X118576032Y-100634900D01*
X119380000Y-101438868D02*
X119380000Y-104317800D01*
X117643968Y-100634900D02*
X117212068Y-100203000D01*
%TO.N,+3.3V*%
X114300000Y-109347000D02*
X114300000Y-110210600D01*
X121541000Y-101344000D02*
X122047000Y-100838000D01*
X114173000Y-100838000D02*
X114173000Y-100838000D01*
X114552000Y-101217000D02*
X114300000Y-100965000D01*
X114300000Y-110210600D02*
X113385600Y-111125000D01*
X117602000Y-101752400D02*
X118618000Y-101752400D01*
X123974400Y-101749400D02*
X123063000Y-100838000D01*
X114300000Y-100965000D02*
X114300000Y-100838000D01*
X120650000Y-108483400D02*
X123974400Y-105159000D01*
X115570000Y-101217000D02*
X114552000Y-101217000D01*
X120650000Y-101344000D02*
X121541000Y-101344000D01*
X113385600Y-111125000D02*
X113284000Y-111125000D01*
X123063000Y-100838000D02*
X122047000Y-100838000D01*
X123974400Y-105159000D02*
X123974400Y-101749400D01*
X114300000Y-100838000D02*
X114173000Y-100838000D01*
X120650000Y-109347000D02*
X120650000Y-108483400D01*
%TO.N,Net-(R5-Pad2)*%
X120140000Y-111379000D02*
X119380000Y-110619000D01*
X116840000Y-109347000D02*
X116840000Y-112081132D01*
X117661868Y-112903000D02*
X118616000Y-112903000D01*
X116840000Y-112081132D02*
X117661868Y-112903000D01*
X119380000Y-110619000D02*
X119380000Y-109347000D01*
X118616000Y-112903000D02*
X120140000Y-111379000D01*
%TD*%
M02*
