%TF.GenerationSoftware,KiCad,Pcbnew,7.0.7*%
%TF.CreationDate,2023-12-15T10:30:33-05:00*%
%TF.ProjectId,Original Circle FES Device,4f726967-696e-4616-9c20-436972636c65,rev?*%
%TF.SameCoordinates,Original*%
%TF.FileFunction,Legend,Bot*%
%TF.FilePolarity,Positive*%
%FSLAX46Y46*%
G04 Gerber Fmt 4.6, Leading zero omitted, Abs format (unit mm)*
G04 Created by KiCad (PCBNEW 7.0.7) date 2023-12-15 10:30:33*
%MOMM*%
%LPD*%
G01*
G04 APERTURE LIST*
G04 Aperture macros list*
%AMRoundRect*
0 Rectangle with rounded corners*
0 $1 Rounding radius*
0 $2 $3 $4 $5 $6 $7 $8 $9 X,Y pos of 4 corners*
0 Add a 4 corners polygon primitive as box body*
4,1,4,$2,$3,$4,$5,$6,$7,$8,$9,$2,$3,0*
0 Add four circle primitives for the rounded corners*
1,1,$1+$1,$2,$3*
1,1,$1+$1,$4,$5*
1,1,$1+$1,$6,$7*
1,1,$1+$1,$8,$9*
0 Add four rect primitives between the rounded corners*
20,1,$1+$1,$2,$3,$4,$5,0*
20,1,$1+$1,$4,$5,$6,$7,0*
20,1,$1+$1,$6,$7,$8,$9,0*
20,1,$1+$1,$8,$9,$2,$3,0*%
G04 Aperture macros list end*
%ADD10C,0.150000*%
%ADD11C,0.120000*%
%ADD12C,0.152400*%
%ADD13C,1.200000*%
%ADD14C,1.500000*%
%ADD15C,1.600200*%
%ADD16RoundRect,0.140000X0.140000X0.170000X-0.140000X0.170000X-0.140000X-0.170000X0.140000X-0.170000X0*%
%ADD17RoundRect,0.140000X-0.140000X-0.170000X0.140000X-0.170000X0.140000X0.170000X-0.140000X0.170000X0*%
%ADD18RoundRect,0.135000X-0.185000X0.135000X-0.185000X-0.135000X0.185000X-0.135000X0.185000X0.135000X0*%
%ADD19R,0.558800X2.286000*%
%ADD20RoundRect,0.135000X0.185000X-0.135000X0.185000X0.135000X-0.185000X0.135000X-0.185000X-0.135000X0*%
%ADD21RoundRect,0.135000X0.135000X0.185000X-0.135000X0.185000X-0.135000X-0.185000X0.135000X-0.185000X0*%
G04 APERTURE END LIST*
D10*
X120650000Y-113284000D02*
X121412000Y-113284000D01*
X112395000Y-105029000D02*
X112776000Y-105537000D01*
X112268000Y-102108000D02*
X112522000Y-102108000D01*
X116459000Y-100965000D02*
X116332000Y-101346000D01*
X120396000Y-100711000D02*
X120650000Y-100457000D01*
X123952000Y-105664000D02*
X122605800Y-104711500D01*
X112395000Y-107442000D02*
X112395000Y-105029000D01*
X112522000Y-102108000D02*
X112395000Y-101854000D01*
X122605800Y-104711500D02*
X123317000Y-104648000D01*
X114935000Y-114554000D02*
X115824000Y-114554000D01*
X123952000Y-109347000D02*
X123952000Y-111252000D01*
X122936000Y-102108000D02*
X123190000Y-102362000D01*
X123698000Y-102108000D02*
X122936000Y-102108000D01*
X120650000Y-113284000D02*
X121031000Y-112395000D01*
X112395000Y-105029000D02*
X112014000Y-105537000D01*
X116332000Y-101346000D02*
X116713000Y-101346000D01*
X122936000Y-102108000D02*
X123190000Y-101854000D01*
X120396000Y-100711000D02*
X120396000Y-100330000D01*
X115824000Y-114554000D02*
X115443000Y-114300000D01*
X115824000Y-114554000D02*
X115443000Y-114808000D01*
X120396000Y-100711000D02*
X120142000Y-100457000D01*
X112522000Y-102108000D02*
X112395000Y-102362000D01*
X116332000Y-101346000D02*
X116459000Y-100965000D01*
X117221000Y-100711000D02*
X116332000Y-101346000D01*
X112268000Y-100838000D02*
X112268000Y-102108000D01*
X123952000Y-111252000D02*
X120650000Y-113284000D01*
X123698000Y-101473000D02*
X123698000Y-102108000D01*
X123190000Y-101854000D02*
X122936000Y-102108000D01*
X114725220Y-111375866D02*
X113963316Y-111375866D01*
X114344268Y-111756819D02*
X114344268Y-110994914D01*
X114566819Y-112541255D02*
X114566819Y-112731731D01*
X114566819Y-112731731D02*
X114614438Y-112826969D01*
X114614438Y-112826969D02*
X114709676Y-112922207D01*
X114709676Y-112922207D02*
X114900152Y-112969826D01*
X114900152Y-112969826D02*
X115233485Y-112969826D01*
X115233485Y-112969826D02*
X115423961Y-112922207D01*
X115423961Y-112922207D02*
X115519200Y-112826969D01*
X115519200Y-112826969D02*
X115566819Y-112731731D01*
X115566819Y-112731731D02*
X115566819Y-112541255D01*
X115566819Y-112541255D02*
X115519200Y-112446017D01*
X115519200Y-112446017D02*
X115423961Y-112350779D01*
X115423961Y-112350779D02*
X115233485Y-112303160D01*
X115233485Y-112303160D02*
X114900152Y-112303160D01*
X114900152Y-112303160D02*
X114709676Y-112350779D01*
X114709676Y-112350779D02*
X114614438Y-112446017D01*
X114614438Y-112446017D02*
X114566819Y-112541255D01*
X114900152Y-113255541D02*
X114900152Y-113636493D01*
X115566819Y-113398398D02*
X114709676Y-113398398D01*
X114709676Y-113398398D02*
X114614438Y-113446017D01*
X114614438Y-113446017D02*
X114566819Y-113541255D01*
X114566819Y-113541255D02*
X114566819Y-113636493D01*
X114900152Y-113826970D02*
X114900152Y-114207922D01*
X115566819Y-113969827D02*
X114709676Y-113969827D01*
X114709676Y-113969827D02*
X114614438Y-114017446D01*
X114614438Y-114017446D02*
X114566819Y-114112684D01*
X114566819Y-114112684D02*
X114566819Y-114207922D01*
X112645819Y-110636207D02*
X112169628Y-110302874D01*
X112645819Y-110064779D02*
X111645819Y-110064779D01*
X111645819Y-110064779D02*
X111645819Y-110445731D01*
X111645819Y-110445731D02*
X111693438Y-110540969D01*
X111693438Y-110540969D02*
X111741057Y-110588588D01*
X111741057Y-110588588D02*
X111836295Y-110636207D01*
X111836295Y-110636207D02*
X111979152Y-110636207D01*
X111979152Y-110636207D02*
X112074390Y-110588588D01*
X112074390Y-110588588D02*
X112122009Y-110540969D01*
X112122009Y-110540969D02*
X112169628Y-110445731D01*
X112169628Y-110445731D02*
X112169628Y-110064779D01*
X112645819Y-111493350D02*
X112122009Y-111493350D01*
X112122009Y-111493350D02*
X112026771Y-111445731D01*
X112026771Y-111445731D02*
X111979152Y-111350493D01*
X111979152Y-111350493D02*
X111979152Y-111160017D01*
X111979152Y-111160017D02*
X112026771Y-111064779D01*
X112598200Y-111493350D02*
X112645819Y-111398112D01*
X112645819Y-111398112D02*
X112645819Y-111160017D01*
X112645819Y-111160017D02*
X112598200Y-111064779D01*
X112598200Y-111064779D02*
X112502961Y-111017160D01*
X112502961Y-111017160D02*
X112407723Y-111017160D01*
X112407723Y-111017160D02*
X112312485Y-111064779D01*
X112312485Y-111064779D02*
X112264866Y-111160017D01*
X112264866Y-111160017D02*
X112264866Y-111398112D01*
X112264866Y-111398112D02*
X112217247Y-111493350D01*
X111979152Y-111826684D02*
X111979152Y-112207636D01*
X111645819Y-111969541D02*
X112502961Y-111969541D01*
X112502961Y-111969541D02*
X112598200Y-112017160D01*
X112598200Y-112017160D02*
X112645819Y-112112398D01*
X112645819Y-112112398D02*
X112645819Y-112207636D01*
X123504438Y-106778588D02*
X123456819Y-106683350D01*
X123456819Y-106683350D02*
X123456819Y-106540493D01*
X123456819Y-106540493D02*
X123504438Y-106397636D01*
X123504438Y-106397636D02*
X123599676Y-106302398D01*
X123599676Y-106302398D02*
X123694914Y-106254779D01*
X123694914Y-106254779D02*
X123885390Y-106207160D01*
X123885390Y-106207160D02*
X124028247Y-106207160D01*
X124028247Y-106207160D02*
X124218723Y-106254779D01*
X124218723Y-106254779D02*
X124313961Y-106302398D01*
X124313961Y-106302398D02*
X124409200Y-106397636D01*
X124409200Y-106397636D02*
X124456819Y-106540493D01*
X124456819Y-106540493D02*
X124456819Y-106635731D01*
X124456819Y-106635731D02*
X124409200Y-106778588D01*
X124409200Y-106778588D02*
X124361580Y-106826207D01*
X124361580Y-106826207D02*
X124028247Y-106826207D01*
X124028247Y-106826207D02*
X124028247Y-106635731D01*
X124456819Y-107254779D02*
X123456819Y-107254779D01*
X123456819Y-107254779D02*
X124456819Y-107826207D01*
X124456819Y-107826207D02*
X123456819Y-107826207D01*
X124456819Y-108302398D02*
X123456819Y-108302398D01*
X123456819Y-108302398D02*
X123456819Y-108540493D01*
X123456819Y-108540493D02*
X123504438Y-108683350D01*
X123504438Y-108683350D02*
X123599676Y-108778588D01*
X123599676Y-108778588D02*
X123694914Y-108826207D01*
X123694914Y-108826207D02*
X123885390Y-108873826D01*
X123885390Y-108873826D02*
X124028247Y-108873826D01*
X124028247Y-108873826D02*
X124218723Y-108826207D01*
X124218723Y-108826207D02*
X124313961Y-108778588D01*
X124313961Y-108778588D02*
X124409200Y-108683350D01*
X124409200Y-108683350D02*
X124456819Y-108540493D01*
X124456819Y-108540493D02*
X124456819Y-108302398D01*
X120868839Y-106883200D02*
X120725982Y-106930819D01*
X120725982Y-106930819D02*
X120487887Y-106930819D01*
X120487887Y-106930819D02*
X120392649Y-106883200D01*
X120392649Y-106883200D02*
X120345030Y-106835580D01*
X120345030Y-106835580D02*
X120297411Y-106740342D01*
X120297411Y-106740342D02*
X120297411Y-106645104D01*
X120297411Y-106645104D02*
X120345030Y-106549866D01*
X120345030Y-106549866D02*
X120392649Y-106502247D01*
X120392649Y-106502247D02*
X120487887Y-106454628D01*
X120487887Y-106454628D02*
X120678363Y-106407009D01*
X120678363Y-106407009D02*
X120773601Y-106359390D01*
X120773601Y-106359390D02*
X120821220Y-106311771D01*
X120821220Y-106311771D02*
X120868839Y-106216533D01*
X120868839Y-106216533D02*
X120868839Y-106121295D01*
X120868839Y-106121295D02*
X120821220Y-106026057D01*
X120821220Y-106026057D02*
X120773601Y-105978438D01*
X120773601Y-105978438D02*
X120678363Y-105930819D01*
X120678363Y-105930819D02*
X120440268Y-105930819D01*
X120440268Y-105930819D02*
X120297411Y-105978438D01*
X119440268Y-106883200D02*
X119535506Y-106930819D01*
X119535506Y-106930819D02*
X119725982Y-106930819D01*
X119725982Y-106930819D02*
X119821220Y-106883200D01*
X119821220Y-106883200D02*
X119868839Y-106835580D01*
X119868839Y-106835580D02*
X119916458Y-106740342D01*
X119916458Y-106740342D02*
X119916458Y-106454628D01*
X119916458Y-106454628D02*
X119868839Y-106359390D01*
X119868839Y-106359390D02*
X119821220Y-106311771D01*
X119821220Y-106311771D02*
X119725982Y-106264152D01*
X119725982Y-106264152D02*
X119535506Y-106264152D01*
X119535506Y-106264152D02*
X119440268Y-106311771D01*
X118583125Y-106930819D02*
X118583125Y-106407009D01*
X118583125Y-106407009D02*
X118630744Y-106311771D01*
X118630744Y-106311771D02*
X118725982Y-106264152D01*
X118725982Y-106264152D02*
X118916458Y-106264152D01*
X118916458Y-106264152D02*
X119011696Y-106311771D01*
X118583125Y-106883200D02*
X118678363Y-106930819D01*
X118678363Y-106930819D02*
X118916458Y-106930819D01*
X118916458Y-106930819D02*
X119011696Y-106883200D01*
X119011696Y-106883200D02*
X119059315Y-106787961D01*
X119059315Y-106787961D02*
X119059315Y-106692723D01*
X119059315Y-106692723D02*
X119011696Y-106597485D01*
X119011696Y-106597485D02*
X118916458Y-106549866D01*
X118916458Y-106549866D02*
X118678363Y-106549866D01*
X118678363Y-106549866D02*
X118583125Y-106502247D01*
X117964077Y-106930819D02*
X118059315Y-106883200D01*
X118059315Y-106883200D02*
X118106934Y-106787961D01*
X118106934Y-106787961D02*
X118106934Y-105930819D01*
X117202172Y-106883200D02*
X117297410Y-106930819D01*
X117297410Y-106930819D02*
X117487886Y-106930819D01*
X117487886Y-106930819D02*
X117583124Y-106883200D01*
X117583124Y-106883200D02*
X117630743Y-106787961D01*
X117630743Y-106787961D02*
X117630743Y-106407009D01*
X117630743Y-106407009D02*
X117583124Y-106311771D01*
X117583124Y-106311771D02*
X117487886Y-106264152D01*
X117487886Y-106264152D02*
X117297410Y-106264152D01*
X117297410Y-106264152D02*
X117202172Y-106311771D01*
X117202172Y-106311771D02*
X117154553Y-106407009D01*
X117154553Y-106407009D02*
X117154553Y-106502247D01*
X117154553Y-106502247D02*
X117630743Y-106597485D01*
X115773600Y-105930819D02*
X115583124Y-105930819D01*
X115583124Y-105930819D02*
X115487886Y-105978438D01*
X115487886Y-105978438D02*
X115392648Y-106073676D01*
X115392648Y-106073676D02*
X115345029Y-106264152D01*
X115345029Y-106264152D02*
X115345029Y-106597485D01*
X115345029Y-106597485D02*
X115392648Y-106787961D01*
X115392648Y-106787961D02*
X115487886Y-106883200D01*
X115487886Y-106883200D02*
X115583124Y-106930819D01*
X115583124Y-106930819D02*
X115773600Y-106930819D01*
X115773600Y-106930819D02*
X115868838Y-106883200D01*
X115868838Y-106883200D02*
X115964076Y-106787961D01*
X115964076Y-106787961D02*
X116011695Y-106597485D01*
X116011695Y-106597485D02*
X116011695Y-106264152D01*
X116011695Y-106264152D02*
X115964076Y-106073676D01*
X115964076Y-106073676D02*
X115868838Y-105978438D01*
X115868838Y-105978438D02*
X115773600Y-105930819D01*
X114916457Y-106930819D02*
X114916457Y-106264152D01*
X114916457Y-106454628D02*
X114868838Y-106359390D01*
X114868838Y-106359390D02*
X114821219Y-106311771D01*
X114821219Y-106311771D02*
X114725981Y-106264152D01*
X114725981Y-106264152D02*
X114630743Y-106264152D01*
X114297409Y-106930819D02*
X114297409Y-106264152D01*
X114297409Y-105930819D02*
X114345028Y-105978438D01*
X114345028Y-105978438D02*
X114297409Y-106026057D01*
X114297409Y-106026057D02*
X114249790Y-105978438D01*
X114249790Y-105978438D02*
X114297409Y-105930819D01*
X114297409Y-105930819D02*
X114297409Y-106026057D01*
X113392648Y-106264152D02*
X113392648Y-107073676D01*
X113392648Y-107073676D02*
X113440267Y-107168914D01*
X113440267Y-107168914D02*
X113487886Y-107216533D01*
X113487886Y-107216533D02*
X113583124Y-107264152D01*
X113583124Y-107264152D02*
X113725981Y-107264152D01*
X113725981Y-107264152D02*
X113821219Y-107216533D01*
X113392648Y-106883200D02*
X113487886Y-106930819D01*
X113487886Y-106930819D02*
X113678362Y-106930819D01*
X113678362Y-106930819D02*
X113773600Y-106883200D01*
X113773600Y-106883200D02*
X113821219Y-106835580D01*
X113821219Y-106835580D02*
X113868838Y-106740342D01*
X113868838Y-106740342D02*
X113868838Y-106454628D01*
X113868838Y-106454628D02*
X113821219Y-106359390D01*
X113821219Y-106359390D02*
X113773600Y-106311771D01*
X113773600Y-106311771D02*
X113678362Y-106264152D01*
X113678362Y-106264152D02*
X113487886Y-106264152D01*
X113487886Y-106264152D02*
X113392648Y-106311771D01*
X123737666Y-101070580D02*
X123785285Y-101118200D01*
X123785285Y-101118200D02*
X123928142Y-101165819D01*
X123928142Y-101165819D02*
X124023380Y-101165819D01*
X124023380Y-101165819D02*
X124166237Y-101118200D01*
X124166237Y-101118200D02*
X124261475Y-101022961D01*
X124261475Y-101022961D02*
X124309094Y-100927723D01*
X124309094Y-100927723D02*
X124356713Y-100737247D01*
X124356713Y-100737247D02*
X124356713Y-100594390D01*
X124356713Y-100594390D02*
X124309094Y-100403914D01*
X124309094Y-100403914D02*
X124261475Y-100308676D01*
X124261475Y-100308676D02*
X124166237Y-100213438D01*
X124166237Y-100213438D02*
X124023380Y-100165819D01*
X124023380Y-100165819D02*
X123928142Y-100165819D01*
X123928142Y-100165819D02*
X123785285Y-100213438D01*
X123785285Y-100213438D02*
X123737666Y-100261057D01*
X123356713Y-100261057D02*
X123309094Y-100213438D01*
X123309094Y-100213438D02*
X123213856Y-100165819D01*
X123213856Y-100165819D02*
X122975761Y-100165819D01*
X122975761Y-100165819D02*
X122880523Y-100213438D01*
X122880523Y-100213438D02*
X122832904Y-100261057D01*
X122832904Y-100261057D02*
X122785285Y-100356295D01*
X122785285Y-100356295D02*
X122785285Y-100451533D01*
X122785285Y-100451533D02*
X122832904Y-100594390D01*
X122832904Y-100594390D02*
X123404332Y-101165819D01*
X123404332Y-101165819D02*
X122785285Y-101165819D01*
X112942666Y-100435580D02*
X112990285Y-100483200D01*
X112990285Y-100483200D02*
X113133142Y-100530819D01*
X113133142Y-100530819D02*
X113228380Y-100530819D01*
X113228380Y-100530819D02*
X113371237Y-100483200D01*
X113371237Y-100483200D02*
X113466475Y-100387961D01*
X113466475Y-100387961D02*
X113514094Y-100292723D01*
X113514094Y-100292723D02*
X113561713Y-100102247D01*
X113561713Y-100102247D02*
X113561713Y-99959390D01*
X113561713Y-99959390D02*
X113514094Y-99768914D01*
X113514094Y-99768914D02*
X113466475Y-99673676D01*
X113466475Y-99673676D02*
X113371237Y-99578438D01*
X113371237Y-99578438D02*
X113228380Y-99530819D01*
X113228380Y-99530819D02*
X113133142Y-99530819D01*
X113133142Y-99530819D02*
X112990285Y-99578438D01*
X112990285Y-99578438D02*
X112942666Y-99626057D01*
X111990285Y-100530819D02*
X112561713Y-100530819D01*
X112275999Y-100530819D02*
X112275999Y-99530819D01*
X112275999Y-99530819D02*
X112371237Y-99673676D01*
X112371237Y-99673676D02*
X112466475Y-99768914D01*
X112466475Y-99768914D02*
X112561713Y-99816533D01*
X120689666Y-100403819D02*
X121022999Y-99927628D01*
X121261094Y-100403819D02*
X121261094Y-99403819D01*
X121261094Y-99403819D02*
X120880142Y-99403819D01*
X120880142Y-99403819D02*
X120784904Y-99451438D01*
X120784904Y-99451438D02*
X120737285Y-99499057D01*
X120737285Y-99499057D02*
X120689666Y-99594295D01*
X120689666Y-99594295D02*
X120689666Y-99737152D01*
X120689666Y-99737152D02*
X120737285Y-99832390D01*
X120737285Y-99832390D02*
X120784904Y-99880009D01*
X120784904Y-99880009D02*
X120880142Y-99927628D01*
X120880142Y-99927628D02*
X121261094Y-99927628D01*
X119832523Y-99737152D02*
X119832523Y-100403819D01*
X120070618Y-99356200D02*
X120308713Y-100070485D01*
X120308713Y-100070485D02*
X119689666Y-100070485D01*
X112053019Y-104063800D02*
X112291114Y-104063800D01*
X112195876Y-103825705D02*
X112291114Y-104063800D01*
X112291114Y-104063800D02*
X112195876Y-104301895D01*
X112481590Y-103920943D02*
X112291114Y-104063800D01*
X112291114Y-104063800D02*
X112481590Y-104206657D01*
X112053019Y-104063800D02*
X112291114Y-104063800D01*
X112195876Y-103825705D02*
X112291114Y-104063800D01*
X112291114Y-104063800D02*
X112195876Y-104301895D01*
X112481590Y-103920943D02*
X112291114Y-104063800D01*
X112291114Y-104063800D02*
X112481590Y-104206657D01*
X112849819Y-108164333D02*
X112373628Y-107831000D01*
X112849819Y-107592905D02*
X111849819Y-107592905D01*
X111849819Y-107592905D02*
X111849819Y-107973857D01*
X111849819Y-107973857D02*
X111897438Y-108069095D01*
X111897438Y-108069095D02*
X111945057Y-108116714D01*
X111945057Y-108116714D02*
X112040295Y-108164333D01*
X112040295Y-108164333D02*
X112183152Y-108164333D01*
X112183152Y-108164333D02*
X112278390Y-108116714D01*
X112278390Y-108116714D02*
X112326009Y-108069095D01*
X112326009Y-108069095D02*
X112373628Y-107973857D01*
X112373628Y-107973857D02*
X112373628Y-107592905D01*
X112849819Y-109116714D02*
X112849819Y-108545286D01*
X112849819Y-108831000D02*
X111849819Y-108831000D01*
X111849819Y-108831000D02*
X111992676Y-108735762D01*
X111992676Y-108735762D02*
X112087914Y-108640524D01*
X112087914Y-108640524D02*
X112135533Y-108545286D01*
X118403666Y-100530819D02*
X118736999Y-100054628D01*
X118975094Y-100530819D02*
X118975094Y-99530819D01*
X118975094Y-99530819D02*
X118594142Y-99530819D01*
X118594142Y-99530819D02*
X118498904Y-99578438D01*
X118498904Y-99578438D02*
X118451285Y-99626057D01*
X118451285Y-99626057D02*
X118403666Y-99721295D01*
X118403666Y-99721295D02*
X118403666Y-99864152D01*
X118403666Y-99864152D02*
X118451285Y-99959390D01*
X118451285Y-99959390D02*
X118498904Y-100007009D01*
X118498904Y-100007009D02*
X118594142Y-100054628D01*
X118594142Y-100054628D02*
X118975094Y-100054628D01*
X118070332Y-99530819D02*
X117451285Y-99530819D01*
X117451285Y-99530819D02*
X117784618Y-99911771D01*
X117784618Y-99911771D02*
X117641761Y-99911771D01*
X117641761Y-99911771D02*
X117546523Y-99959390D01*
X117546523Y-99959390D02*
X117498904Y-100007009D01*
X117498904Y-100007009D02*
X117451285Y-100102247D01*
X117451285Y-100102247D02*
X117451285Y-100340342D01*
X117451285Y-100340342D02*
X117498904Y-100435580D01*
X117498904Y-100435580D02*
X117546523Y-100483200D01*
X117546523Y-100483200D02*
X117641761Y-100530819D01*
X117641761Y-100530819D02*
X117927475Y-100530819D01*
X117927475Y-100530819D02*
X118022713Y-100483200D01*
X118022713Y-100483200D02*
X118070332Y-100435580D01*
X120816666Y-110663819D02*
X121149999Y-110187628D01*
X121388094Y-110663819D02*
X121388094Y-109663819D01*
X121388094Y-109663819D02*
X121007142Y-109663819D01*
X121007142Y-109663819D02*
X120911904Y-109711438D01*
X120911904Y-109711438D02*
X120864285Y-109759057D01*
X120864285Y-109759057D02*
X120816666Y-109854295D01*
X120816666Y-109854295D02*
X120816666Y-109997152D01*
X120816666Y-109997152D02*
X120864285Y-110092390D01*
X120864285Y-110092390D02*
X120911904Y-110140009D01*
X120911904Y-110140009D02*
X121007142Y-110187628D01*
X121007142Y-110187628D02*
X121388094Y-110187628D01*
X119911904Y-109663819D02*
X120388094Y-109663819D01*
X120388094Y-109663819D02*
X120435713Y-110140009D01*
X120435713Y-110140009D02*
X120388094Y-110092390D01*
X120388094Y-110092390D02*
X120292856Y-110044771D01*
X120292856Y-110044771D02*
X120054761Y-110044771D01*
X120054761Y-110044771D02*
X119959523Y-110092390D01*
X119959523Y-110092390D02*
X119911904Y-110140009D01*
X119911904Y-110140009D02*
X119864285Y-110235247D01*
X119864285Y-110235247D02*
X119864285Y-110473342D01*
X119864285Y-110473342D02*
X119911904Y-110568580D01*
X119911904Y-110568580D02*
X119959523Y-110616200D01*
X119959523Y-110616200D02*
X120054761Y-110663819D01*
X120054761Y-110663819D02*
X120292856Y-110663819D01*
X120292856Y-110663819D02*
X120388094Y-110616200D01*
X120388094Y-110616200D02*
X120435713Y-110568580D01*
D11*
%TO.C,C2*%
X122154836Y-102595000D02*
X121939164Y-102595000D01*
X122154836Y-101875000D02*
X121939164Y-101875000D01*
%TO.C,C1*%
X113430164Y-101900400D02*
X113645836Y-101900400D01*
X113430164Y-102620400D02*
X113645836Y-102620400D01*
%TO.C,R4*%
X121030000Y-101700359D02*
X121030000Y-102007641D01*
X120270000Y-101700359D02*
X120270000Y-102007641D01*
D12*
%TO.C,U1*%
X122605800Y-104711500D02*
X122605800Y-108953300D01*
X113614200Y-108953300D02*
X113614200Y-104711500D01*
G36*
X119570500Y-110998000D02*
G01*
X119189500Y-110998000D01*
X119189500Y-110744000D01*
X119570500Y-110744000D01*
X119570500Y-110998000D01*
G37*
D11*
%TO.C,R1*%
X112269000Y-103912641D02*
X112269000Y-103605359D01*
X113029000Y-103912641D02*
X113029000Y-103605359D01*
%TO.C,R3*%
X115190000Y-101880641D02*
X115190000Y-101573359D01*
X115950000Y-101880641D02*
X115950000Y-101573359D01*
%TO.C,R5*%
X120803641Y-111759000D02*
X120496359Y-111759000D01*
X120803641Y-110999000D02*
X120496359Y-110999000D01*
%TD*%
%LPC*%
D13*
%TO.C,RAT*%
X113284000Y-113284000D03*
D14*
X113284000Y-113284000D03*
%TD*%
D13*
%TO.C,ON*%
X116840000Y-113792000D03*
D14*
X116840000Y-113792000D03*
%TD*%
D13*
%TO.C,GND*%
X119380000Y-113792000D03*
D14*
X119380000Y-113792000D03*
%TD*%
D15*
%TO.C,+*%
X118110000Y-101760000D03*
X118110000Y-111760000D03*
%TD*%
D16*
%TO.C,C2*%
X122527000Y-102235000D03*
X121567000Y-102235000D03*
%TD*%
D17*
%TO.C,C1*%
X113058000Y-102260400D03*
X114018000Y-102260400D03*
%TD*%
D18*
%TO.C,R4*%
X120650000Y-101344000D03*
X120650000Y-102364000D03*
%TD*%
D19*
%TO.C,U1*%
X114300000Y-104317800D03*
X115570000Y-104317800D03*
X116840000Y-104317800D03*
X118110000Y-104317800D03*
X119380000Y-104317800D03*
X120650000Y-104317800D03*
X121920000Y-104317800D03*
X121920000Y-109347000D03*
X120650000Y-109347000D03*
X119380000Y-109347000D03*
X118110000Y-109347000D03*
X116840000Y-109347000D03*
X115570000Y-109347000D03*
X114300000Y-109347000D03*
%TD*%
D20*
%TO.C,R1*%
X112649000Y-104269000D03*
X112649000Y-103249000D03*
%TD*%
%TO.C,R3*%
X115570000Y-102237000D03*
X115570000Y-101217000D03*
%TD*%
D21*
%TO.C,R5*%
X121160000Y-111379000D03*
X120140000Y-111379000D03*
%TD*%
%LPD*%
M02*
